G04 #@! TF.GenerationSoftware,KiCad,Pcbnew,6.0.2+dfsg-1*
G04 #@! TF.CreationDate,2022-06-20T13:27:44+02:00*
G04 #@! TF.ProjectId,trainlog,74726169-6e6c-46f6-972e-6b696361645f,rev?*
G04 #@! TF.SameCoordinates,Original*
G04 #@! TF.FileFunction,Legend,Top*
G04 #@! TF.FilePolarity,Positive*
%FSLAX46Y46*%
G04 Gerber Fmt 4.6, Leading zero omitted, Abs format (unit mm)*
G04 Created by KiCad (PCBNEW 6.0.2+dfsg-1) date 2022-06-20 13:27:44*
%MOMM*%
%LPD*%
G01*
G04 APERTURE LIST*
%ADD10C,0.150000*%
%ADD11C,0.300000*%
%ADD12C,0.100000*%
%ADD13C,0.120000*%
G04 APERTURE END LIST*
D10*
X108285714Y-100619047D02*
X108952380Y-100619047D01*
X108285714Y-101047619D02*
X108809523Y-101047619D01*
X108904761Y-101000000D01*
X108952380Y-100904761D01*
X108952380Y-100761904D01*
X108904761Y-100666666D01*
X108857142Y-100619047D01*
X108285714Y-100238095D02*
X108952380Y-100047619D01*
X108476190Y-99857142D01*
X108952380Y-99666666D01*
X108285714Y-99476190D01*
X108285714Y-98666666D02*
X108952380Y-98666666D01*
X108285714Y-99095238D02*
X108809523Y-99095238D01*
X108904761Y-99047619D01*
X108952380Y-98952380D01*
X108952380Y-98809523D01*
X108904761Y-98714285D01*
X108857142Y-98666666D01*
X108285714Y-97428571D02*
X108571428Y-96666666D01*
X108857142Y-97428571D01*
X108857142Y-96190476D02*
X108904761Y-96142857D01*
X108952380Y-96190476D01*
X108904761Y-96238095D01*
X108857142Y-96190476D01*
X108952380Y-96190476D01*
X108285714Y-94952380D02*
X108571428Y-95714285D01*
X108857142Y-94952380D01*
D11*
X90885714Y-101342857D02*
X90885714Y-100428571D01*
X90085714Y-101000000D02*
X92142857Y-101000000D01*
X92371428Y-100885714D01*
X92485714Y-100657142D01*
X92485714Y-100428571D01*
X92485714Y-99628571D02*
X90885714Y-99628571D01*
X91342857Y-99628571D02*
X91114285Y-99514285D01*
X91000000Y-99400000D01*
X90885714Y-99171428D01*
X90885714Y-98942857D01*
X92485714Y-97114285D02*
X91228571Y-97114285D01*
X91000000Y-97228571D01*
X90885714Y-97457142D01*
X90885714Y-97914285D01*
X91000000Y-98142857D01*
X92371428Y-97114285D02*
X92485714Y-97342857D01*
X92485714Y-97914285D01*
X92371428Y-98142857D01*
X92142857Y-98257142D01*
X91914285Y-98257142D01*
X91685714Y-98142857D01*
X91571428Y-97914285D01*
X91571428Y-97342857D01*
X91457142Y-97114285D01*
X92485714Y-95971428D02*
X90885714Y-95971428D01*
X90085714Y-95971428D02*
X90200000Y-96085714D01*
X90314285Y-95971428D01*
X90200000Y-95857142D01*
X90085714Y-95971428D01*
X90314285Y-95971428D01*
X90885714Y-94828571D02*
X92485714Y-94828571D01*
X91114285Y-94828571D02*
X91000000Y-94714285D01*
X90885714Y-94485714D01*
X90885714Y-94142857D01*
X91000000Y-93914285D01*
X91228571Y-93800000D01*
X92485714Y-93800000D01*
X92485714Y-92314285D02*
X92371428Y-92542857D01*
X92142857Y-92657142D01*
X90085714Y-92657142D01*
X92485714Y-91057142D02*
X92371428Y-91285714D01*
X92257142Y-91400000D01*
X92028571Y-91514285D01*
X91342857Y-91514285D01*
X91114285Y-91400000D01*
X91000000Y-91285714D01*
X90885714Y-91057142D01*
X90885714Y-90714285D01*
X91000000Y-90485714D01*
X91114285Y-90371428D01*
X91342857Y-90257142D01*
X92028571Y-90257142D01*
X92257142Y-90371428D01*
X92371428Y-90485714D01*
X92485714Y-90714285D01*
X92485714Y-91057142D01*
X90885714Y-88200000D02*
X92828571Y-88200000D01*
X93057142Y-88314285D01*
X93171428Y-88428571D01*
X93285714Y-88657142D01*
X93285714Y-89000000D01*
X93171428Y-89228571D01*
X92371428Y-88200000D02*
X92485714Y-88428571D01*
X92485714Y-88885714D01*
X92371428Y-89114285D01*
X92257142Y-89228571D01*
X92028571Y-89342857D01*
X91342857Y-89342857D01*
X91114285Y-89228571D01*
X91000000Y-89114285D01*
X90885714Y-88885714D01*
X90885714Y-88428571D01*
X91000000Y-88200000D01*
D12*
G04 #@! TO.C,J1*
X99850000Y-137731071D02*
X99850000Y-138052500D01*
X99828571Y-138116785D01*
X99785714Y-138159642D01*
X99721428Y-138181071D01*
X99678571Y-138181071D01*
X100300000Y-138181071D02*
X100042857Y-138181071D01*
X100171428Y-138181071D02*
X100171428Y-137731071D01*
X100128571Y-137795357D01*
X100085714Y-137838214D01*
X100042857Y-137859642D01*
G04 #@! TO.C,U5*
X99457142Y-74753571D02*
X99457142Y-75117857D01*
X99478571Y-75160714D01*
X99500000Y-75182142D01*
X99542857Y-75203571D01*
X99628571Y-75203571D01*
X99671428Y-75182142D01*
X99692857Y-75160714D01*
X99714285Y-75117857D01*
X99714285Y-74753571D01*
X100142857Y-74753571D02*
X99928571Y-74753571D01*
X99907142Y-74967857D01*
X99928571Y-74946428D01*
X99971428Y-74925000D01*
X100078571Y-74925000D01*
X100121428Y-74946428D01*
X100142857Y-74967857D01*
X100164285Y-75010714D01*
X100164285Y-75117857D01*
X100142857Y-75160714D01*
X100121428Y-75182142D01*
X100078571Y-75203571D01*
X99971428Y-75203571D01*
X99928571Y-75182142D01*
X99907142Y-75160714D01*
G04 #@! TO.C,R10*
X101710714Y-58003571D02*
X101560714Y-57789285D01*
X101453571Y-58003571D02*
X101453571Y-57553571D01*
X101625000Y-57553571D01*
X101667857Y-57575000D01*
X101689285Y-57596428D01*
X101710714Y-57639285D01*
X101710714Y-57703571D01*
X101689285Y-57746428D01*
X101667857Y-57767857D01*
X101625000Y-57789285D01*
X101453571Y-57789285D01*
X102139285Y-58003571D02*
X101882142Y-58003571D01*
X102010714Y-58003571D02*
X102010714Y-57553571D01*
X101967857Y-57617857D01*
X101925000Y-57660714D01*
X101882142Y-57682142D01*
X102417857Y-57553571D02*
X102460714Y-57553571D01*
X102503571Y-57575000D01*
X102525000Y-57596428D01*
X102546428Y-57639285D01*
X102567857Y-57725000D01*
X102567857Y-57832142D01*
X102546428Y-57917857D01*
X102525000Y-57960714D01*
X102503571Y-57982142D01*
X102460714Y-58003571D01*
X102417857Y-58003571D01*
X102375000Y-57982142D01*
X102353571Y-57960714D01*
X102332142Y-57917857D01*
X102310714Y-57832142D01*
X102310714Y-57725000D01*
X102332142Y-57639285D01*
X102353571Y-57596428D01*
X102375000Y-57575000D01*
X102417857Y-57553571D01*
G04 #@! TO.C,R6*
X106325000Y-125503571D02*
X106175000Y-125289285D01*
X106067857Y-125503571D02*
X106067857Y-125053571D01*
X106239285Y-125053571D01*
X106282142Y-125075000D01*
X106303571Y-125096428D01*
X106325000Y-125139285D01*
X106325000Y-125203571D01*
X106303571Y-125246428D01*
X106282142Y-125267857D01*
X106239285Y-125289285D01*
X106067857Y-125289285D01*
X106710714Y-125053571D02*
X106625000Y-125053571D01*
X106582142Y-125075000D01*
X106560714Y-125096428D01*
X106517857Y-125160714D01*
X106496428Y-125246428D01*
X106496428Y-125417857D01*
X106517857Y-125460714D01*
X106539285Y-125482142D01*
X106582142Y-125503571D01*
X106667857Y-125503571D01*
X106710714Y-125482142D01*
X106732142Y-125460714D01*
X106753571Y-125417857D01*
X106753571Y-125310714D01*
X106732142Y-125267857D01*
X106710714Y-125246428D01*
X106667857Y-125225000D01*
X106582142Y-125225000D01*
X106539285Y-125246428D01*
X106517857Y-125267857D01*
X106496428Y-125310714D01*
G04 #@! TO.C,J2*
X101153571Y-98150000D02*
X101475000Y-98150000D01*
X101539285Y-98171428D01*
X101582142Y-98214285D01*
X101603571Y-98278571D01*
X101603571Y-98321428D01*
X101196428Y-97957142D02*
X101175000Y-97935714D01*
X101153571Y-97892857D01*
X101153571Y-97785714D01*
X101175000Y-97742857D01*
X101196428Y-97721428D01*
X101239285Y-97700000D01*
X101282142Y-97700000D01*
X101346428Y-97721428D01*
X101603571Y-97978571D01*
X101603571Y-97700000D01*
G04 #@! TO.C,C3*
X105425000Y-132660714D02*
X105403571Y-132682142D01*
X105339285Y-132703571D01*
X105296428Y-132703571D01*
X105232142Y-132682142D01*
X105189285Y-132639285D01*
X105167857Y-132596428D01*
X105146428Y-132510714D01*
X105146428Y-132446428D01*
X105167857Y-132360714D01*
X105189285Y-132317857D01*
X105232142Y-132275000D01*
X105296428Y-132253571D01*
X105339285Y-132253571D01*
X105403571Y-132275000D01*
X105425000Y-132296428D01*
X105575000Y-132253571D02*
X105853571Y-132253571D01*
X105703571Y-132425000D01*
X105767857Y-132425000D01*
X105810714Y-132446428D01*
X105832142Y-132467857D01*
X105853571Y-132510714D01*
X105853571Y-132617857D01*
X105832142Y-132660714D01*
X105810714Y-132682142D01*
X105767857Y-132703571D01*
X105639285Y-132703571D01*
X105596428Y-132682142D01*
X105575000Y-132660714D01*
G04 #@! TO.C,C1*
X108625000Y-131560714D02*
X108603571Y-131582142D01*
X108539285Y-131603571D01*
X108496428Y-131603571D01*
X108432142Y-131582142D01*
X108389285Y-131539285D01*
X108367857Y-131496428D01*
X108346428Y-131410714D01*
X108346428Y-131346428D01*
X108367857Y-131260714D01*
X108389285Y-131217857D01*
X108432142Y-131175000D01*
X108496428Y-131153571D01*
X108539285Y-131153571D01*
X108603571Y-131175000D01*
X108625000Y-131196428D01*
X109053571Y-131603571D02*
X108796428Y-131603571D01*
X108925000Y-131603571D02*
X108925000Y-131153571D01*
X108882142Y-131217857D01*
X108839285Y-131260714D01*
X108796428Y-131282142D01*
G04 #@! TO.C,R2*
X104525000Y-134903571D02*
X104375000Y-134689285D01*
X104267857Y-134903571D02*
X104267857Y-134453571D01*
X104439285Y-134453571D01*
X104482142Y-134475000D01*
X104503571Y-134496428D01*
X104525000Y-134539285D01*
X104525000Y-134603571D01*
X104503571Y-134646428D01*
X104482142Y-134667857D01*
X104439285Y-134689285D01*
X104267857Y-134689285D01*
X104696428Y-134496428D02*
X104717857Y-134475000D01*
X104760714Y-134453571D01*
X104867857Y-134453571D01*
X104910714Y-134475000D01*
X104932142Y-134496428D01*
X104953571Y-134539285D01*
X104953571Y-134582142D01*
X104932142Y-134646428D01*
X104675000Y-134903571D01*
X104953571Y-134903571D01*
G04 #@! TO.C,C4*
X104525000Y-132860714D02*
X104503571Y-132882142D01*
X104439285Y-132903571D01*
X104396428Y-132903571D01*
X104332142Y-132882142D01*
X104289285Y-132839285D01*
X104267857Y-132796428D01*
X104246428Y-132710714D01*
X104246428Y-132646428D01*
X104267857Y-132560714D01*
X104289285Y-132517857D01*
X104332142Y-132475000D01*
X104396428Y-132453571D01*
X104439285Y-132453571D01*
X104503571Y-132475000D01*
X104525000Y-132496428D01*
X104910714Y-132603571D02*
X104910714Y-132903571D01*
X104803571Y-132432142D02*
X104696428Y-132753571D01*
X104975000Y-132753571D01*
G04 #@! TO.C,R15*
X107110714Y-133103571D02*
X106960714Y-132889285D01*
X106853571Y-133103571D02*
X106853571Y-132653571D01*
X107025000Y-132653571D01*
X107067857Y-132675000D01*
X107089285Y-132696428D01*
X107110714Y-132739285D01*
X107110714Y-132803571D01*
X107089285Y-132846428D01*
X107067857Y-132867857D01*
X107025000Y-132889285D01*
X106853571Y-132889285D01*
X107539285Y-133103571D02*
X107282142Y-133103571D01*
X107410714Y-133103571D02*
X107410714Y-132653571D01*
X107367857Y-132717857D01*
X107325000Y-132760714D01*
X107282142Y-132782142D01*
X107946428Y-132653571D02*
X107732142Y-132653571D01*
X107710714Y-132867857D01*
X107732142Y-132846428D01*
X107775000Y-132825000D01*
X107882142Y-132825000D01*
X107925000Y-132846428D01*
X107946428Y-132867857D01*
X107967857Y-132910714D01*
X107967857Y-133017857D01*
X107946428Y-133060714D01*
X107925000Y-133082142D01*
X107882142Y-133103571D01*
X107775000Y-133103571D01*
X107732142Y-133082142D01*
X107710714Y-133060714D01*
G04 #@! TO.C,U6*
X106657142Y-84153571D02*
X106657142Y-84517857D01*
X106678571Y-84560714D01*
X106700000Y-84582142D01*
X106742857Y-84603571D01*
X106828571Y-84603571D01*
X106871428Y-84582142D01*
X106892857Y-84560714D01*
X106914285Y-84517857D01*
X106914285Y-84153571D01*
X107321428Y-84153571D02*
X107235714Y-84153571D01*
X107192857Y-84175000D01*
X107171428Y-84196428D01*
X107128571Y-84260714D01*
X107107142Y-84346428D01*
X107107142Y-84517857D01*
X107128571Y-84560714D01*
X107150000Y-84582142D01*
X107192857Y-84603571D01*
X107278571Y-84603571D01*
X107321428Y-84582142D01*
X107342857Y-84560714D01*
X107364285Y-84517857D01*
X107364285Y-84410714D01*
X107342857Y-84367857D01*
X107321428Y-84346428D01*
X107278571Y-84325000D01*
X107192857Y-84325000D01*
X107150000Y-84346428D01*
X107128571Y-84367857D01*
X107107142Y-84410714D01*
G04 #@! TO.C,C26*
X89910714Y-131789285D02*
X89932142Y-131810714D01*
X89953571Y-131875000D01*
X89953571Y-131917857D01*
X89932142Y-131982142D01*
X89889285Y-132025000D01*
X89846428Y-132046428D01*
X89760714Y-132067857D01*
X89696428Y-132067857D01*
X89610714Y-132046428D01*
X89567857Y-132025000D01*
X89525000Y-131982142D01*
X89503571Y-131917857D01*
X89503571Y-131875000D01*
X89525000Y-131810714D01*
X89546428Y-131789285D01*
X89546428Y-131617857D02*
X89525000Y-131596428D01*
X89503571Y-131553571D01*
X89503571Y-131446428D01*
X89525000Y-131403571D01*
X89546428Y-131382142D01*
X89589285Y-131360714D01*
X89632142Y-131360714D01*
X89696428Y-131382142D01*
X89953571Y-131639285D01*
X89953571Y-131360714D01*
X89503571Y-130975000D02*
X89503571Y-131060714D01*
X89525000Y-131103571D01*
X89546428Y-131125000D01*
X89610714Y-131167857D01*
X89696428Y-131189285D01*
X89867857Y-131189285D01*
X89910714Y-131167857D01*
X89932142Y-131146428D01*
X89953571Y-131103571D01*
X89953571Y-131017857D01*
X89932142Y-130975000D01*
X89910714Y-130953571D01*
X89867857Y-130932142D01*
X89760714Y-130932142D01*
X89717857Y-130953571D01*
X89696428Y-130975000D01*
X89675000Y-131017857D01*
X89675000Y-131103571D01*
X89696428Y-131146428D01*
X89717857Y-131167857D01*
X89760714Y-131189285D01*
G04 #@! TO.C,R1*
X96925000Y-135103571D02*
X96775000Y-134889285D01*
X96667857Y-135103571D02*
X96667857Y-134653571D01*
X96839285Y-134653571D01*
X96882142Y-134675000D01*
X96903571Y-134696428D01*
X96925000Y-134739285D01*
X96925000Y-134803571D01*
X96903571Y-134846428D01*
X96882142Y-134867857D01*
X96839285Y-134889285D01*
X96667857Y-134889285D01*
X97353571Y-135103571D02*
X97096428Y-135103571D01*
X97225000Y-135103571D02*
X97225000Y-134653571D01*
X97182142Y-134717857D01*
X97139285Y-134760714D01*
X97096428Y-134782142D01*
G04 #@! TO.C,R19*
X96910714Y-89203571D02*
X96760714Y-88989285D01*
X96653571Y-89203571D02*
X96653571Y-88753571D01*
X96825000Y-88753571D01*
X96867857Y-88775000D01*
X96889285Y-88796428D01*
X96910714Y-88839285D01*
X96910714Y-88903571D01*
X96889285Y-88946428D01*
X96867857Y-88967857D01*
X96825000Y-88989285D01*
X96653571Y-88989285D01*
X97339285Y-89203571D02*
X97082142Y-89203571D01*
X97210714Y-89203571D02*
X97210714Y-88753571D01*
X97167857Y-88817857D01*
X97125000Y-88860714D01*
X97082142Y-88882142D01*
X97553571Y-89203571D02*
X97639285Y-89203571D01*
X97682142Y-89182142D01*
X97703571Y-89160714D01*
X97746428Y-89096428D01*
X97767857Y-89010714D01*
X97767857Y-88839285D01*
X97746428Y-88796428D01*
X97725000Y-88775000D01*
X97682142Y-88753571D01*
X97596428Y-88753571D01*
X97553571Y-88775000D01*
X97532142Y-88796428D01*
X97510714Y-88839285D01*
X97510714Y-88946428D01*
X97532142Y-88989285D01*
X97553571Y-89010714D01*
X97596428Y-89032142D01*
X97682142Y-89032142D01*
X97725000Y-89010714D01*
X97746428Y-88989285D01*
X97767857Y-88946428D01*
G04 #@! TO.C,R22*
X108510714Y-86203571D02*
X108360714Y-85989285D01*
X108253571Y-86203571D02*
X108253571Y-85753571D01*
X108425000Y-85753571D01*
X108467857Y-85775000D01*
X108489285Y-85796428D01*
X108510714Y-85839285D01*
X108510714Y-85903571D01*
X108489285Y-85946428D01*
X108467857Y-85967857D01*
X108425000Y-85989285D01*
X108253571Y-85989285D01*
X108682142Y-85796428D02*
X108703571Y-85775000D01*
X108746428Y-85753571D01*
X108853571Y-85753571D01*
X108896428Y-85775000D01*
X108917857Y-85796428D01*
X108939285Y-85839285D01*
X108939285Y-85882142D01*
X108917857Y-85946428D01*
X108660714Y-86203571D01*
X108939285Y-86203571D01*
X109110714Y-85796428D02*
X109132142Y-85775000D01*
X109175000Y-85753571D01*
X109282142Y-85753571D01*
X109325000Y-85775000D01*
X109346428Y-85796428D01*
X109367857Y-85839285D01*
X109367857Y-85882142D01*
X109346428Y-85946428D01*
X109089285Y-86203571D01*
X109367857Y-86203571D01*
G04 #@! TO.C,C17*
X103510714Y-91160714D02*
X103489285Y-91182142D01*
X103425000Y-91203571D01*
X103382142Y-91203571D01*
X103317857Y-91182142D01*
X103275000Y-91139285D01*
X103253571Y-91096428D01*
X103232142Y-91010714D01*
X103232142Y-90946428D01*
X103253571Y-90860714D01*
X103275000Y-90817857D01*
X103317857Y-90775000D01*
X103382142Y-90753571D01*
X103425000Y-90753571D01*
X103489285Y-90775000D01*
X103510714Y-90796428D01*
X103939285Y-91203571D02*
X103682142Y-91203571D01*
X103810714Y-91203571D02*
X103810714Y-90753571D01*
X103767857Y-90817857D01*
X103725000Y-90860714D01*
X103682142Y-90882142D01*
X104089285Y-90753571D02*
X104389285Y-90753571D01*
X104196428Y-91203571D01*
G04 #@! TO.C,Y2*
X102585714Y-86989285D02*
X102585714Y-87203571D01*
X102435714Y-86753571D02*
X102585714Y-86989285D01*
X102735714Y-86753571D01*
X102864285Y-86796428D02*
X102885714Y-86775000D01*
X102928571Y-86753571D01*
X103035714Y-86753571D01*
X103078571Y-86775000D01*
X103100000Y-86796428D01*
X103121428Y-86839285D01*
X103121428Y-86882142D01*
X103100000Y-86946428D01*
X102842857Y-87203571D01*
X103121428Y-87203571D01*
G04 #@! TO.C,C14*
X96510714Y-84960714D02*
X96489285Y-84982142D01*
X96425000Y-85003571D01*
X96382142Y-85003571D01*
X96317857Y-84982142D01*
X96275000Y-84939285D01*
X96253571Y-84896428D01*
X96232142Y-84810714D01*
X96232142Y-84746428D01*
X96253571Y-84660714D01*
X96275000Y-84617857D01*
X96317857Y-84575000D01*
X96382142Y-84553571D01*
X96425000Y-84553571D01*
X96489285Y-84575000D01*
X96510714Y-84596428D01*
X96939285Y-85003571D02*
X96682142Y-85003571D01*
X96810714Y-85003571D02*
X96810714Y-84553571D01*
X96767857Y-84617857D01*
X96725000Y-84660714D01*
X96682142Y-84682142D01*
X97325000Y-84703571D02*
X97325000Y-85003571D01*
X97217857Y-84532142D02*
X97110714Y-84853571D01*
X97389285Y-84853571D01*
G04 #@! TO.C,R20*
X97910714Y-87203571D02*
X97760714Y-86989285D01*
X97653571Y-87203571D02*
X97653571Y-86753571D01*
X97825000Y-86753571D01*
X97867857Y-86775000D01*
X97889285Y-86796428D01*
X97910714Y-86839285D01*
X97910714Y-86903571D01*
X97889285Y-86946428D01*
X97867857Y-86967857D01*
X97825000Y-86989285D01*
X97653571Y-86989285D01*
X98082142Y-86796428D02*
X98103571Y-86775000D01*
X98146428Y-86753571D01*
X98253571Y-86753571D01*
X98296428Y-86775000D01*
X98317857Y-86796428D01*
X98339285Y-86839285D01*
X98339285Y-86882142D01*
X98317857Y-86946428D01*
X98060714Y-87203571D01*
X98339285Y-87203571D01*
X98617857Y-86753571D02*
X98660714Y-86753571D01*
X98703571Y-86775000D01*
X98725000Y-86796428D01*
X98746428Y-86839285D01*
X98767857Y-86925000D01*
X98767857Y-87032142D01*
X98746428Y-87117857D01*
X98725000Y-87160714D01*
X98703571Y-87182142D01*
X98660714Y-87203571D01*
X98617857Y-87203571D01*
X98575000Y-87182142D01*
X98553571Y-87160714D01*
X98532142Y-87117857D01*
X98510714Y-87032142D01*
X98510714Y-86925000D01*
X98532142Y-86839285D01*
X98553571Y-86796428D01*
X98575000Y-86775000D01*
X98617857Y-86753571D01*
G04 #@! TO.C,R28*
X99310714Y-122003571D02*
X99160714Y-121789285D01*
X99053571Y-122003571D02*
X99053571Y-121553571D01*
X99225000Y-121553571D01*
X99267857Y-121575000D01*
X99289285Y-121596428D01*
X99310714Y-121639285D01*
X99310714Y-121703571D01*
X99289285Y-121746428D01*
X99267857Y-121767857D01*
X99225000Y-121789285D01*
X99053571Y-121789285D01*
X99482142Y-121596428D02*
X99503571Y-121575000D01*
X99546428Y-121553571D01*
X99653571Y-121553571D01*
X99696428Y-121575000D01*
X99717857Y-121596428D01*
X99739285Y-121639285D01*
X99739285Y-121682142D01*
X99717857Y-121746428D01*
X99460714Y-122003571D01*
X99739285Y-122003571D01*
X99996428Y-121746428D02*
X99953571Y-121725000D01*
X99932142Y-121703571D01*
X99910714Y-121660714D01*
X99910714Y-121639285D01*
X99932142Y-121596428D01*
X99953571Y-121575000D01*
X99996428Y-121553571D01*
X100082142Y-121553571D01*
X100125000Y-121575000D01*
X100146428Y-121596428D01*
X100167857Y-121639285D01*
X100167857Y-121660714D01*
X100146428Y-121703571D01*
X100125000Y-121725000D01*
X100082142Y-121746428D01*
X99996428Y-121746428D01*
X99953571Y-121767857D01*
X99932142Y-121789285D01*
X99910714Y-121832142D01*
X99910714Y-121917857D01*
X99932142Y-121960714D01*
X99953571Y-121982142D01*
X99996428Y-122003571D01*
X100082142Y-122003571D01*
X100125000Y-121982142D01*
X100146428Y-121960714D01*
X100167857Y-121917857D01*
X100167857Y-121832142D01*
X100146428Y-121789285D01*
X100125000Y-121767857D01*
X100082142Y-121746428D01*
G04 #@! TO.C,C8*
X89725000Y-142160714D02*
X89703571Y-142182142D01*
X89639285Y-142203571D01*
X89596428Y-142203571D01*
X89532142Y-142182142D01*
X89489285Y-142139285D01*
X89467857Y-142096428D01*
X89446428Y-142010714D01*
X89446428Y-141946428D01*
X89467857Y-141860714D01*
X89489285Y-141817857D01*
X89532142Y-141775000D01*
X89596428Y-141753571D01*
X89639285Y-141753571D01*
X89703571Y-141775000D01*
X89725000Y-141796428D01*
X89982142Y-141946428D02*
X89939285Y-141925000D01*
X89917857Y-141903571D01*
X89896428Y-141860714D01*
X89896428Y-141839285D01*
X89917857Y-141796428D01*
X89939285Y-141775000D01*
X89982142Y-141753571D01*
X90067857Y-141753571D01*
X90110714Y-141775000D01*
X90132142Y-141796428D01*
X90153571Y-141839285D01*
X90153571Y-141860714D01*
X90132142Y-141903571D01*
X90110714Y-141925000D01*
X90067857Y-141946428D01*
X89982142Y-141946428D01*
X89939285Y-141967857D01*
X89917857Y-141989285D01*
X89896428Y-142032142D01*
X89896428Y-142117857D01*
X89917857Y-142160714D01*
X89939285Y-142182142D01*
X89982142Y-142203571D01*
X90067857Y-142203571D01*
X90110714Y-142182142D01*
X90132142Y-142160714D01*
X90153571Y-142117857D01*
X90153571Y-142032142D01*
X90132142Y-141989285D01*
X90110714Y-141967857D01*
X90067857Y-141946428D01*
G04 #@! TO.C,U1*
X100357142Y-130253571D02*
X100357142Y-130617857D01*
X100378571Y-130660714D01*
X100400000Y-130682142D01*
X100442857Y-130703571D01*
X100528571Y-130703571D01*
X100571428Y-130682142D01*
X100592857Y-130660714D01*
X100614285Y-130617857D01*
X100614285Y-130253571D01*
X101064285Y-130703571D02*
X100807142Y-130703571D01*
X100935714Y-130703571D02*
X100935714Y-130253571D01*
X100892857Y-130317857D01*
X100850000Y-130360714D01*
X100807142Y-130382142D01*
G04 #@! TO.C,C25*
X93010714Y-130360714D02*
X92989285Y-130382142D01*
X92925000Y-130403571D01*
X92882142Y-130403571D01*
X92817857Y-130382142D01*
X92775000Y-130339285D01*
X92753571Y-130296428D01*
X92732142Y-130210714D01*
X92732142Y-130146428D01*
X92753571Y-130060714D01*
X92775000Y-130017857D01*
X92817857Y-129975000D01*
X92882142Y-129953571D01*
X92925000Y-129953571D01*
X92989285Y-129975000D01*
X93010714Y-129996428D01*
X93182142Y-129996428D02*
X93203571Y-129975000D01*
X93246428Y-129953571D01*
X93353571Y-129953571D01*
X93396428Y-129975000D01*
X93417857Y-129996428D01*
X93439285Y-130039285D01*
X93439285Y-130082142D01*
X93417857Y-130146428D01*
X93160714Y-130403571D01*
X93439285Y-130403571D01*
X93846428Y-129953571D02*
X93632142Y-129953571D01*
X93610714Y-130167857D01*
X93632142Y-130146428D01*
X93675000Y-130125000D01*
X93782142Y-130125000D01*
X93825000Y-130146428D01*
X93846428Y-130167857D01*
X93867857Y-130210714D01*
X93867857Y-130317857D01*
X93846428Y-130360714D01*
X93825000Y-130382142D01*
X93782142Y-130403571D01*
X93675000Y-130403571D01*
X93632142Y-130382142D01*
X93610714Y-130360714D01*
G04 #@! TO.C,R11*
X94510714Y-59603571D02*
X94360714Y-59389285D01*
X94253571Y-59603571D02*
X94253571Y-59153571D01*
X94425000Y-59153571D01*
X94467857Y-59175000D01*
X94489285Y-59196428D01*
X94510714Y-59239285D01*
X94510714Y-59303571D01*
X94489285Y-59346428D01*
X94467857Y-59367857D01*
X94425000Y-59389285D01*
X94253571Y-59389285D01*
X94939285Y-59603571D02*
X94682142Y-59603571D01*
X94810714Y-59603571D02*
X94810714Y-59153571D01*
X94767857Y-59217857D01*
X94725000Y-59260714D01*
X94682142Y-59282142D01*
X95367857Y-59603571D02*
X95110714Y-59603571D01*
X95239285Y-59603571D02*
X95239285Y-59153571D01*
X95196428Y-59217857D01*
X95153571Y-59260714D01*
X95110714Y-59282142D01*
G04 #@! TO.C,R30*
X108510714Y-103903571D02*
X108360714Y-103689285D01*
X108253571Y-103903571D02*
X108253571Y-103453571D01*
X108425000Y-103453571D01*
X108467857Y-103475000D01*
X108489285Y-103496428D01*
X108510714Y-103539285D01*
X108510714Y-103603571D01*
X108489285Y-103646428D01*
X108467857Y-103667857D01*
X108425000Y-103689285D01*
X108253571Y-103689285D01*
X108660714Y-103453571D02*
X108939285Y-103453571D01*
X108789285Y-103625000D01*
X108853571Y-103625000D01*
X108896428Y-103646428D01*
X108917857Y-103667857D01*
X108939285Y-103710714D01*
X108939285Y-103817857D01*
X108917857Y-103860714D01*
X108896428Y-103882142D01*
X108853571Y-103903571D01*
X108725000Y-103903571D01*
X108682142Y-103882142D01*
X108660714Y-103860714D01*
X109217857Y-103453571D02*
X109260714Y-103453571D01*
X109303571Y-103475000D01*
X109325000Y-103496428D01*
X109346428Y-103539285D01*
X109367857Y-103625000D01*
X109367857Y-103732142D01*
X109346428Y-103817857D01*
X109325000Y-103860714D01*
X109303571Y-103882142D01*
X109260714Y-103903571D01*
X109217857Y-103903571D01*
X109175000Y-103882142D01*
X109153571Y-103860714D01*
X109132142Y-103817857D01*
X109110714Y-103732142D01*
X109110714Y-103625000D01*
X109132142Y-103539285D01*
X109153571Y-103496428D01*
X109175000Y-103475000D01*
X109217857Y-103453571D01*
G04 #@! TO.C,C9*
X94125000Y-128960714D02*
X94103571Y-128982142D01*
X94039285Y-129003571D01*
X93996428Y-129003571D01*
X93932142Y-128982142D01*
X93889285Y-128939285D01*
X93867857Y-128896428D01*
X93846428Y-128810714D01*
X93846428Y-128746428D01*
X93867857Y-128660714D01*
X93889285Y-128617857D01*
X93932142Y-128575000D01*
X93996428Y-128553571D01*
X94039285Y-128553571D01*
X94103571Y-128575000D01*
X94125000Y-128596428D01*
X94339285Y-129003571D02*
X94425000Y-129003571D01*
X94467857Y-128982142D01*
X94489285Y-128960714D01*
X94532142Y-128896428D01*
X94553571Y-128810714D01*
X94553571Y-128639285D01*
X94532142Y-128596428D01*
X94510714Y-128575000D01*
X94467857Y-128553571D01*
X94382142Y-128553571D01*
X94339285Y-128575000D01*
X94317857Y-128596428D01*
X94296428Y-128639285D01*
X94296428Y-128746428D01*
X94317857Y-128789285D01*
X94339285Y-128810714D01*
X94382142Y-128832142D01*
X94467857Y-128832142D01*
X94510714Y-128810714D01*
X94532142Y-128789285D01*
X94553571Y-128746428D01*
G04 #@! TO.C,D1*
X103267857Y-57603571D02*
X103267857Y-57153571D01*
X103375000Y-57153571D01*
X103439285Y-57175000D01*
X103482142Y-57217857D01*
X103503571Y-57260714D01*
X103525000Y-57346428D01*
X103525000Y-57410714D01*
X103503571Y-57496428D01*
X103482142Y-57539285D01*
X103439285Y-57582142D01*
X103375000Y-57603571D01*
X103267857Y-57603571D01*
X103953571Y-57603571D02*
X103696428Y-57603571D01*
X103825000Y-57603571D02*
X103825000Y-57153571D01*
X103782142Y-57217857D01*
X103739285Y-57260714D01*
X103696428Y-57282142D01*
G04 #@! TO.C,C11*
X103310714Y-65160714D02*
X103289285Y-65182142D01*
X103225000Y-65203571D01*
X103182142Y-65203571D01*
X103117857Y-65182142D01*
X103075000Y-65139285D01*
X103053571Y-65096428D01*
X103032142Y-65010714D01*
X103032142Y-64946428D01*
X103053571Y-64860714D01*
X103075000Y-64817857D01*
X103117857Y-64775000D01*
X103182142Y-64753571D01*
X103225000Y-64753571D01*
X103289285Y-64775000D01*
X103310714Y-64796428D01*
X103739285Y-65203571D02*
X103482142Y-65203571D01*
X103610714Y-65203571D02*
X103610714Y-64753571D01*
X103567857Y-64817857D01*
X103525000Y-64860714D01*
X103482142Y-64882142D01*
X104167857Y-65203571D02*
X103910714Y-65203571D01*
X104039285Y-65203571D02*
X104039285Y-64753571D01*
X103996428Y-64817857D01*
X103953571Y-64860714D01*
X103910714Y-64882142D01*
G04 #@! TO.C,C19*
X108510714Y-85360714D02*
X108489285Y-85382142D01*
X108425000Y-85403571D01*
X108382142Y-85403571D01*
X108317857Y-85382142D01*
X108275000Y-85339285D01*
X108253571Y-85296428D01*
X108232142Y-85210714D01*
X108232142Y-85146428D01*
X108253571Y-85060714D01*
X108275000Y-85017857D01*
X108317857Y-84975000D01*
X108382142Y-84953571D01*
X108425000Y-84953571D01*
X108489285Y-84975000D01*
X108510714Y-84996428D01*
X108939285Y-85403571D02*
X108682142Y-85403571D01*
X108810714Y-85403571D02*
X108810714Y-84953571D01*
X108767857Y-85017857D01*
X108725000Y-85060714D01*
X108682142Y-85082142D01*
X109153571Y-85403571D02*
X109239285Y-85403571D01*
X109282142Y-85382142D01*
X109303571Y-85360714D01*
X109346428Y-85296428D01*
X109367857Y-85210714D01*
X109367857Y-85039285D01*
X109346428Y-84996428D01*
X109325000Y-84975000D01*
X109282142Y-84953571D01*
X109196428Y-84953571D01*
X109153571Y-84975000D01*
X109132142Y-84996428D01*
X109110714Y-85039285D01*
X109110714Y-85146428D01*
X109132142Y-85189285D01*
X109153571Y-85210714D01*
X109196428Y-85232142D01*
X109282142Y-85232142D01*
X109325000Y-85210714D01*
X109346428Y-85189285D01*
X109367857Y-85146428D01*
G04 #@! TO.C,R4*
X108925000Y-129403571D02*
X108775000Y-129189285D01*
X108667857Y-129403571D02*
X108667857Y-128953571D01*
X108839285Y-128953571D01*
X108882142Y-128975000D01*
X108903571Y-128996428D01*
X108925000Y-129039285D01*
X108925000Y-129103571D01*
X108903571Y-129146428D01*
X108882142Y-129167857D01*
X108839285Y-129189285D01*
X108667857Y-129189285D01*
X109310714Y-129103571D02*
X109310714Y-129403571D01*
X109203571Y-128932142D02*
X109096428Y-129253571D01*
X109375000Y-129253571D01*
G04 #@! TO.C,C18*
X98510714Y-90160714D02*
X98489285Y-90182142D01*
X98425000Y-90203571D01*
X98382142Y-90203571D01*
X98317857Y-90182142D01*
X98275000Y-90139285D01*
X98253571Y-90096428D01*
X98232142Y-90010714D01*
X98232142Y-89946428D01*
X98253571Y-89860714D01*
X98275000Y-89817857D01*
X98317857Y-89775000D01*
X98382142Y-89753571D01*
X98425000Y-89753571D01*
X98489285Y-89775000D01*
X98510714Y-89796428D01*
X98939285Y-90203571D02*
X98682142Y-90203571D01*
X98810714Y-90203571D02*
X98810714Y-89753571D01*
X98767857Y-89817857D01*
X98725000Y-89860714D01*
X98682142Y-89882142D01*
X99196428Y-89946428D02*
X99153571Y-89925000D01*
X99132142Y-89903571D01*
X99110714Y-89860714D01*
X99110714Y-89839285D01*
X99132142Y-89796428D01*
X99153571Y-89775000D01*
X99196428Y-89753571D01*
X99282142Y-89753571D01*
X99325000Y-89775000D01*
X99346428Y-89796428D01*
X99367857Y-89839285D01*
X99367857Y-89860714D01*
X99346428Y-89903571D01*
X99325000Y-89925000D01*
X99282142Y-89946428D01*
X99196428Y-89946428D01*
X99153571Y-89967857D01*
X99132142Y-89989285D01*
X99110714Y-90032142D01*
X99110714Y-90117857D01*
X99132142Y-90160714D01*
X99153571Y-90182142D01*
X99196428Y-90203571D01*
X99282142Y-90203571D01*
X99325000Y-90182142D01*
X99346428Y-90160714D01*
X99367857Y-90117857D01*
X99367857Y-90032142D01*
X99346428Y-89989285D01*
X99325000Y-89967857D01*
X99282142Y-89946428D01*
G04 #@! TO.C,SW1*
X107200000Y-61382142D02*
X107264285Y-61403571D01*
X107371428Y-61403571D01*
X107414285Y-61382142D01*
X107435714Y-61360714D01*
X107457142Y-61317857D01*
X107457142Y-61275000D01*
X107435714Y-61232142D01*
X107414285Y-61210714D01*
X107371428Y-61189285D01*
X107285714Y-61167857D01*
X107242857Y-61146428D01*
X107221428Y-61125000D01*
X107200000Y-61082142D01*
X107200000Y-61039285D01*
X107221428Y-60996428D01*
X107242857Y-60975000D01*
X107285714Y-60953571D01*
X107392857Y-60953571D01*
X107457142Y-60975000D01*
X107607142Y-60953571D02*
X107714285Y-61403571D01*
X107800000Y-61082142D01*
X107885714Y-61403571D01*
X107992857Y-60953571D01*
X108400000Y-61403571D02*
X108142857Y-61403571D01*
X108271428Y-61403571D02*
X108271428Y-60953571D01*
X108228571Y-61017857D01*
X108185714Y-61060714D01*
X108142857Y-61082142D01*
G04 #@! TO.C,R5*
X108925000Y-127403571D02*
X108775000Y-127189285D01*
X108667857Y-127403571D02*
X108667857Y-126953571D01*
X108839285Y-126953571D01*
X108882142Y-126975000D01*
X108903571Y-126996428D01*
X108925000Y-127039285D01*
X108925000Y-127103571D01*
X108903571Y-127146428D01*
X108882142Y-127167857D01*
X108839285Y-127189285D01*
X108667857Y-127189285D01*
X109332142Y-126953571D02*
X109117857Y-126953571D01*
X109096428Y-127167857D01*
X109117857Y-127146428D01*
X109160714Y-127125000D01*
X109267857Y-127125000D01*
X109310714Y-127146428D01*
X109332142Y-127167857D01*
X109353571Y-127210714D01*
X109353571Y-127317857D01*
X109332142Y-127360714D01*
X109310714Y-127382142D01*
X109267857Y-127403571D01*
X109160714Y-127403571D01*
X109117857Y-127382142D01*
X109096428Y-127360714D01*
G04 #@! TO.C,R25*
X95410714Y-133403571D02*
X95260714Y-133189285D01*
X95153571Y-133403571D02*
X95153571Y-132953571D01*
X95325000Y-132953571D01*
X95367857Y-132975000D01*
X95389285Y-132996428D01*
X95410714Y-133039285D01*
X95410714Y-133103571D01*
X95389285Y-133146428D01*
X95367857Y-133167857D01*
X95325000Y-133189285D01*
X95153571Y-133189285D01*
X95582142Y-132996428D02*
X95603571Y-132975000D01*
X95646428Y-132953571D01*
X95753571Y-132953571D01*
X95796428Y-132975000D01*
X95817857Y-132996428D01*
X95839285Y-133039285D01*
X95839285Y-133082142D01*
X95817857Y-133146428D01*
X95560714Y-133403571D01*
X95839285Y-133403571D01*
X96246428Y-132953571D02*
X96032142Y-132953571D01*
X96010714Y-133167857D01*
X96032142Y-133146428D01*
X96075000Y-133125000D01*
X96182142Y-133125000D01*
X96225000Y-133146428D01*
X96246428Y-133167857D01*
X96267857Y-133210714D01*
X96267857Y-133317857D01*
X96246428Y-133360714D01*
X96225000Y-133382142D01*
X96182142Y-133403571D01*
X96075000Y-133403571D01*
X96032142Y-133382142D01*
X96010714Y-133360714D01*
G04 #@! TO.C,R24*
X96110714Y-139603571D02*
X95960714Y-139389285D01*
X95853571Y-139603571D02*
X95853571Y-139153571D01*
X96025000Y-139153571D01*
X96067857Y-139175000D01*
X96089285Y-139196428D01*
X96110714Y-139239285D01*
X96110714Y-139303571D01*
X96089285Y-139346428D01*
X96067857Y-139367857D01*
X96025000Y-139389285D01*
X95853571Y-139389285D01*
X96282142Y-139196428D02*
X96303571Y-139175000D01*
X96346428Y-139153571D01*
X96453571Y-139153571D01*
X96496428Y-139175000D01*
X96517857Y-139196428D01*
X96539285Y-139239285D01*
X96539285Y-139282142D01*
X96517857Y-139346428D01*
X96260714Y-139603571D01*
X96539285Y-139603571D01*
X96925000Y-139303571D02*
X96925000Y-139603571D01*
X96817857Y-139132142D02*
X96710714Y-139453571D01*
X96989285Y-139453571D01*
G04 #@! TO.C,Q2*
X97357142Y-127846428D02*
X97314285Y-127825000D01*
X97271428Y-127782142D01*
X97207142Y-127717857D01*
X97164285Y-127696428D01*
X97121428Y-127696428D01*
X97142857Y-127803571D02*
X97100000Y-127782142D01*
X97057142Y-127739285D01*
X97035714Y-127653571D01*
X97035714Y-127503571D01*
X97057142Y-127417857D01*
X97100000Y-127375000D01*
X97142857Y-127353571D01*
X97228571Y-127353571D01*
X97271428Y-127375000D01*
X97314285Y-127417857D01*
X97335714Y-127503571D01*
X97335714Y-127653571D01*
X97314285Y-127739285D01*
X97271428Y-127782142D01*
X97228571Y-127803571D01*
X97142857Y-127803571D01*
X97507142Y-127396428D02*
X97528571Y-127375000D01*
X97571428Y-127353571D01*
X97678571Y-127353571D01*
X97721428Y-127375000D01*
X97742857Y-127396428D01*
X97764285Y-127439285D01*
X97764285Y-127482142D01*
X97742857Y-127546428D01*
X97485714Y-127803571D01*
X97764285Y-127803571D01*
G04 #@! TO.C,R17*
X105510714Y-137603571D02*
X105360714Y-137389285D01*
X105253571Y-137603571D02*
X105253571Y-137153571D01*
X105425000Y-137153571D01*
X105467857Y-137175000D01*
X105489285Y-137196428D01*
X105510714Y-137239285D01*
X105510714Y-137303571D01*
X105489285Y-137346428D01*
X105467857Y-137367857D01*
X105425000Y-137389285D01*
X105253571Y-137389285D01*
X105939285Y-137603571D02*
X105682142Y-137603571D01*
X105810714Y-137603571D02*
X105810714Y-137153571D01*
X105767857Y-137217857D01*
X105725000Y-137260714D01*
X105682142Y-137282142D01*
X106089285Y-137153571D02*
X106389285Y-137153571D01*
X106196428Y-137603571D01*
G04 #@! TO.C,C24*
X90560714Y-136189285D02*
X90582142Y-136210714D01*
X90603571Y-136275000D01*
X90603571Y-136317857D01*
X90582142Y-136382142D01*
X90539285Y-136425000D01*
X90496428Y-136446428D01*
X90410714Y-136467857D01*
X90346428Y-136467857D01*
X90260714Y-136446428D01*
X90217857Y-136425000D01*
X90175000Y-136382142D01*
X90153571Y-136317857D01*
X90153571Y-136275000D01*
X90175000Y-136210714D01*
X90196428Y-136189285D01*
X90196428Y-136017857D02*
X90175000Y-135996428D01*
X90153571Y-135953571D01*
X90153571Y-135846428D01*
X90175000Y-135803571D01*
X90196428Y-135782142D01*
X90239285Y-135760714D01*
X90282142Y-135760714D01*
X90346428Y-135782142D01*
X90603571Y-136039285D01*
X90603571Y-135760714D01*
X90303571Y-135375000D02*
X90603571Y-135375000D01*
X90132142Y-135482142D02*
X90453571Y-135589285D01*
X90453571Y-135310714D01*
G04 #@! TO.C,U2*
X99857142Y-130953571D02*
X99857142Y-131317857D01*
X99878571Y-131360714D01*
X99900000Y-131382142D01*
X99942857Y-131403571D01*
X100028571Y-131403571D01*
X100071428Y-131382142D01*
X100092857Y-131360714D01*
X100114285Y-131317857D01*
X100114285Y-130953571D01*
X100307142Y-130996428D02*
X100328571Y-130975000D01*
X100371428Y-130953571D01*
X100478571Y-130953571D01*
X100521428Y-130975000D01*
X100542857Y-130996428D01*
X100564285Y-131039285D01*
X100564285Y-131082142D01*
X100542857Y-131146428D01*
X100285714Y-131403571D01*
X100564285Y-131403571D01*
G04 #@! TO.C,C21*
X99510714Y-87360714D02*
X99489285Y-87382142D01*
X99425000Y-87403571D01*
X99382142Y-87403571D01*
X99317857Y-87382142D01*
X99275000Y-87339285D01*
X99253571Y-87296428D01*
X99232142Y-87210714D01*
X99232142Y-87146428D01*
X99253571Y-87060714D01*
X99275000Y-87017857D01*
X99317857Y-86975000D01*
X99382142Y-86953571D01*
X99425000Y-86953571D01*
X99489285Y-86975000D01*
X99510714Y-86996428D01*
X99682142Y-86996428D02*
X99703571Y-86975000D01*
X99746428Y-86953571D01*
X99853571Y-86953571D01*
X99896428Y-86975000D01*
X99917857Y-86996428D01*
X99939285Y-87039285D01*
X99939285Y-87082142D01*
X99917857Y-87146428D01*
X99660714Y-87403571D01*
X99939285Y-87403571D01*
X100367857Y-87403571D02*
X100110714Y-87403571D01*
X100239285Y-87403571D02*
X100239285Y-86953571D01*
X100196428Y-87017857D01*
X100153571Y-87060714D01*
X100110714Y-87082142D01*
G04 #@! TO.C,Q1*
X96157142Y-131246428D02*
X96114285Y-131225000D01*
X96071428Y-131182142D01*
X96007142Y-131117857D01*
X95964285Y-131096428D01*
X95921428Y-131096428D01*
X95942857Y-131203571D02*
X95900000Y-131182142D01*
X95857142Y-131139285D01*
X95835714Y-131053571D01*
X95835714Y-130903571D01*
X95857142Y-130817857D01*
X95900000Y-130775000D01*
X95942857Y-130753571D01*
X96028571Y-130753571D01*
X96071428Y-130775000D01*
X96114285Y-130817857D01*
X96135714Y-130903571D01*
X96135714Y-131053571D01*
X96114285Y-131139285D01*
X96071428Y-131182142D01*
X96028571Y-131203571D01*
X95942857Y-131203571D01*
X96564285Y-131203571D02*
X96307142Y-131203571D01*
X96435714Y-131203571D02*
X96435714Y-130753571D01*
X96392857Y-130817857D01*
X96350000Y-130860714D01*
X96307142Y-130882142D01*
G04 #@! TO.C,C12*
X95710714Y-86160714D02*
X95689285Y-86182142D01*
X95625000Y-86203571D01*
X95582142Y-86203571D01*
X95517857Y-86182142D01*
X95475000Y-86139285D01*
X95453571Y-86096428D01*
X95432142Y-86010714D01*
X95432142Y-85946428D01*
X95453571Y-85860714D01*
X95475000Y-85817857D01*
X95517857Y-85775000D01*
X95582142Y-85753571D01*
X95625000Y-85753571D01*
X95689285Y-85775000D01*
X95710714Y-85796428D01*
X96139285Y-86203571D02*
X95882142Y-86203571D01*
X96010714Y-86203571D02*
X96010714Y-85753571D01*
X95967857Y-85817857D01*
X95925000Y-85860714D01*
X95882142Y-85882142D01*
X96310714Y-85796428D02*
X96332142Y-85775000D01*
X96375000Y-85753571D01*
X96482142Y-85753571D01*
X96525000Y-85775000D01*
X96546428Y-85796428D01*
X96567857Y-85839285D01*
X96567857Y-85882142D01*
X96546428Y-85946428D01*
X96289285Y-86203571D01*
X96567857Y-86203571D01*
G04 #@! TO.C,R31*
X95110714Y-128803571D02*
X94960714Y-128589285D01*
X94853571Y-128803571D02*
X94853571Y-128353571D01*
X95025000Y-128353571D01*
X95067857Y-128375000D01*
X95089285Y-128396428D01*
X95110714Y-128439285D01*
X95110714Y-128503571D01*
X95089285Y-128546428D01*
X95067857Y-128567857D01*
X95025000Y-128589285D01*
X94853571Y-128589285D01*
X95260714Y-128353571D02*
X95539285Y-128353571D01*
X95389285Y-128525000D01*
X95453571Y-128525000D01*
X95496428Y-128546428D01*
X95517857Y-128567857D01*
X95539285Y-128610714D01*
X95539285Y-128717857D01*
X95517857Y-128760714D01*
X95496428Y-128782142D01*
X95453571Y-128803571D01*
X95325000Y-128803571D01*
X95282142Y-128782142D01*
X95260714Y-128760714D01*
X95967857Y-128803571D02*
X95710714Y-128803571D01*
X95839285Y-128803571D02*
X95839285Y-128353571D01*
X95796428Y-128417857D01*
X95753571Y-128460714D01*
X95710714Y-128482142D01*
G04 #@! TO.C,R27*
X106110714Y-126203571D02*
X105960714Y-125989285D01*
X105853571Y-126203571D02*
X105853571Y-125753571D01*
X106025000Y-125753571D01*
X106067857Y-125775000D01*
X106089285Y-125796428D01*
X106110714Y-125839285D01*
X106110714Y-125903571D01*
X106089285Y-125946428D01*
X106067857Y-125967857D01*
X106025000Y-125989285D01*
X105853571Y-125989285D01*
X106282142Y-125796428D02*
X106303571Y-125775000D01*
X106346428Y-125753571D01*
X106453571Y-125753571D01*
X106496428Y-125775000D01*
X106517857Y-125796428D01*
X106539285Y-125839285D01*
X106539285Y-125882142D01*
X106517857Y-125946428D01*
X106260714Y-126203571D01*
X106539285Y-126203571D01*
X106689285Y-125753571D02*
X106989285Y-125753571D01*
X106796428Y-126203571D01*
G04 #@! TO.C,C2*
X108625000Y-130660714D02*
X108603571Y-130682142D01*
X108539285Y-130703571D01*
X108496428Y-130703571D01*
X108432142Y-130682142D01*
X108389285Y-130639285D01*
X108367857Y-130596428D01*
X108346428Y-130510714D01*
X108346428Y-130446428D01*
X108367857Y-130360714D01*
X108389285Y-130317857D01*
X108432142Y-130275000D01*
X108496428Y-130253571D01*
X108539285Y-130253571D01*
X108603571Y-130275000D01*
X108625000Y-130296428D01*
X108796428Y-130296428D02*
X108817857Y-130275000D01*
X108860714Y-130253571D01*
X108967857Y-130253571D01*
X109010714Y-130275000D01*
X109032142Y-130296428D01*
X109053571Y-130339285D01*
X109053571Y-130382142D01*
X109032142Y-130446428D01*
X108775000Y-130703571D01*
X109053571Y-130703571D01*
G04 #@! TO.C,U3*
X96057142Y-58553571D02*
X96057142Y-58917857D01*
X96078571Y-58960714D01*
X96100000Y-58982142D01*
X96142857Y-59003571D01*
X96228571Y-59003571D01*
X96271428Y-58982142D01*
X96292857Y-58960714D01*
X96314285Y-58917857D01*
X96314285Y-58553571D01*
X96485714Y-58553571D02*
X96764285Y-58553571D01*
X96614285Y-58725000D01*
X96678571Y-58725000D01*
X96721428Y-58746428D01*
X96742857Y-58767857D01*
X96764285Y-58810714D01*
X96764285Y-58917857D01*
X96742857Y-58960714D01*
X96721428Y-58982142D01*
X96678571Y-59003571D01*
X96550000Y-59003571D01*
X96507142Y-58982142D01*
X96485714Y-58960714D01*
G04 #@! TO.C,C15*
X107110714Y-92360714D02*
X107089285Y-92382142D01*
X107025000Y-92403571D01*
X106982142Y-92403571D01*
X106917857Y-92382142D01*
X106875000Y-92339285D01*
X106853571Y-92296428D01*
X106832142Y-92210714D01*
X106832142Y-92146428D01*
X106853571Y-92060714D01*
X106875000Y-92017857D01*
X106917857Y-91975000D01*
X106982142Y-91953571D01*
X107025000Y-91953571D01*
X107089285Y-91975000D01*
X107110714Y-91996428D01*
X107539285Y-92403571D02*
X107282142Y-92403571D01*
X107410714Y-92403571D02*
X107410714Y-91953571D01*
X107367857Y-92017857D01*
X107325000Y-92060714D01*
X107282142Y-92082142D01*
X107946428Y-91953571D02*
X107732142Y-91953571D01*
X107710714Y-92167857D01*
X107732142Y-92146428D01*
X107775000Y-92125000D01*
X107882142Y-92125000D01*
X107925000Y-92146428D01*
X107946428Y-92167857D01*
X107967857Y-92210714D01*
X107967857Y-92317857D01*
X107946428Y-92360714D01*
X107925000Y-92382142D01*
X107882142Y-92403571D01*
X107775000Y-92403571D01*
X107732142Y-92382142D01*
X107710714Y-92360714D01*
G04 #@! TO.C,R26*
X90003571Y-139889285D02*
X89789285Y-140039285D01*
X90003571Y-140146428D02*
X89553571Y-140146428D01*
X89553571Y-139975000D01*
X89575000Y-139932142D01*
X89596428Y-139910714D01*
X89639285Y-139889285D01*
X89703571Y-139889285D01*
X89746428Y-139910714D01*
X89767857Y-139932142D01*
X89789285Y-139975000D01*
X89789285Y-140146428D01*
X89596428Y-139717857D02*
X89575000Y-139696428D01*
X89553571Y-139653571D01*
X89553571Y-139546428D01*
X89575000Y-139503571D01*
X89596428Y-139482142D01*
X89639285Y-139460714D01*
X89682142Y-139460714D01*
X89746428Y-139482142D01*
X90003571Y-139739285D01*
X90003571Y-139460714D01*
X89553571Y-139075000D02*
X89553571Y-139160714D01*
X89575000Y-139203571D01*
X89596428Y-139225000D01*
X89660714Y-139267857D01*
X89746428Y-139289285D01*
X89917857Y-139289285D01*
X89960714Y-139267857D01*
X89982142Y-139246428D01*
X90003571Y-139203571D01*
X90003571Y-139117857D01*
X89982142Y-139075000D01*
X89960714Y-139053571D01*
X89917857Y-139032142D01*
X89810714Y-139032142D01*
X89767857Y-139053571D01*
X89746428Y-139075000D01*
X89725000Y-139117857D01*
X89725000Y-139203571D01*
X89746428Y-139246428D01*
X89767857Y-139267857D01*
X89810714Y-139289285D01*
G04 #@! TO.C,C20*
X101110714Y-85960714D02*
X101089285Y-85982142D01*
X101025000Y-86003571D01*
X100982142Y-86003571D01*
X100917857Y-85982142D01*
X100875000Y-85939285D01*
X100853571Y-85896428D01*
X100832142Y-85810714D01*
X100832142Y-85746428D01*
X100853571Y-85660714D01*
X100875000Y-85617857D01*
X100917857Y-85575000D01*
X100982142Y-85553571D01*
X101025000Y-85553571D01*
X101089285Y-85575000D01*
X101110714Y-85596428D01*
X101282142Y-85596428D02*
X101303571Y-85575000D01*
X101346428Y-85553571D01*
X101453571Y-85553571D01*
X101496428Y-85575000D01*
X101517857Y-85596428D01*
X101539285Y-85639285D01*
X101539285Y-85682142D01*
X101517857Y-85746428D01*
X101260714Y-86003571D01*
X101539285Y-86003571D01*
X101817857Y-85553571D02*
X101860714Y-85553571D01*
X101903571Y-85575000D01*
X101925000Y-85596428D01*
X101946428Y-85639285D01*
X101967857Y-85725000D01*
X101967857Y-85832142D01*
X101946428Y-85917857D01*
X101925000Y-85960714D01*
X101903571Y-85982142D01*
X101860714Y-86003571D01*
X101817857Y-86003571D01*
X101775000Y-85982142D01*
X101753571Y-85960714D01*
X101732142Y-85917857D01*
X101710714Y-85832142D01*
X101710714Y-85725000D01*
X101732142Y-85639285D01*
X101753571Y-85596428D01*
X101775000Y-85575000D01*
X101817857Y-85553571D01*
G04 #@! TO.C,R9*
X93725000Y-105203571D02*
X93575000Y-104989285D01*
X93467857Y-105203571D02*
X93467857Y-104753571D01*
X93639285Y-104753571D01*
X93682142Y-104775000D01*
X93703571Y-104796428D01*
X93725000Y-104839285D01*
X93725000Y-104903571D01*
X93703571Y-104946428D01*
X93682142Y-104967857D01*
X93639285Y-104989285D01*
X93467857Y-104989285D01*
X93939285Y-105203571D02*
X94025000Y-105203571D01*
X94067857Y-105182142D01*
X94089285Y-105160714D01*
X94132142Y-105096428D01*
X94153571Y-105010714D01*
X94153571Y-104839285D01*
X94132142Y-104796428D01*
X94110714Y-104775000D01*
X94067857Y-104753571D01*
X93982142Y-104753571D01*
X93939285Y-104775000D01*
X93917857Y-104796428D01*
X93896428Y-104839285D01*
X93896428Y-104946428D01*
X93917857Y-104989285D01*
X93939285Y-105010714D01*
X93982142Y-105032142D01*
X94067857Y-105032142D01*
X94110714Y-105010714D01*
X94132142Y-104989285D01*
X94153571Y-104946428D01*
G04 #@! TO.C,R13*
X91910714Y-87003571D02*
X91760714Y-86789285D01*
X91653571Y-87003571D02*
X91653571Y-86553571D01*
X91825000Y-86553571D01*
X91867857Y-86575000D01*
X91889285Y-86596428D01*
X91910714Y-86639285D01*
X91910714Y-86703571D01*
X91889285Y-86746428D01*
X91867857Y-86767857D01*
X91825000Y-86789285D01*
X91653571Y-86789285D01*
X92339285Y-87003571D02*
X92082142Y-87003571D01*
X92210714Y-87003571D02*
X92210714Y-86553571D01*
X92167857Y-86617857D01*
X92125000Y-86660714D01*
X92082142Y-86682142D01*
X92489285Y-86553571D02*
X92767857Y-86553571D01*
X92617857Y-86725000D01*
X92682142Y-86725000D01*
X92725000Y-86746428D01*
X92746428Y-86767857D01*
X92767857Y-86810714D01*
X92767857Y-86917857D01*
X92746428Y-86960714D01*
X92725000Y-86982142D01*
X92682142Y-87003571D01*
X92553571Y-87003571D01*
X92510714Y-86982142D01*
X92489285Y-86960714D01*
G04 #@! TO.C,U7*
X95857142Y-139953571D02*
X95857142Y-140317857D01*
X95878571Y-140360714D01*
X95900000Y-140382142D01*
X95942857Y-140403571D01*
X96028571Y-140403571D01*
X96071428Y-140382142D01*
X96092857Y-140360714D01*
X96114285Y-140317857D01*
X96114285Y-139953571D01*
X96285714Y-139953571D02*
X96585714Y-139953571D01*
X96392857Y-140403571D01*
G04 #@! TO.C,R18*
X105410714Y-136003571D02*
X105260714Y-135789285D01*
X105153571Y-136003571D02*
X105153571Y-135553571D01*
X105325000Y-135553571D01*
X105367857Y-135575000D01*
X105389285Y-135596428D01*
X105410714Y-135639285D01*
X105410714Y-135703571D01*
X105389285Y-135746428D01*
X105367857Y-135767857D01*
X105325000Y-135789285D01*
X105153571Y-135789285D01*
X105839285Y-136003571D02*
X105582142Y-136003571D01*
X105710714Y-136003571D02*
X105710714Y-135553571D01*
X105667857Y-135617857D01*
X105625000Y-135660714D01*
X105582142Y-135682142D01*
X106096428Y-135746428D02*
X106053571Y-135725000D01*
X106032142Y-135703571D01*
X106010714Y-135660714D01*
X106010714Y-135639285D01*
X106032142Y-135596428D01*
X106053571Y-135575000D01*
X106096428Y-135553571D01*
X106182142Y-135553571D01*
X106225000Y-135575000D01*
X106246428Y-135596428D01*
X106267857Y-135639285D01*
X106267857Y-135660714D01*
X106246428Y-135703571D01*
X106225000Y-135725000D01*
X106182142Y-135746428D01*
X106096428Y-135746428D01*
X106053571Y-135767857D01*
X106032142Y-135789285D01*
X106010714Y-135832142D01*
X106010714Y-135917857D01*
X106032142Y-135960714D01*
X106053571Y-135982142D01*
X106096428Y-136003571D01*
X106182142Y-136003571D01*
X106225000Y-135982142D01*
X106246428Y-135960714D01*
X106267857Y-135917857D01*
X106267857Y-135832142D01*
X106246428Y-135789285D01*
X106225000Y-135767857D01*
X106182142Y-135746428D01*
G04 #@! TO.C,R7*
X93325000Y-103003571D02*
X93175000Y-102789285D01*
X93067857Y-103003571D02*
X93067857Y-102553571D01*
X93239285Y-102553571D01*
X93282142Y-102575000D01*
X93303571Y-102596428D01*
X93325000Y-102639285D01*
X93325000Y-102703571D01*
X93303571Y-102746428D01*
X93282142Y-102767857D01*
X93239285Y-102789285D01*
X93067857Y-102789285D01*
X93475000Y-102553571D02*
X93775000Y-102553571D01*
X93582142Y-103003571D01*
G04 #@! TO.C,C28*
X96760714Y-121960714D02*
X96739285Y-121982142D01*
X96675000Y-122003571D01*
X96632142Y-122003571D01*
X96567857Y-121982142D01*
X96525000Y-121939285D01*
X96503571Y-121896428D01*
X96482142Y-121810714D01*
X96482142Y-121746428D01*
X96503571Y-121660714D01*
X96525000Y-121617857D01*
X96567857Y-121575000D01*
X96632142Y-121553571D01*
X96675000Y-121553571D01*
X96739285Y-121575000D01*
X96760714Y-121596428D01*
X96932142Y-121596428D02*
X96953571Y-121575000D01*
X96996428Y-121553571D01*
X97103571Y-121553571D01*
X97146428Y-121575000D01*
X97167857Y-121596428D01*
X97189285Y-121639285D01*
X97189285Y-121682142D01*
X97167857Y-121746428D01*
X96910714Y-122003571D01*
X97189285Y-122003571D01*
X97446428Y-121746428D02*
X97403571Y-121725000D01*
X97382142Y-121703571D01*
X97360714Y-121660714D01*
X97360714Y-121639285D01*
X97382142Y-121596428D01*
X97403571Y-121575000D01*
X97446428Y-121553571D01*
X97532142Y-121553571D01*
X97575000Y-121575000D01*
X97596428Y-121596428D01*
X97617857Y-121639285D01*
X97617857Y-121660714D01*
X97596428Y-121703571D01*
X97575000Y-121725000D01*
X97532142Y-121746428D01*
X97446428Y-121746428D01*
X97403571Y-121767857D01*
X97382142Y-121789285D01*
X97360714Y-121832142D01*
X97360714Y-121917857D01*
X97382142Y-121960714D01*
X97403571Y-121982142D01*
X97446428Y-122003571D01*
X97532142Y-122003571D01*
X97575000Y-121982142D01*
X97596428Y-121960714D01*
X97617857Y-121917857D01*
X97617857Y-121832142D01*
X97596428Y-121789285D01*
X97575000Y-121767857D01*
X97532142Y-121746428D01*
G04 #@! TO.C,R21*
X108510714Y-84603571D02*
X108360714Y-84389285D01*
X108253571Y-84603571D02*
X108253571Y-84153571D01*
X108425000Y-84153571D01*
X108467857Y-84175000D01*
X108489285Y-84196428D01*
X108510714Y-84239285D01*
X108510714Y-84303571D01*
X108489285Y-84346428D01*
X108467857Y-84367857D01*
X108425000Y-84389285D01*
X108253571Y-84389285D01*
X108682142Y-84196428D02*
X108703571Y-84175000D01*
X108746428Y-84153571D01*
X108853571Y-84153571D01*
X108896428Y-84175000D01*
X108917857Y-84196428D01*
X108939285Y-84239285D01*
X108939285Y-84282142D01*
X108917857Y-84346428D01*
X108660714Y-84603571D01*
X108939285Y-84603571D01*
X109367857Y-84603571D02*
X109110714Y-84603571D01*
X109239285Y-84603571D02*
X109239285Y-84153571D01*
X109196428Y-84217857D01*
X109153571Y-84260714D01*
X109110714Y-84282142D01*
G04 #@! TO.C,R14*
X109110714Y-133203571D02*
X108960714Y-132989285D01*
X108853571Y-133203571D02*
X108853571Y-132753571D01*
X109025000Y-132753571D01*
X109067857Y-132775000D01*
X109089285Y-132796428D01*
X109110714Y-132839285D01*
X109110714Y-132903571D01*
X109089285Y-132946428D01*
X109067857Y-132967857D01*
X109025000Y-132989285D01*
X108853571Y-132989285D01*
X109539285Y-133203571D02*
X109282142Y-133203571D01*
X109410714Y-133203571D02*
X109410714Y-132753571D01*
X109367857Y-132817857D01*
X109325000Y-132860714D01*
X109282142Y-132882142D01*
X109925000Y-132903571D02*
X109925000Y-133203571D01*
X109817857Y-132732142D02*
X109710714Y-133053571D01*
X109989285Y-133053571D01*
G04 #@! TO.C,C10*
X92510714Y-125360714D02*
X92489285Y-125382142D01*
X92425000Y-125403571D01*
X92382142Y-125403571D01*
X92317857Y-125382142D01*
X92275000Y-125339285D01*
X92253571Y-125296428D01*
X92232142Y-125210714D01*
X92232142Y-125146428D01*
X92253571Y-125060714D01*
X92275000Y-125017857D01*
X92317857Y-124975000D01*
X92382142Y-124953571D01*
X92425000Y-124953571D01*
X92489285Y-124975000D01*
X92510714Y-124996428D01*
X92939285Y-125403571D02*
X92682142Y-125403571D01*
X92810714Y-125403571D02*
X92810714Y-124953571D01*
X92767857Y-125017857D01*
X92725000Y-125060714D01*
X92682142Y-125082142D01*
X93217857Y-124953571D02*
X93260714Y-124953571D01*
X93303571Y-124975000D01*
X93325000Y-124996428D01*
X93346428Y-125039285D01*
X93367857Y-125125000D01*
X93367857Y-125232142D01*
X93346428Y-125317857D01*
X93325000Y-125360714D01*
X93303571Y-125382142D01*
X93260714Y-125403571D01*
X93217857Y-125403571D01*
X93175000Y-125382142D01*
X93153571Y-125360714D01*
X93132142Y-125317857D01*
X93110714Y-125232142D01*
X93110714Y-125125000D01*
X93132142Y-125039285D01*
X93153571Y-124996428D01*
X93175000Y-124975000D01*
X93217857Y-124953571D01*
G04 #@! TO.C,R16*
X105410714Y-142303571D02*
X105260714Y-142089285D01*
X105153571Y-142303571D02*
X105153571Y-141853571D01*
X105325000Y-141853571D01*
X105367857Y-141875000D01*
X105389285Y-141896428D01*
X105410714Y-141939285D01*
X105410714Y-142003571D01*
X105389285Y-142046428D01*
X105367857Y-142067857D01*
X105325000Y-142089285D01*
X105153571Y-142089285D01*
X105839285Y-142303571D02*
X105582142Y-142303571D01*
X105710714Y-142303571D02*
X105710714Y-141853571D01*
X105667857Y-141917857D01*
X105625000Y-141960714D01*
X105582142Y-141982142D01*
X106225000Y-141853571D02*
X106139285Y-141853571D01*
X106096428Y-141875000D01*
X106075000Y-141896428D01*
X106032142Y-141960714D01*
X106010714Y-142046428D01*
X106010714Y-142217857D01*
X106032142Y-142260714D01*
X106053571Y-142282142D01*
X106096428Y-142303571D01*
X106182142Y-142303571D01*
X106225000Y-142282142D01*
X106246428Y-142260714D01*
X106267857Y-142217857D01*
X106267857Y-142110714D01*
X106246428Y-142067857D01*
X106225000Y-142046428D01*
X106182142Y-142025000D01*
X106096428Y-142025000D01*
X106053571Y-142046428D01*
X106032142Y-142067857D01*
X106010714Y-142110714D01*
G04 #@! TO.C,C23*
X94510714Y-64960714D02*
X94489285Y-64982142D01*
X94425000Y-65003571D01*
X94382142Y-65003571D01*
X94317857Y-64982142D01*
X94275000Y-64939285D01*
X94253571Y-64896428D01*
X94232142Y-64810714D01*
X94232142Y-64746428D01*
X94253571Y-64660714D01*
X94275000Y-64617857D01*
X94317857Y-64575000D01*
X94382142Y-64553571D01*
X94425000Y-64553571D01*
X94489285Y-64575000D01*
X94510714Y-64596428D01*
X94682142Y-64596428D02*
X94703571Y-64575000D01*
X94746428Y-64553571D01*
X94853571Y-64553571D01*
X94896428Y-64575000D01*
X94917857Y-64596428D01*
X94939285Y-64639285D01*
X94939285Y-64682142D01*
X94917857Y-64746428D01*
X94660714Y-65003571D01*
X94939285Y-65003571D01*
X95089285Y-64553571D02*
X95367857Y-64553571D01*
X95217857Y-64725000D01*
X95282142Y-64725000D01*
X95325000Y-64746428D01*
X95346428Y-64767857D01*
X95367857Y-64810714D01*
X95367857Y-64917857D01*
X95346428Y-64960714D01*
X95325000Y-64982142D01*
X95282142Y-65003571D01*
X95153571Y-65003571D01*
X95110714Y-64982142D01*
X95089285Y-64960714D01*
G04 #@! TO.C,U4*
X109257142Y-124553571D02*
X109257142Y-124917857D01*
X109278571Y-124960714D01*
X109300000Y-124982142D01*
X109342857Y-125003571D01*
X109428571Y-125003571D01*
X109471428Y-124982142D01*
X109492857Y-124960714D01*
X109514285Y-124917857D01*
X109514285Y-124553571D01*
X109921428Y-124703571D02*
X109921428Y-125003571D01*
X109814285Y-124532142D02*
X109707142Y-124853571D01*
X109985714Y-124853571D01*
G04 #@! TO.C,C5*
X106925000Y-98160714D02*
X106903571Y-98182142D01*
X106839285Y-98203571D01*
X106796428Y-98203571D01*
X106732142Y-98182142D01*
X106689285Y-98139285D01*
X106667857Y-98096428D01*
X106646428Y-98010714D01*
X106646428Y-97946428D01*
X106667857Y-97860714D01*
X106689285Y-97817857D01*
X106732142Y-97775000D01*
X106796428Y-97753571D01*
X106839285Y-97753571D01*
X106903571Y-97775000D01*
X106925000Y-97796428D01*
X107332142Y-97753571D02*
X107117857Y-97753571D01*
X107096428Y-97967857D01*
X107117857Y-97946428D01*
X107160714Y-97925000D01*
X107267857Y-97925000D01*
X107310714Y-97946428D01*
X107332142Y-97967857D01*
X107353571Y-98010714D01*
X107353571Y-98117857D01*
X107332142Y-98160714D01*
X107310714Y-98182142D01*
X107267857Y-98203571D01*
X107160714Y-98203571D01*
X107117857Y-98182142D01*
X107096428Y-98160714D01*
G04 #@! TO.C,C22*
X93410714Y-140560714D02*
X93389285Y-140582142D01*
X93325000Y-140603571D01*
X93282142Y-140603571D01*
X93217857Y-140582142D01*
X93175000Y-140539285D01*
X93153571Y-140496428D01*
X93132142Y-140410714D01*
X93132142Y-140346428D01*
X93153571Y-140260714D01*
X93175000Y-140217857D01*
X93217857Y-140175000D01*
X93282142Y-140153571D01*
X93325000Y-140153571D01*
X93389285Y-140175000D01*
X93410714Y-140196428D01*
X93582142Y-140196428D02*
X93603571Y-140175000D01*
X93646428Y-140153571D01*
X93753571Y-140153571D01*
X93796428Y-140175000D01*
X93817857Y-140196428D01*
X93839285Y-140239285D01*
X93839285Y-140282142D01*
X93817857Y-140346428D01*
X93560714Y-140603571D01*
X93839285Y-140603571D01*
X94010714Y-140196428D02*
X94032142Y-140175000D01*
X94075000Y-140153571D01*
X94182142Y-140153571D01*
X94225000Y-140175000D01*
X94246428Y-140196428D01*
X94267857Y-140239285D01*
X94267857Y-140282142D01*
X94246428Y-140346428D01*
X93989285Y-140603571D01*
X94267857Y-140603571D01*
G04 #@! TO.C,R29*
X98110714Y-129803571D02*
X97960714Y-129589285D01*
X97853571Y-129803571D02*
X97853571Y-129353571D01*
X98025000Y-129353571D01*
X98067857Y-129375000D01*
X98089285Y-129396428D01*
X98110714Y-129439285D01*
X98110714Y-129503571D01*
X98089285Y-129546428D01*
X98067857Y-129567857D01*
X98025000Y-129589285D01*
X97853571Y-129589285D01*
X98282142Y-129396428D02*
X98303571Y-129375000D01*
X98346428Y-129353571D01*
X98453571Y-129353571D01*
X98496428Y-129375000D01*
X98517857Y-129396428D01*
X98539285Y-129439285D01*
X98539285Y-129482142D01*
X98517857Y-129546428D01*
X98260714Y-129803571D01*
X98539285Y-129803571D01*
X98753571Y-129803571D02*
X98839285Y-129803571D01*
X98882142Y-129782142D01*
X98903571Y-129760714D01*
X98946428Y-129696428D01*
X98967857Y-129610714D01*
X98967857Y-129439285D01*
X98946428Y-129396428D01*
X98925000Y-129375000D01*
X98882142Y-129353571D01*
X98796428Y-129353571D01*
X98753571Y-129375000D01*
X98732142Y-129396428D01*
X98710714Y-129439285D01*
X98710714Y-129546428D01*
X98732142Y-129589285D01*
X98753571Y-129610714D01*
X98796428Y-129632142D01*
X98882142Y-129632142D01*
X98925000Y-129610714D01*
X98946428Y-129589285D01*
X98967857Y-129546428D01*
G04 #@! TO.C,R12*
X94110714Y-87003571D02*
X93960714Y-86789285D01*
X93853571Y-87003571D02*
X93853571Y-86553571D01*
X94025000Y-86553571D01*
X94067857Y-86575000D01*
X94089285Y-86596428D01*
X94110714Y-86639285D01*
X94110714Y-86703571D01*
X94089285Y-86746428D01*
X94067857Y-86767857D01*
X94025000Y-86789285D01*
X93853571Y-86789285D01*
X94539285Y-87003571D02*
X94282142Y-87003571D01*
X94410714Y-87003571D02*
X94410714Y-86553571D01*
X94367857Y-86617857D01*
X94325000Y-86660714D01*
X94282142Y-86682142D01*
X94710714Y-86596428D02*
X94732142Y-86575000D01*
X94775000Y-86553571D01*
X94882142Y-86553571D01*
X94925000Y-86575000D01*
X94946428Y-86596428D01*
X94967857Y-86639285D01*
X94967857Y-86682142D01*
X94946428Y-86746428D01*
X94689285Y-87003571D01*
X94967857Y-87003571D01*
G04 #@! TO.C,C7*
X93125000Y-59560714D02*
X93103571Y-59582142D01*
X93039285Y-59603571D01*
X92996428Y-59603571D01*
X92932142Y-59582142D01*
X92889285Y-59539285D01*
X92867857Y-59496428D01*
X92846428Y-59410714D01*
X92846428Y-59346428D01*
X92867857Y-59260714D01*
X92889285Y-59217857D01*
X92932142Y-59175000D01*
X92996428Y-59153571D01*
X93039285Y-59153571D01*
X93103571Y-59175000D01*
X93125000Y-59196428D01*
X93275000Y-59153571D02*
X93575000Y-59153571D01*
X93382142Y-59603571D01*
G04 #@! TO.C,C13*
X108910714Y-92960714D02*
X108889285Y-92982142D01*
X108825000Y-93003571D01*
X108782142Y-93003571D01*
X108717857Y-92982142D01*
X108675000Y-92939285D01*
X108653571Y-92896428D01*
X108632142Y-92810714D01*
X108632142Y-92746428D01*
X108653571Y-92660714D01*
X108675000Y-92617857D01*
X108717857Y-92575000D01*
X108782142Y-92553571D01*
X108825000Y-92553571D01*
X108889285Y-92575000D01*
X108910714Y-92596428D01*
X109339285Y-93003571D02*
X109082142Y-93003571D01*
X109210714Y-93003571D02*
X109210714Y-92553571D01*
X109167857Y-92617857D01*
X109125000Y-92660714D01*
X109082142Y-92682142D01*
X109489285Y-92553571D02*
X109767857Y-92553571D01*
X109617857Y-92725000D01*
X109682142Y-92725000D01*
X109725000Y-92746428D01*
X109746428Y-92767857D01*
X109767857Y-92810714D01*
X109767857Y-92917857D01*
X109746428Y-92960714D01*
X109725000Y-92982142D01*
X109682142Y-93003571D01*
X109553571Y-93003571D01*
X109510714Y-92982142D01*
X109489285Y-92960714D01*
G04 #@! TO.C,R8*
X90525000Y-104403571D02*
X90375000Y-104189285D01*
X90267857Y-104403571D02*
X90267857Y-103953571D01*
X90439285Y-103953571D01*
X90482142Y-103975000D01*
X90503571Y-103996428D01*
X90525000Y-104039285D01*
X90525000Y-104103571D01*
X90503571Y-104146428D01*
X90482142Y-104167857D01*
X90439285Y-104189285D01*
X90267857Y-104189285D01*
X90782142Y-104146428D02*
X90739285Y-104125000D01*
X90717857Y-104103571D01*
X90696428Y-104060714D01*
X90696428Y-104039285D01*
X90717857Y-103996428D01*
X90739285Y-103975000D01*
X90782142Y-103953571D01*
X90867857Y-103953571D01*
X90910714Y-103975000D01*
X90932142Y-103996428D01*
X90953571Y-104039285D01*
X90953571Y-104060714D01*
X90932142Y-104103571D01*
X90910714Y-104125000D01*
X90867857Y-104146428D01*
X90782142Y-104146428D01*
X90739285Y-104167857D01*
X90717857Y-104189285D01*
X90696428Y-104232142D01*
X90696428Y-104317857D01*
X90717857Y-104360714D01*
X90739285Y-104382142D01*
X90782142Y-104403571D01*
X90867857Y-104403571D01*
X90910714Y-104382142D01*
X90932142Y-104360714D01*
X90953571Y-104317857D01*
X90953571Y-104232142D01*
X90932142Y-104189285D01*
X90910714Y-104167857D01*
X90867857Y-104146428D01*
G04 #@! TO.C,C27*
X90560714Y-134289285D02*
X90582142Y-134310714D01*
X90603571Y-134375000D01*
X90603571Y-134417857D01*
X90582142Y-134482142D01*
X90539285Y-134525000D01*
X90496428Y-134546428D01*
X90410714Y-134567857D01*
X90346428Y-134567857D01*
X90260714Y-134546428D01*
X90217857Y-134525000D01*
X90175000Y-134482142D01*
X90153571Y-134417857D01*
X90153571Y-134375000D01*
X90175000Y-134310714D01*
X90196428Y-134289285D01*
X90196428Y-134117857D02*
X90175000Y-134096428D01*
X90153571Y-134053571D01*
X90153571Y-133946428D01*
X90175000Y-133903571D01*
X90196428Y-133882142D01*
X90239285Y-133860714D01*
X90282142Y-133860714D01*
X90346428Y-133882142D01*
X90603571Y-134139285D01*
X90603571Y-133860714D01*
X90153571Y-133710714D02*
X90153571Y-133410714D01*
X90603571Y-133603571D01*
G04 #@! TO.C,R23*
X96810714Y-142203571D02*
X96660714Y-141989285D01*
X96553571Y-142203571D02*
X96553571Y-141753571D01*
X96725000Y-141753571D01*
X96767857Y-141775000D01*
X96789285Y-141796428D01*
X96810714Y-141839285D01*
X96810714Y-141903571D01*
X96789285Y-141946428D01*
X96767857Y-141967857D01*
X96725000Y-141989285D01*
X96553571Y-141989285D01*
X96982142Y-141796428D02*
X97003571Y-141775000D01*
X97046428Y-141753571D01*
X97153571Y-141753571D01*
X97196428Y-141775000D01*
X97217857Y-141796428D01*
X97239285Y-141839285D01*
X97239285Y-141882142D01*
X97217857Y-141946428D01*
X96960714Y-142203571D01*
X97239285Y-142203571D01*
X97389285Y-141753571D02*
X97667857Y-141753571D01*
X97517857Y-141925000D01*
X97582142Y-141925000D01*
X97625000Y-141946428D01*
X97646428Y-141967857D01*
X97667857Y-142010714D01*
X97667857Y-142117857D01*
X97646428Y-142160714D01*
X97625000Y-142182142D01*
X97582142Y-142203571D01*
X97453571Y-142203571D01*
X97410714Y-142182142D01*
X97389285Y-142160714D01*
G04 #@! TO.C,L1*
X93325000Y-134703571D02*
X93110714Y-134703571D01*
X93110714Y-134253571D01*
X93710714Y-134703571D02*
X93453571Y-134703571D01*
X93582142Y-134703571D02*
X93582142Y-134253571D01*
X93539285Y-134317857D01*
X93496428Y-134360714D01*
X93453571Y-134382142D01*
D10*
G04 #@! TO.C,J1*
X104000000Y-135977500D02*
X104500000Y-135977500D01*
X95500000Y-139017500D02*
X95500000Y-140477500D01*
X95500000Y-135977500D02*
X96000000Y-135977500D01*
X104500000Y-140477500D02*
X104500000Y-139017500D01*
D13*
G04 #@! TO.C,U5*
X105910000Y-67000000D02*
X105910000Y-83000000D01*
X89690000Y-83110000D02*
X91300000Y-83110000D01*
X89690000Y-67000000D02*
X89690000Y-83110000D01*
G04 #@! TO.C,R10*
X102000000Y-58750000D02*
X102000000Y-58450000D01*
G04 #@! TO.C,R6*
X106400000Y-126950000D02*
X106400000Y-126650000D01*
G04 #@! TO.C,J2*
X95375000Y-104435000D02*
X94215000Y-104435000D01*
X98625000Y-104435000D02*
X104225000Y-104435000D01*
X94215000Y-104435000D02*
X94215000Y-93175000D01*
X94215000Y-91675000D02*
X94215000Y-91565000D01*
X94215000Y-91565000D02*
X96025000Y-91565000D01*
X97925000Y-91565000D02*
X104225000Y-91565000D01*
G04 #@! TO.C,D2*
X107400000Y-135885000D02*
X109885000Y-135885000D01*
X109885000Y-134515000D02*
X107400000Y-134515000D01*
X109885000Y-135885000D02*
X109885000Y-134515000D01*
G04 #@! TO.C,C3*
X104450000Y-131300000D02*
X104750000Y-131300000D01*
G04 #@! TO.C,C1*
X106700000Y-131700000D02*
X106700000Y-130700000D01*
G04 #@! TO.C,R2*
X103200000Y-134850000D02*
X103200000Y-134550000D01*
G04 #@! TO.C,C4*
X102700000Y-132500000D02*
X103700000Y-132500000D01*
G04 #@! TO.C,R15*
X107400000Y-133650000D02*
X107400000Y-133950000D01*
G04 #@! TO.C,U6*
X107410000Y-84890000D02*
X107410000Y-85150000D01*
X107410000Y-90310000D02*
X107410000Y-90050000D01*
X103390000Y-84890000D02*
X103390000Y-85150000D01*
X107410000Y-90310000D02*
X107150000Y-90310000D01*
X103390000Y-84890000D02*
X103650000Y-84890000D01*
X103390000Y-90310000D02*
X103390000Y-90050000D01*
X107410000Y-84890000D02*
X107150000Y-84890000D01*
G04 #@! TO.C,D5*
X107400000Y-140685000D02*
X109885000Y-140685000D01*
X109885000Y-140685000D02*
X109885000Y-139315000D01*
X109885000Y-139315000D02*
X107400000Y-139315000D01*
G04 #@! TO.C,C26*
X91400000Y-131500000D02*
X90400000Y-131500000D01*
G04 #@! TO.C,R1*
X97100000Y-134150000D02*
X97100000Y-133850000D01*
G04 #@! TO.C,R19*
X98250000Y-88550000D02*
X98550000Y-88550000D01*
G04 #@! TO.C,R22*
X108800000Y-89350000D02*
X108800000Y-89050000D01*
G04 #@! TO.C,C17*
X102100000Y-90350000D02*
X102100000Y-90650000D01*
G04 #@! TO.C,Y2*
X101200000Y-87400000D02*
X101200000Y-89800000D01*
X101200000Y-89800000D02*
X102800000Y-89800000D01*
X102800000Y-89800000D02*
X102800000Y-87400000D01*
G04 #@! TO.C,C14*
X98400000Y-84650000D02*
X98400000Y-84950000D01*
G04 #@! TO.C,R20*
X97100000Y-87700000D02*
X96800000Y-87700000D01*
G04 #@! TO.C,R28*
X99750000Y-126000000D02*
X99450000Y-126000000D01*
G04 #@! TO.C,C8*
X91800000Y-141900000D02*
X91800000Y-142900000D01*
G04 #@! TO.C,U1*
X100690000Y-129435000D02*
X100690000Y-129910000D01*
X104910000Y-129435000D02*
X104910000Y-129910000D01*
X100690000Y-125690000D02*
X101165000Y-125690000D01*
X104910000Y-125690000D02*
X104435000Y-125690000D01*
X100690000Y-126165000D02*
X100690000Y-125690000D01*
X104910000Y-126165000D02*
X104910000Y-125690000D01*
X104910000Y-129910000D02*
X104435000Y-129910000D01*
G04 #@! TO.C,C25*
X93300000Y-130800000D02*
X93300000Y-131800000D01*
G04 #@! TO.C,R11*
X94950000Y-60800000D02*
X94650000Y-60800000D01*
G04 #@! TO.C,R30*
X108800000Y-104450000D02*
X108800000Y-104750000D01*
G04 #@! TO.C,C9*
X95000000Y-127050000D02*
X95000000Y-127750000D01*
G04 #@! TO.C,D1*
X102915000Y-58600000D02*
X102915000Y-61085000D01*
X102915000Y-61085000D02*
X104285000Y-61085000D01*
X104285000Y-61085000D02*
X104285000Y-58600000D01*
G04 #@! TO.C,C11*
X104100000Y-63000000D02*
X103100000Y-63000000D01*
G04 #@! TO.C,C19*
X108800000Y-88150000D02*
X108800000Y-87850000D01*
G04 #@! TO.C,R4*
X107850000Y-129200000D02*
X108150000Y-129200000D01*
G04 #@! TO.C,C18*
X100550000Y-89800000D02*
X99850000Y-89800000D01*
G04 #@! TO.C,SW1*
X110690000Y-61300000D02*
X110900000Y-61500000D01*
X106550000Y-59800000D02*
X106550000Y-59600000D01*
X110690000Y-61300000D02*
X109400000Y-61300000D01*
X108390000Y-57750000D02*
X107600000Y-57750000D01*
X109400000Y-62600000D02*
X110690000Y-62600000D01*
X110900000Y-62400000D02*
X110900000Y-61500000D01*
X107600000Y-64650000D02*
X108390000Y-64650000D01*
X106550000Y-62800000D02*
X106550000Y-61100000D01*
X110690000Y-62600000D02*
X110900000Y-62400000D01*
X109400000Y-64050000D02*
X109400000Y-58350000D01*
G04 #@! TO.C,R5*
X107850000Y-127200000D02*
X108150000Y-127200000D01*
G04 #@! TO.C,R25*
X95450000Y-134900000D02*
X95750000Y-134900000D01*
G04 #@! TO.C,R24*
X94650000Y-139400000D02*
X94950000Y-139400000D01*
G04 #@! TO.C,Q2*
X98150000Y-129160000D02*
X97500000Y-129160000D01*
X98150000Y-129160000D02*
X98800000Y-129160000D01*
X98150000Y-126040000D02*
X96475000Y-126040000D01*
X98150000Y-126040000D02*
X98800000Y-126040000D01*
G04 #@! TO.C,R17*
X105850000Y-138650000D02*
X106150000Y-138650000D01*
G04 #@! TO.C,C24*
X91350000Y-135900000D02*
X91050000Y-135900000D01*
G04 #@! TO.C,U2*
X100200000Y-131640000D02*
X101000000Y-131640000D01*
X100200000Y-134760000D02*
X102000000Y-134760000D01*
X100200000Y-134760000D02*
X99400000Y-134760000D01*
X100200000Y-131640000D02*
X99400000Y-131640000D01*
G04 #@! TO.C,C21*
X100000000Y-88150000D02*
X100000000Y-87850000D01*
G04 #@! TO.C,Q1*
X97000000Y-129440000D02*
X95325000Y-129440000D01*
X97000000Y-129440000D02*
X97650000Y-129440000D01*
X97000000Y-132560000D02*
X96350000Y-132560000D01*
X97000000Y-132560000D02*
X97650000Y-132560000D01*
G04 #@! TO.C,C12*
X98000000Y-85650000D02*
X98000000Y-86350000D01*
G04 #@! TO.C,R31*
X95750000Y-125800000D02*
X95450000Y-125800000D01*
G04 #@! TO.C,R27*
X106400000Y-128150000D02*
X106400000Y-127850000D01*
G04 #@! TO.C,C2*
X106400000Y-129950000D02*
X106400000Y-129650000D01*
D10*
G04 #@! TO.C,U3*
X95925000Y-59225000D02*
X101175000Y-59225000D01*
X97025000Y-64375000D02*
X101175000Y-64375000D01*
D13*
G04 #@! TO.C,C15*
X107400000Y-91350000D02*
X107400000Y-91050000D01*
G04 #@! TO.C,R26*
X90300000Y-140750000D02*
X90300000Y-141050000D01*
G04 #@! TO.C,C20*
X101400000Y-86750000D02*
X101400000Y-86450000D01*
G04 #@! TO.C,R9*
X92850000Y-104200000D02*
X92550000Y-104200000D01*
G04 #@! TO.C,R13*
X92350000Y-85400000D02*
X92050000Y-85400000D01*
G04 #@! TO.C,U7*
X92200000Y-137040000D02*
X93000000Y-137040000D01*
X92200000Y-137040000D02*
X90400000Y-137040000D01*
X92200000Y-140160000D02*
X93000000Y-140160000D01*
X92200000Y-140160000D02*
X91400000Y-140160000D01*
G04 #@! TO.C,R18*
X105650000Y-134400000D02*
X105950000Y-134400000D01*
G04 #@! TO.C,R7*
X92000000Y-102550000D02*
X92000000Y-102850000D01*
G04 #@! TO.C,C28*
X97050000Y-125550000D02*
X97050000Y-125250000D01*
G04 #@! TO.C,R21*
X108800000Y-86950000D02*
X108800000Y-86650000D01*
G04 #@! TO.C,R14*
X109400000Y-133750000D02*
X109400000Y-134050000D01*
G04 #@! TO.C,C10*
X93850000Y-125800000D02*
X94150000Y-125800000D01*
G04 #@! TO.C,R16*
X105800000Y-140750000D02*
X106100000Y-140750000D01*
G04 #@! TO.C,C23*
X95150000Y-63200000D02*
X94450000Y-63200000D01*
G04 #@! TO.C,U4*
X90700000Y-124120000D02*
X90700000Y-124500000D01*
X109100000Y-124120000D02*
X109720000Y-124120000D01*
X90280000Y-105880000D02*
X90700000Y-105880000D01*
X109720000Y-124120000D02*
X109720000Y-123120000D01*
X109100000Y-105880000D02*
X109720000Y-105880000D01*
X109720000Y-105880000D02*
X109720000Y-106880000D01*
X90280000Y-124120000D02*
X90700000Y-124120000D01*
X90280000Y-124120000D02*
X90280000Y-105880000D01*
G04 #@! TO.C,J3*
X109260000Y-79340000D02*
X107140000Y-79340000D01*
X107140000Y-81400000D02*
X107140000Y-79340000D01*
X109260000Y-81400000D02*
X107140000Y-81400000D01*
X109260000Y-81400000D02*
X109260000Y-79340000D01*
X109260000Y-82400000D02*
X109260000Y-83460000D01*
X109260000Y-83460000D02*
X108200000Y-83460000D01*
G04 #@! TO.C,C5*
X106900000Y-99300000D02*
X107200000Y-99300000D01*
G04 #@! TO.C,C22*
X92200000Y-140750000D02*
X92200000Y-141050000D01*
G04 #@! TO.C,R29*
X99750000Y-129600000D02*
X99450000Y-129600000D01*
G04 #@! TO.C,R12*
X94250000Y-85400000D02*
X94550000Y-85400000D01*
G04 #@! TO.C,D6*
X109885000Y-139085000D02*
X109885000Y-137715000D01*
X107400000Y-139085000D02*
X109885000Y-139085000D01*
X109885000Y-137715000D02*
X107400000Y-137715000D01*
G04 #@! TO.C,C7*
X93700000Y-61300000D02*
X92700000Y-61300000D01*
G04 #@! TO.C,C13*
X109550000Y-91000000D02*
X108850000Y-91000000D01*
G04 #@! TO.C,R8*
X91700000Y-104200000D02*
X91400000Y-104200000D01*
G04 #@! TO.C,C27*
X91050000Y-134000000D02*
X91350000Y-134000000D01*
G04 #@! TO.C,R23*
X93850000Y-142000000D02*
X94550000Y-142000000D01*
G04 #@! TO.C,D3*
X109885000Y-137485000D02*
X109885000Y-136115000D01*
X109885000Y-136115000D02*
X107400000Y-136115000D01*
X107400000Y-137485000D02*
X109885000Y-137485000D01*
G04 #@! TO.C,L1*
X92040000Y-135102064D02*
X92040000Y-133897936D01*
X94760000Y-135102064D02*
X94760000Y-133897936D01*
G04 #@! TO.C,D4*
X109885000Y-142285000D02*
X109885000Y-140915000D01*
X107400000Y-142285000D02*
X109885000Y-142285000D01*
X109885000Y-140915000D02*
X107400000Y-140915000D01*
G04 #@! TD*
M02*
