G04 #@! TF.GenerationSoftware,KiCad,Pcbnew,6.0.2+dfsg-1*
G04 #@! TF.CreationDate,2022-06-20T13:27:43+02:00*
G04 #@! TF.ProjectId,trainlog,74726169-6e6c-46f6-972e-6b696361645f,rev?*
G04 #@! TF.SameCoordinates,Original*
G04 #@! TF.FileFunction,Copper,L2,Bot*
G04 #@! TF.FilePolarity,Positive*
%FSLAX46Y46*%
G04 Gerber Fmt 4.6, Leading zero omitted, Abs format (unit mm)*
G04 Created by KiCad (PCBNEW 6.0.2+dfsg-1) date 2022-06-20 13:27:43*
%MOMM*%
%LPD*%
G01*
G04 APERTURE LIST*
G04 #@! TA.AperFunction,ComponentPad*
%ADD10O,1.000000X2.100000*%
G04 #@! TD*
G04 #@! TA.AperFunction,ComponentPad*
%ADD11O,1.000000X1.600000*%
G04 #@! TD*
G04 #@! TA.AperFunction,ComponentPad*
%ADD12R,1.350000X1.350000*%
G04 #@! TD*
G04 #@! TA.AperFunction,ComponentPad*
%ADD13O,1.350000X1.350000*%
G04 #@! TD*
G04 #@! TA.AperFunction,SMDPad,CuDef*
%ADD14R,6.350000X7.340000*%
G04 #@! TD*
G04 #@! TA.AperFunction,ViaPad*
%ADD15C,0.600000*%
G04 #@! TD*
G04 #@! TA.AperFunction,ViaPad*
%ADD16C,0.450000*%
G04 #@! TD*
G04 #@! TA.AperFunction,Conductor*
%ADD17C,0.800000*%
G04 #@! TD*
G04 #@! TA.AperFunction,Conductor*
%ADD18C,0.300000*%
G04 #@! TD*
G04 #@! TA.AperFunction,Conductor*
%ADD19C,0.200000*%
G04 #@! TD*
G04 #@! TA.AperFunction,Conductor*
%ADD20C,0.600000*%
G04 #@! TD*
G04 APERTURE END LIST*
D10*
G04 #@! TO.P,J1,S1,SHIELD*
G04 #@! TO.N,GND*
X95680000Y-137392500D03*
D11*
X104320000Y-141572500D03*
X95680000Y-141572500D03*
D10*
X104320000Y-137392500D03*
G04 #@! TD*
D12*
G04 #@! TO.P,J3,1,In*
G04 #@! TO.N,Net-(J3-Pad1)*
X108200000Y-82400000D03*
D13*
G04 #@! TO.P,J3,2,Ext*
G04 #@! TO.N,GND*
X108200000Y-80400000D03*
G04 #@! TD*
D14*
G04 #@! TO.P,BT1,1,+*
G04 #@! TO.N,Net-(BT1-Pad1)*
X100000000Y-60670000D03*
G04 #@! TO.P,BT1,2,-*
G04 #@! TO.N,GND*
X100000000Y-139330000D03*
G04 #@! TD*
D15*
G04 #@! TO.N,Net-(BT1-Pad1)*
X102400000Y-64550000D03*
X101600000Y-64550000D03*
D16*
G04 #@! TO.N,GND*
X104750000Y-59250000D03*
X106800000Y-101400000D03*
X102400000Y-114000000D03*
X102600000Y-99000000D03*
X95800000Y-81200000D03*
X108000000Y-131200000D03*
X103800000Y-132600000D03*
X104750000Y-61250000D03*
X97800000Y-132200000D03*
X102000000Y-127000000D03*
X98200000Y-112800000D03*
X98600000Y-119200000D03*
X103800000Y-95800000D03*
X109000000Y-93000000D03*
X104650000Y-89150000D03*
X100400000Y-121800000D03*
X96400000Y-85600000D03*
X92000000Y-134800000D03*
X97600000Y-108200000D03*
X110400000Y-124800000D03*
X92400000Y-61200000D03*
X90600000Y-66600000D03*
X92385000Y-104985000D03*
X109200000Y-91000000D03*
X96000000Y-104200000D03*
X100400000Y-125000000D03*
X91800000Y-121800000D03*
X108600000Y-101200000D03*
X102800000Y-86000000D03*
X93400000Y-140400000D03*
X102000000Y-128600000D03*
X106400000Y-105000000D03*
X100600000Y-112800000D03*
X102600000Y-104000000D03*
X107600000Y-121600000D03*
X96400000Y-121800000D03*
X95000000Y-59400000D03*
X93400000Y-66600000D03*
X104000000Y-100600000D03*
X108600000Y-102200000D03*
X93400000Y-59400000D03*
X109000000Y-88450000D03*
X110000000Y-106000000D03*
X104000000Y-102400000D03*
X90498767Y-125693627D03*
X93200000Y-131200000D03*
X104625511Y-88174489D03*
X95800000Y-91400000D03*
X103800000Y-90600000D03*
X91400000Y-131400000D03*
X106800000Y-130600000D03*
X109200000Y-100000000D03*
X98000000Y-85600000D03*
X99400000Y-140800000D03*
X95000000Y-63000000D03*
X94600000Y-134800000D03*
X104656350Y-125936982D03*
X103800000Y-57400000D03*
X106400000Y-113200000D03*
D15*
X92182065Y-138135132D03*
D16*
X104000000Y-92400000D03*
X100200000Y-89800000D03*
X96600000Y-135000000D03*
X91600000Y-108200000D03*
X91600000Y-116000000D03*
X91800000Y-120800000D03*
X99200000Y-89400000D03*
X97200000Y-140800000D03*
X98200000Y-81200000D03*
D15*
X91730000Y-141450980D03*
D16*
X99800000Y-91400000D03*
X93800000Y-64600000D03*
X106150000Y-86001022D03*
X93600000Y-104200000D03*
X103000000Y-125000000D03*
X103200000Y-91600000D03*
X104750000Y-60250000D03*
X98170093Y-124940088D03*
X94800000Y-108200000D03*
X103800000Y-94600000D03*
X98400000Y-91400000D03*
X98600000Y-121200000D03*
X97200000Y-139000000D03*
X102800000Y-86800000D03*
D15*
X91520009Y-140429991D03*
D16*
X105150000Y-86050000D03*
X93200000Y-131800000D03*
X104600000Y-90800000D03*
X102600000Y-132600000D03*
X90800000Y-61000000D03*
X110400000Y-134800000D03*
X100800000Y-125600000D03*
X102400000Y-117400000D03*
X94000000Y-61200000D03*
X93200000Y-61200000D03*
X105800000Y-65200000D03*
X107600000Y-120800000D03*
X96000000Y-58000000D03*
X106800000Y-100600000D03*
X103600000Y-128600000D03*
X93200000Y-58000000D03*
X96600000Y-131000000D03*
X98200000Y-101600000D03*
X106800000Y-131400000D03*
X104575511Y-87575511D03*
X92000000Y-91800000D03*
X95400000Y-101400000D03*
X92000000Y-99600000D03*
X94000000Y-91400000D03*
X95400000Y-132800000D03*
X104000000Y-103600000D03*
X101000000Y-89800000D03*
X101800000Y-131400000D03*
X94200000Y-59400000D03*
X103600000Y-127000000D03*
X100200000Y-87200000D03*
X94000000Y-93600000D03*
X97600000Y-103400000D03*
X107600000Y-105000000D03*
X98200000Y-82800000D03*
X106600000Y-108200000D03*
X100400000Y-103400000D03*
X102600000Y-101800000D03*
X95200000Y-131000000D03*
X96400000Y-86400000D03*
X92000000Y-93600000D03*
X91400000Y-101800000D03*
X95800000Y-82800000D03*
X101000000Y-87200000D03*
X90600000Y-129600000D03*
X98152494Y-125549002D03*
X103600000Y-62800000D03*
X89600000Y-61800000D03*
X103200000Y-134000000D03*
X93800000Y-99600000D03*
X97000000Y-84800000D03*
X99400000Y-139000000D03*
X109800000Y-103000000D03*
X110000000Y-108200000D03*
X98600000Y-142600000D03*
X108600000Y-91000000D03*
X105952295Y-127214617D03*
X107800000Y-93000000D03*
X93600000Y-102600000D03*
X100400000Y-119200000D03*
X107800000Y-110000000D03*
X107600000Y-114400000D03*
X97600000Y-104200000D03*
X92000000Y-134200000D03*
X106200000Y-62600000D03*
X99200000Y-88800000D03*
X96000000Y-103400000D03*
X91800000Y-119800000D03*
D15*
G04 #@! TO.N,VBUS*
X91450000Y-62150000D03*
X95400000Y-143150000D03*
X92250000Y-62150000D03*
D16*
X98000000Y-133200000D03*
X97600000Y-135200000D03*
D15*
X96100000Y-143150000D03*
D16*
G04 #@! TO.N,D+*
X101114628Y-135114628D03*
X99750000Y-134837500D03*
G04 #@! TO.N,SD_CS*
X103200000Y-97900000D03*
X103200000Y-103150000D03*
G04 #@! TO.N,SD_COPI*
X99400000Y-104900000D03*
X93835978Y-104900000D03*
G04 #@! TO.N,SD_CIPO*
X102450000Y-103000000D03*
X101300000Y-104150000D03*
G04 #@! TO.N,Net-(Q1-Pad2)*
X98400000Y-129600000D03*
X97150000Y-127450000D03*
G04 #@! TO.N,ESP_EN*
X98148490Y-127943266D03*
X95228121Y-124924501D03*
G04 #@! TO.N,ESP_IO0*
X98450000Y-128800000D03*
X98700000Y-122100000D03*
G04 #@! TO.N,CP_VIO*
X107328821Y-128125980D03*
X104700000Y-129750000D03*
D15*
G04 #@! TO.N,VBAT*
X94200000Y-141950498D03*
X93500000Y-65450000D03*
D16*
X91250000Y-102700000D03*
D15*
X94200000Y-65450000D03*
D16*
G04 #@! TO.N,Net-(R12-Pad2)*
X103699500Y-104302464D03*
X93250000Y-91300000D03*
X93250000Y-89825500D03*
X94900000Y-102150000D03*
G04 #@! TO.N,Net-(R13-Pad1)*
X103750000Y-104950000D03*
X94675500Y-102799131D03*
X92600497Y-89825500D03*
X92600497Y-91300000D03*
G04 #@! TO.N,BNO_SDA*
X97600000Y-92850000D03*
X97599503Y-89825500D03*
G04 #@! TO.N,BNO_SCL*
X96950000Y-92850000D03*
X96950000Y-89825500D03*
G04 #@! TO.N,BNO_NRST*
X107780000Y-87350000D03*
X109275500Y-85325500D03*
G04 #@! TO.N,Net-(R22-Pad1)*
X106050000Y-89100000D03*
X107900000Y-89100000D03*
G04 #@! TO.N,Net-(R25-Pad2)*
X91249499Y-139450000D03*
X95150000Y-136050000D03*
G04 #@! TO.N,ESP_TXD*
X99250000Y-128400000D03*
X99250000Y-112850000D03*
G04 #@! TO.N,ESP_RXD*
X100149799Y-127063223D03*
X98725500Y-111600000D03*
G04 #@! TO.N,L80_RST*
X108650000Y-103100000D03*
X109800000Y-84800000D03*
X109825019Y-101950000D03*
X109800000Y-92650000D03*
G04 #@! TD*
D17*
G04 #@! TO.N,Net-(BT1-Pad1)*
X101600000Y-62270000D02*
X100000000Y-60670000D01*
X102400000Y-64550000D02*
X102400000Y-63070000D01*
X102400000Y-63070000D02*
X100000000Y-60670000D01*
X101600000Y-64550000D02*
X101600000Y-62270000D01*
G04 #@! TO.N,VBUS*
X90750000Y-62150000D02*
X89625479Y-63274521D01*
X91450000Y-62150000D02*
X90750000Y-62150000D01*
D18*
X97600000Y-135200000D02*
X97600000Y-133600000D01*
D17*
X89625479Y-63274521D02*
X89625479Y-142175479D01*
X89625479Y-142175479D02*
X90600000Y-143150000D01*
X91450000Y-62150000D02*
X92250000Y-62150000D01*
X90600000Y-143150000D02*
X96100000Y-143150000D01*
D18*
X97600000Y-133600000D02*
X98000000Y-133200000D01*
D19*
G04 #@! TO.N,D+*
X100027128Y-135114628D02*
X99750000Y-134837500D01*
X101114628Y-135114628D02*
X100027128Y-135114628D01*
G04 #@! TO.N,SD_CS*
X103200000Y-103150000D02*
X103200000Y-97900000D01*
G04 #@! TO.N,SD_COPI*
X99400000Y-104900000D02*
X93835978Y-104900000D01*
G04 #@! TO.N,SD_CIPO*
X102450000Y-103000000D02*
X101300000Y-104150000D01*
G04 #@! TO.N,Net-(Q1-Pad2)*
X97150000Y-128350000D02*
X97150000Y-127450000D01*
X98400000Y-129600000D02*
X97150000Y-128350000D01*
G04 #@! TO.N,ESP_EN*
X98148490Y-127943266D02*
X98148490Y-126348490D01*
X96724501Y-124924501D02*
X95228121Y-124924501D01*
X98148490Y-126348490D02*
X96724501Y-124924501D01*
G04 #@! TO.N,ESP_IO0*
X98700000Y-122100000D02*
X98700000Y-128550000D01*
X98700000Y-128550000D02*
X98450000Y-128800000D01*
G04 #@! TO.N,CP_VIO*
X104700000Y-129750000D02*
X106324020Y-128125980D01*
X106324020Y-128125980D02*
X107328821Y-128125980D01*
D20*
G04 #@! TO.N,VBAT*
X90524999Y-102474999D02*
X90524999Y-124674999D01*
X94300000Y-128800000D02*
X92950000Y-130150000D01*
D19*
X90750000Y-102700000D02*
X90524999Y-102474999D01*
D20*
X93087126Y-65450000D02*
X90524999Y-68012127D01*
D19*
X91250000Y-102700000D02*
X90750000Y-102700000D01*
D20*
X90524999Y-68012127D02*
X90524999Y-102474999D01*
X90524999Y-130825001D02*
X90524999Y-141802885D01*
X93500000Y-65450000D02*
X94200000Y-65450000D01*
X90972594Y-142250480D02*
X93900018Y-142250480D01*
X92950000Y-130150000D02*
X91200000Y-130150000D01*
X93500000Y-65450000D02*
X93087126Y-65450000D01*
X90524999Y-141802885D02*
X90972594Y-142250480D01*
X91200000Y-130150000D02*
X90524999Y-130825001D01*
X91000000Y-125150000D02*
X93100000Y-125150000D01*
X93100000Y-125150000D02*
X94300000Y-126350000D01*
X90524999Y-124674999D02*
X91000000Y-125150000D01*
X94300000Y-126350000D02*
X94300000Y-128800000D01*
X93900018Y-142250480D02*
X94200000Y-141950498D01*
D19*
G04 #@! TO.N,Net-(R12-Pad2)*
X103157748Y-104800480D02*
X100765486Y-104800480D01*
X103699500Y-104302464D02*
X103655764Y-104302464D01*
X100765486Y-104800480D02*
X98115006Y-102150000D01*
X98115006Y-102150000D02*
X94900000Y-102150000D01*
X93250000Y-91300000D02*
X93250000Y-89825500D01*
X103655764Y-104302464D02*
X103157748Y-104800480D01*
G04 #@! TO.N,Net-(R13-Pad1)*
X92600497Y-91300000D02*
X92600497Y-89825500D01*
X103750000Y-104950000D02*
X103500000Y-105200000D01*
X98199131Y-102799131D02*
X94675500Y-102799131D01*
X100600000Y-105200000D02*
X99600000Y-104200000D01*
X99600000Y-104200000D02*
X98199131Y-102799131D01*
X103500000Y-105200000D02*
X100600000Y-105200000D01*
G04 #@! TO.N,BNO_SDA*
X97599503Y-92849503D02*
X97600000Y-92850000D01*
X97599503Y-89825500D02*
X97599503Y-92849503D01*
G04 #@! TO.N,BNO_SCL*
X96950000Y-89825500D02*
X96950000Y-92850000D01*
G04 #@! TO.N,BNO_NRST*
X109275500Y-85325500D02*
X109275500Y-85524500D01*
X107780000Y-87020000D02*
X107780000Y-87350000D01*
X109275500Y-85524500D02*
X107780000Y-87020000D01*
G04 #@! TO.N,Net-(R22-Pad1)*
X107900000Y-89100000D02*
X106050000Y-89100000D01*
G04 #@! TO.N,Net-(R25-Pad2)*
X91249499Y-139450000D02*
X91124519Y-139325020D01*
X91124519Y-137675481D02*
X91500000Y-137300000D01*
X91500000Y-137300000D02*
X93900000Y-137300000D01*
X91124519Y-139325020D02*
X91124519Y-137675481D01*
X93900000Y-137300000D02*
X95150000Y-136050000D01*
G04 #@! TO.N,ESP_TXD*
X99250000Y-128400000D02*
X99250000Y-112850000D01*
G04 #@! TO.N,ESP_RXD*
X98800000Y-111600000D02*
X98725500Y-111600000D01*
X100149799Y-127063223D02*
X99649520Y-126562944D01*
X99649520Y-113192252D02*
X99774511Y-113067261D01*
X99774511Y-113067261D02*
X99774511Y-112574511D01*
X99649520Y-126562944D02*
X99649520Y-113192252D01*
X99774511Y-112574511D02*
X98800000Y-111600000D01*
G04 #@! TO.N,L80_RST*
X109800000Y-84800000D02*
X109800000Y-92650000D01*
X108650000Y-103100000D02*
X108675019Y-103100000D01*
X108675019Y-103100000D02*
X109825019Y-101950000D01*
G04 #@! TD*
G04 #@! TA.AperFunction,Conductor*
G04 #@! TO.N,GND*
G36*
X108986486Y-56251670D02*
G01*
X108993767Y-56253621D01*
X108993768Y-56253621D01*
X109000000Y-56255291D01*
X109008050Y-56253134D01*
X109023937Y-56251569D01*
X109238276Y-56265617D01*
X109244624Y-56266454D01*
X109362021Y-56289805D01*
X109475657Y-56312409D01*
X109481849Y-56314067D01*
X109704927Y-56389792D01*
X109710848Y-56392245D01*
X109922120Y-56496433D01*
X109927671Y-56499638D01*
X110123539Y-56630512D01*
X110128624Y-56634414D01*
X110305733Y-56789735D01*
X110310265Y-56794267D01*
X110465586Y-56971376D01*
X110469488Y-56976461D01*
X110600362Y-57172329D01*
X110603567Y-57177880D01*
X110707755Y-57389152D01*
X110710208Y-57395073D01*
X110785933Y-57618151D01*
X110787591Y-57624343D01*
X110833546Y-57855373D01*
X110834383Y-57861727D01*
X110848431Y-58076063D01*
X110846866Y-58091950D01*
X110844709Y-58100000D01*
X110846379Y-58106232D01*
X110846379Y-58106233D01*
X110848330Y-58113514D01*
X110850000Y-58126196D01*
X110850000Y-141873804D01*
X110848330Y-141886486D01*
X110844709Y-141900000D01*
X110846379Y-141906232D01*
X110846866Y-141908050D01*
X110848431Y-141923937D01*
X110836840Y-142100791D01*
X110834383Y-142138273D01*
X110833546Y-142144624D01*
X110819276Y-142216365D01*
X110787591Y-142375657D01*
X110785933Y-142381849D01*
X110710208Y-142604927D01*
X110707755Y-142610848D01*
X110603567Y-142822120D01*
X110600362Y-142827671D01*
X110469488Y-143023539D01*
X110465586Y-143028624D01*
X110310265Y-143205733D01*
X110305733Y-143210265D01*
X110128624Y-143365586D01*
X110123539Y-143369488D01*
X109927671Y-143500362D01*
X109922120Y-143503567D01*
X109710848Y-143607755D01*
X109704927Y-143610208D01*
X109481849Y-143685933D01*
X109475657Y-143687591D01*
X109408246Y-143701000D01*
X109244624Y-143733546D01*
X109238276Y-143734383D01*
X109023937Y-143748431D01*
X109008050Y-143746866D01*
X109000000Y-143744709D01*
X108993768Y-143746379D01*
X108993767Y-143746379D01*
X108986486Y-143748330D01*
X108973804Y-143750000D01*
X96448843Y-143750000D01*
X96414195Y-143735648D01*
X96399843Y-143701000D01*
X96414195Y-143666352D01*
X96419014Y-143662126D01*
X96525733Y-143580238D01*
X96528282Y-143578282D01*
X96624536Y-143452841D01*
X96625765Y-143449875D01*
X96683816Y-143309728D01*
X96683817Y-143309724D01*
X96685044Y-143306762D01*
X96694981Y-143231284D01*
X96713733Y-143198806D01*
X96753121Y-143189621D01*
X96802948Y-143199532D01*
X96807705Y-143200000D01*
X99690253Y-143200000D01*
X99697145Y-143197145D01*
X99700000Y-143190253D01*
X100300000Y-143190253D01*
X100302855Y-143197145D01*
X100309747Y-143200000D01*
X103192295Y-143200000D01*
X103197052Y-143199532D01*
X103248303Y-143189337D01*
X103257049Y-143185715D01*
X103315181Y-143146872D01*
X103321872Y-143140181D01*
X103360715Y-143082049D01*
X103364337Y-143073303D01*
X103374532Y-143022052D01*
X103375000Y-143017295D01*
X103375000Y-141913511D01*
X103620000Y-141913511D01*
X103620177Y-141916447D01*
X103634858Y-142037769D01*
X103636256Y-142043460D01*
X103694058Y-142196426D01*
X103696776Y-142201625D01*
X103789391Y-142336381D01*
X103793274Y-142340786D01*
X103915357Y-142449558D01*
X103920177Y-142452908D01*
X104011386Y-142501201D01*
X104018813Y-142501903D01*
X104019639Y-142501220D01*
X104020000Y-142499768D01*
X104020000Y-142495690D01*
X104620000Y-142495690D01*
X104622855Y-142502582D01*
X104623977Y-142503047D01*
X104625212Y-142502747D01*
X104713727Y-142457061D01*
X104718570Y-142453769D01*
X104841797Y-142346272D01*
X104845721Y-142341914D01*
X104939744Y-142208132D01*
X104942516Y-142202964D01*
X105001916Y-142050610D01*
X105003373Y-142044936D01*
X105019791Y-141920224D01*
X105020000Y-141917039D01*
X105020000Y-141882247D01*
X105017145Y-141875355D01*
X105010253Y-141872500D01*
X104629747Y-141872500D01*
X104622855Y-141875355D01*
X104620000Y-141882247D01*
X104620000Y-142495690D01*
X104020000Y-142495690D01*
X104020000Y-141882247D01*
X104017145Y-141875355D01*
X104010253Y-141872500D01*
X103629747Y-141872500D01*
X103622855Y-141875355D01*
X103620000Y-141882247D01*
X103620000Y-141913511D01*
X103375000Y-141913511D01*
X103375000Y-141262753D01*
X103620000Y-141262753D01*
X103622855Y-141269645D01*
X103629747Y-141272500D01*
X104010253Y-141272500D01*
X104017145Y-141269645D01*
X104020000Y-141262753D01*
X104620000Y-141262753D01*
X104622855Y-141269645D01*
X104629747Y-141272500D01*
X105010253Y-141272500D01*
X105017145Y-141269645D01*
X105020000Y-141262753D01*
X105020000Y-141231489D01*
X105019823Y-141228553D01*
X105005142Y-141107231D01*
X105003744Y-141101540D01*
X104945942Y-140948574D01*
X104943224Y-140943375D01*
X104850609Y-140808619D01*
X104846726Y-140804214D01*
X104724643Y-140695442D01*
X104719823Y-140692092D01*
X104628614Y-140643799D01*
X104621187Y-140643097D01*
X104620361Y-140643780D01*
X104620000Y-140645232D01*
X104620000Y-141262753D01*
X104020000Y-141262753D01*
X104020000Y-140649310D01*
X104017145Y-140642418D01*
X104016023Y-140641953D01*
X104014788Y-140642253D01*
X103926273Y-140687939D01*
X103921430Y-140691231D01*
X103798203Y-140798728D01*
X103794279Y-140803086D01*
X103700256Y-140936868D01*
X103697484Y-140942036D01*
X103638084Y-141094390D01*
X103636627Y-141100064D01*
X103620209Y-141224776D01*
X103620000Y-141227961D01*
X103620000Y-141262753D01*
X103375000Y-141262753D01*
X103375000Y-139639747D01*
X103372145Y-139632855D01*
X103365253Y-139630000D01*
X100309747Y-139630000D01*
X100302855Y-139632855D01*
X100300000Y-139639747D01*
X100300000Y-143190253D01*
X99700000Y-143190253D01*
X99700000Y-139639747D01*
X99697145Y-139632855D01*
X99690253Y-139630000D01*
X96634747Y-139630000D01*
X96627855Y-139632855D01*
X96625000Y-139639747D01*
X96625000Y-142703415D01*
X96610648Y-142738063D01*
X96576000Y-142752415D01*
X96541352Y-142738063D01*
X96537134Y-142733255D01*
X96528282Y-142721718D01*
X96402841Y-142625464D01*
X96399878Y-142624237D01*
X96399875Y-142624235D01*
X96259728Y-142566184D01*
X96259724Y-142566183D01*
X96256762Y-142564956D01*
X96253581Y-142564537D01*
X96253580Y-142564537D01*
X96230567Y-142561507D01*
X96139361Y-142549500D01*
X96096400Y-142549500D01*
X96061752Y-142535148D01*
X96047400Y-142500500D01*
X96061752Y-142465852D01*
X96071357Y-142458835D01*
X96071281Y-142458723D01*
X96078570Y-142453769D01*
X96201797Y-142346272D01*
X96205721Y-142341914D01*
X96299744Y-142208132D01*
X96302516Y-142202964D01*
X96361916Y-142050610D01*
X96363373Y-142044936D01*
X96379791Y-141920224D01*
X96380000Y-141917039D01*
X96380000Y-141882247D01*
X96377145Y-141875355D01*
X96370253Y-141872500D01*
X94989747Y-141872500D01*
X94982855Y-141875355D01*
X94980000Y-141882247D01*
X94980000Y-141913511D01*
X94980177Y-141916447D01*
X94994858Y-142037769D01*
X94996256Y-142043460D01*
X95054058Y-142196426D01*
X95056776Y-142201625D01*
X95149391Y-142336381D01*
X95153274Y-142340786D01*
X95275357Y-142449558D01*
X95280180Y-142452911D01*
X95288272Y-142457195D01*
X95312178Y-142486092D01*
X95308649Y-142523428D01*
X95279752Y-142547334D01*
X95265344Y-142549500D01*
X94427108Y-142549500D01*
X94392460Y-142535148D01*
X94378108Y-142500500D01*
X94392460Y-142465852D01*
X94507966Y-142350346D01*
X94516974Y-142343238D01*
X94520015Y-142341370D01*
X94522991Y-142339543D01*
X94525854Y-142336381D01*
X94562459Y-142295939D01*
X94564139Y-142294173D01*
X94579321Y-142278991D01*
X94585285Y-142271034D01*
X94588165Y-142267540D01*
X94616859Y-142235838D01*
X94619200Y-142233252D01*
X94627382Y-142216365D01*
X94632265Y-142208349D01*
X94643527Y-142193322D01*
X94659768Y-142149999D01*
X94661550Y-142145841D01*
X94662139Y-142144627D01*
X94681710Y-142104231D01*
X94684824Y-142085724D01*
X94687260Y-142076664D01*
X94693852Y-142059078D01*
X94694111Y-142055596D01*
X94697280Y-142012954D01*
X94697824Y-142008457D01*
X94705182Y-141964716D01*
X94705496Y-141962852D01*
X94705647Y-141950498D01*
X94705378Y-141948623D01*
X94705378Y-141948616D01*
X94703948Y-141938634D01*
X94703588Y-141928056D01*
X94704217Y-141919593D01*
X94704217Y-141919592D01*
X94704476Y-141916106D01*
X94693416Y-141864292D01*
X94692833Y-141861021D01*
X94685818Y-141812039D01*
X94685323Y-141808580D01*
X94680363Y-141797672D01*
X94677049Y-141787622D01*
X94675276Y-141779312D01*
X94675275Y-141779308D01*
X94674547Y-141775899D01*
X94649392Y-141729279D01*
X94647909Y-141726292D01*
X94627428Y-141681247D01*
X94625984Y-141678070D01*
X94618162Y-141668992D01*
X94612160Y-141660275D01*
X94608127Y-141652801D01*
X94608126Y-141652799D01*
X94606468Y-141649727D01*
X94569241Y-141612042D01*
X94566980Y-141609592D01*
X94534679Y-141572105D01*
X94534676Y-141572102D01*
X94532400Y-141569461D01*
X94522346Y-141562944D01*
X94514140Y-141556263D01*
X94508169Y-141550219D01*
X94508165Y-141550216D01*
X94505714Y-141547735D01*
X94485072Y-141536269D01*
X94459400Y-141522009D01*
X94456550Y-141520297D01*
X94412095Y-141491483D01*
X94408752Y-141490483D01*
X94408749Y-141490482D01*
X94400618Y-141488051D01*
X94390866Y-141483942D01*
X94380384Y-141478120D01*
X94376980Y-141477350D01*
X94376978Y-141477349D01*
X94328714Y-141466428D01*
X94325488Y-141465582D01*
X94278081Y-141451404D01*
X94278078Y-141451404D01*
X94274739Y-141450405D01*
X94262758Y-141450332D01*
X94252250Y-141449126D01*
X94240553Y-141446479D01*
X94187671Y-141449760D01*
X94184349Y-141449853D01*
X94165615Y-141449738D01*
X94134869Y-141449550D01*
X94134867Y-141449550D01*
X94131376Y-141449529D01*
X94128018Y-141450489D01*
X94128016Y-141450489D01*
X94119853Y-141452822D01*
X94109423Y-141454615D01*
X94097462Y-141455357D01*
X94047618Y-141473351D01*
X94044494Y-141474360D01*
X93993529Y-141488926D01*
X93983395Y-141495320D01*
X93973886Y-141499968D01*
X93965897Y-141502852D01*
X93965895Y-141502853D01*
X93962613Y-141504038D01*
X93959794Y-141506098D01*
X93959793Y-141506098D01*
X93919848Y-141535280D01*
X93917093Y-141537153D01*
X93872280Y-141565428D01*
X93866383Y-141572105D01*
X93835672Y-141606879D01*
X93833593Y-141609091D01*
X93707056Y-141735628D01*
X93672408Y-141749980D01*
X91200204Y-141749980D01*
X91165556Y-141735628D01*
X91039851Y-141609923D01*
X91025499Y-141575275D01*
X91025499Y-141262753D01*
X94980000Y-141262753D01*
X94982855Y-141269645D01*
X94989747Y-141272500D01*
X95370253Y-141272500D01*
X95377145Y-141269645D01*
X95380000Y-141262753D01*
X95980000Y-141262753D01*
X95982855Y-141269645D01*
X95989747Y-141272500D01*
X96370253Y-141272500D01*
X96377145Y-141269645D01*
X96380000Y-141262753D01*
X96380000Y-141231489D01*
X96379823Y-141228553D01*
X96365142Y-141107231D01*
X96363744Y-141101540D01*
X96305942Y-140948574D01*
X96303224Y-140943375D01*
X96210609Y-140808619D01*
X96206726Y-140804214D01*
X96084643Y-140695442D01*
X96079823Y-140692092D01*
X95988614Y-140643799D01*
X95981187Y-140643097D01*
X95980361Y-140643780D01*
X95980000Y-140645232D01*
X95980000Y-141262753D01*
X95380000Y-141262753D01*
X95380000Y-140649310D01*
X95377145Y-140642418D01*
X95376023Y-140641953D01*
X95374788Y-140642253D01*
X95286273Y-140687939D01*
X95281430Y-140691231D01*
X95158203Y-140798728D01*
X95154279Y-140803086D01*
X95060256Y-140936868D01*
X95057484Y-140942036D01*
X94998084Y-141094390D01*
X94996627Y-141100064D01*
X94980209Y-141224776D01*
X94980000Y-141227961D01*
X94980000Y-141262753D01*
X91025499Y-141262753D01*
X91025499Y-139893377D01*
X91039851Y-139858729D01*
X91074499Y-139844377D01*
X91096745Y-139849718D01*
X91116373Y-139859719D01*
X91120178Y-139860322D01*
X91120179Y-139860322D01*
X91245692Y-139880201D01*
X91249499Y-139880804D01*
X91253306Y-139880201D01*
X91378819Y-139860322D01*
X91378820Y-139860322D01*
X91382625Y-139859719D01*
X91473500Y-139813416D01*
X91499285Y-139800278D01*
X91499286Y-139800277D01*
X91502719Y-139798528D01*
X91598027Y-139703220D01*
X91659218Y-139583126D01*
X91680303Y-139450000D01*
X91659218Y-139316874D01*
X91598027Y-139196780D01*
X91502719Y-139101472D01*
X91451773Y-139075514D01*
X91427417Y-139046997D01*
X91425019Y-139031855D01*
X91425019Y-137983511D01*
X94980000Y-137983511D01*
X94980177Y-137986447D01*
X94994858Y-138107769D01*
X94996256Y-138113460D01*
X95054058Y-138266426D01*
X95056776Y-138271625D01*
X95149391Y-138406381D01*
X95153274Y-138410786D01*
X95275357Y-138519558D01*
X95280177Y-138522908D01*
X95371386Y-138571201D01*
X95378813Y-138571903D01*
X95379639Y-138571220D01*
X95380000Y-138569768D01*
X95380000Y-138565690D01*
X95980000Y-138565690D01*
X95982855Y-138572582D01*
X95983977Y-138573047D01*
X95985212Y-138572747D01*
X96073727Y-138527061D01*
X96078570Y-138523769D01*
X96201797Y-138416272D01*
X96205721Y-138411914D01*
X96299744Y-138278132D01*
X96302516Y-138272964D01*
X96361916Y-138120610D01*
X96363373Y-138114936D01*
X96379791Y-137990224D01*
X96380000Y-137987039D01*
X96380000Y-137955807D01*
X96580606Y-137955807D01*
X96609064Y-138096944D01*
X96610584Y-138099927D01*
X96619659Y-138117739D01*
X96625000Y-138139984D01*
X96625000Y-139020253D01*
X96627855Y-139027145D01*
X96634747Y-139030000D01*
X103365253Y-139030000D01*
X103372145Y-139027145D01*
X103375000Y-139020253D01*
X103375000Y-138135358D01*
X103377897Y-138118760D01*
X103407717Y-138035933D01*
X103407718Y-138035931D01*
X103408850Y-138032785D01*
X103412468Y-137983511D01*
X103620000Y-137983511D01*
X103620177Y-137986447D01*
X103634858Y-138107769D01*
X103636256Y-138113460D01*
X103694058Y-138266426D01*
X103696776Y-138271625D01*
X103789391Y-138406381D01*
X103793274Y-138410786D01*
X103915357Y-138519558D01*
X103920177Y-138522908D01*
X104011386Y-138571201D01*
X104018813Y-138571903D01*
X104019639Y-138571220D01*
X104020000Y-138569768D01*
X104020000Y-138565690D01*
X104620000Y-138565690D01*
X104622855Y-138572582D01*
X104623977Y-138573047D01*
X104625212Y-138572747D01*
X104713727Y-138527061D01*
X104718570Y-138523769D01*
X104841797Y-138416272D01*
X104845721Y-138411914D01*
X104939744Y-138278132D01*
X104942516Y-138272964D01*
X105001916Y-138120610D01*
X105003373Y-138114936D01*
X105019791Y-137990224D01*
X105020000Y-137987039D01*
X105020000Y-137702247D01*
X105017145Y-137695355D01*
X105010253Y-137692500D01*
X104629747Y-137692500D01*
X104622855Y-137695355D01*
X104620000Y-137702247D01*
X104620000Y-138565690D01*
X104020000Y-138565690D01*
X104020000Y-137702247D01*
X104017145Y-137695355D01*
X104010253Y-137692500D01*
X103629747Y-137692500D01*
X103622855Y-137695355D01*
X103620000Y-137702247D01*
X103620000Y-137983511D01*
X103412468Y-137983511D01*
X103419394Y-137889193D01*
X103390936Y-137748056D01*
X103388262Y-137742808D01*
X103380341Y-137727261D01*
X103375000Y-137705016D01*
X103375000Y-137082753D01*
X103620000Y-137082753D01*
X103622855Y-137089645D01*
X103629747Y-137092500D01*
X104010253Y-137092500D01*
X104017145Y-137089645D01*
X104020000Y-137082753D01*
X104620000Y-137082753D01*
X104622855Y-137089645D01*
X104629747Y-137092500D01*
X105010253Y-137092500D01*
X105017145Y-137089645D01*
X105020000Y-137082753D01*
X105020000Y-136801489D01*
X105019823Y-136798553D01*
X105005142Y-136677231D01*
X105003744Y-136671540D01*
X104945942Y-136518574D01*
X104943224Y-136513375D01*
X104850609Y-136378619D01*
X104846726Y-136374214D01*
X104724643Y-136265442D01*
X104719823Y-136262092D01*
X104628614Y-136213799D01*
X104621187Y-136213097D01*
X104620361Y-136213780D01*
X104620000Y-136215232D01*
X104620000Y-137082753D01*
X104020000Y-137082753D01*
X104020000Y-136219310D01*
X104017145Y-136212418D01*
X104016023Y-136211953D01*
X104014788Y-136212253D01*
X103926273Y-136257939D01*
X103921430Y-136261231D01*
X103798203Y-136368728D01*
X103794279Y-136373086D01*
X103700256Y-136506868D01*
X103697484Y-136512036D01*
X103638084Y-136664390D01*
X103636627Y-136670064D01*
X103620209Y-136794776D01*
X103620000Y-136797961D01*
X103620000Y-137082753D01*
X103375000Y-137082753D01*
X103375000Y-135642705D01*
X103374532Y-135637948D01*
X103364337Y-135586697D01*
X103360715Y-135577951D01*
X103321872Y-135519819D01*
X103315181Y-135513128D01*
X103257049Y-135474285D01*
X103248303Y-135470663D01*
X103197052Y-135460468D01*
X103192295Y-135460000D01*
X101489300Y-135460000D01*
X101454652Y-135445648D01*
X101440300Y-135411000D01*
X101454652Y-135376352D01*
X101463156Y-135367848D01*
X101471018Y-135352419D01*
X101503954Y-135287778D01*
X101524347Y-135247754D01*
X101531308Y-135203807D01*
X101544829Y-135118435D01*
X101545432Y-135114628D01*
X101524347Y-134981502D01*
X101463156Y-134861408D01*
X101367848Y-134766100D01*
X101364415Y-134764351D01*
X101364414Y-134764350D01*
X101307801Y-134735505D01*
X101247754Y-134704909D01*
X101243949Y-134704306D01*
X101243948Y-134704306D01*
X101118435Y-134684427D01*
X101114628Y-134683824D01*
X101110821Y-134684427D01*
X100985308Y-134704306D01*
X100985307Y-134704306D01*
X100981502Y-134704909D01*
X100921455Y-134735505D01*
X100864842Y-134764350D01*
X100864841Y-134764351D01*
X100861408Y-134766100D01*
X100827732Y-134799776D01*
X100793084Y-134814128D01*
X100218952Y-134814128D01*
X100184304Y-134799776D01*
X100170555Y-134772793D01*
X100160322Y-134708180D01*
X100160322Y-134708179D01*
X100159719Y-134704374D01*
X100098528Y-134584280D01*
X100003220Y-134488972D01*
X99999787Y-134487223D01*
X99999786Y-134487222D01*
X99943173Y-134458376D01*
X99883126Y-134427781D01*
X99879321Y-134427178D01*
X99879320Y-134427178D01*
X99753807Y-134407299D01*
X99750000Y-134406696D01*
X99746193Y-134407299D01*
X99620680Y-134427178D01*
X99620679Y-134427178D01*
X99616874Y-134427781D01*
X99556827Y-134458377D01*
X99500214Y-134487222D01*
X99500213Y-134487223D01*
X99496780Y-134488972D01*
X99401472Y-134584280D01*
X99340281Y-134704374D01*
X99339678Y-134708179D01*
X99339678Y-134708180D01*
X99325171Y-134799776D01*
X99319196Y-134837500D01*
X99340281Y-134970626D01*
X99342031Y-134974060D01*
X99387571Y-135063437D01*
X99401472Y-135090720D01*
X99496780Y-135186028D01*
X99500213Y-135187777D01*
X99500214Y-135187778D01*
X99531673Y-135203807D01*
X99616874Y-135247219D01*
X99620679Y-135247822D01*
X99620680Y-135247822D01*
X99641933Y-135251188D01*
X99741206Y-135266911D01*
X99768189Y-135280660D01*
X99775307Y-135287778D01*
X99779776Y-135292955D01*
X99781703Y-135296897D01*
X99785019Y-135299973D01*
X99818669Y-135331188D01*
X99819993Y-135332464D01*
X99834405Y-135346876D01*
X99836262Y-135348150D01*
X99837399Y-135349095D01*
X99841556Y-135352419D01*
X99863774Y-135373029D01*
X99862938Y-135373930D01*
X99881489Y-135400228D01*
X99875106Y-135437183D01*
X99844460Y-135458801D01*
X99833688Y-135460000D01*
X98025034Y-135460000D01*
X97990386Y-135445648D01*
X97976034Y-135411000D01*
X97981375Y-135388754D01*
X97993777Y-135364414D01*
X98009719Y-135333126D01*
X98016902Y-135287778D01*
X98030201Y-135203807D01*
X98030804Y-135200000D01*
X98027282Y-135177764D01*
X98010322Y-135070680D01*
X98010322Y-135070679D01*
X98009719Y-135066874D01*
X98007968Y-135063437D01*
X97955841Y-134961131D01*
X97950500Y-134938886D01*
X97950500Y-133765478D01*
X97964852Y-133730830D01*
X98065828Y-133629854D01*
X98092810Y-133616105D01*
X98129319Y-133610322D01*
X98133126Y-133609719D01*
X98231661Y-133559513D01*
X98249786Y-133550278D01*
X98249787Y-133550277D01*
X98253220Y-133548528D01*
X98348528Y-133453220D01*
X98353395Y-133443669D01*
X98388692Y-133374393D01*
X98409719Y-133333126D01*
X98430804Y-133200000D01*
X98418595Y-133122913D01*
X98410322Y-133070680D01*
X98410322Y-133070679D01*
X98409719Y-133066874D01*
X98348528Y-132946780D01*
X98253220Y-132851472D01*
X98249787Y-132849723D01*
X98249786Y-132849722D01*
X98193173Y-132820876D01*
X98133126Y-132790281D01*
X98129321Y-132789678D01*
X98129320Y-132789678D01*
X98003807Y-132769799D01*
X98000000Y-132769196D01*
X97996193Y-132769799D01*
X97870680Y-132789678D01*
X97870679Y-132789678D01*
X97866874Y-132790281D01*
X97806827Y-132820876D01*
X97750214Y-132849722D01*
X97750213Y-132849723D01*
X97746780Y-132851472D01*
X97651472Y-132946780D01*
X97590281Y-133066874D01*
X97589678Y-133070680D01*
X97589678Y-133070681D01*
X97583895Y-133107190D01*
X97570146Y-133134172D01*
X97382305Y-133322013D01*
X97374236Y-133328530D01*
X97364252Y-133334976D01*
X97364248Y-133334980D01*
X97360848Y-133337175D01*
X97339182Y-133364658D01*
X97335358Y-133368960D01*
X97331572Y-133372746D01*
X97330395Y-133374393D01*
X97320277Y-133388551D01*
X97318900Y-133390387D01*
X97288608Y-133428811D01*
X97287267Y-133432630D01*
X97285314Y-133436182D01*
X97285079Y-133436053D01*
X97284784Y-133436620D01*
X97285025Y-133436738D01*
X97283244Y-133440374D01*
X97280889Y-133443669D01*
X97279729Y-133447548D01*
X97266866Y-133490559D01*
X97266152Y-133492754D01*
X97249945Y-133538906D01*
X97249500Y-133544044D01*
X97249433Y-133544038D01*
X97248844Y-133547530D01*
X97249124Y-133547565D01*
X97248616Y-133551583D01*
X97247456Y-133555464D01*
X97247615Y-133559512D01*
X97247615Y-133559513D01*
X97249462Y-133606521D01*
X97249500Y-133608445D01*
X97249500Y-134938886D01*
X97244159Y-134961131D01*
X97192032Y-135063437D01*
X97190281Y-135066874D01*
X97189678Y-135070679D01*
X97189678Y-135070680D01*
X97172718Y-135177764D01*
X97169196Y-135200000D01*
X97169799Y-135203807D01*
X97183099Y-135287778D01*
X97190281Y-135333126D01*
X97206223Y-135364414D01*
X97218625Y-135388754D01*
X97221568Y-135426142D01*
X97197212Y-135454659D01*
X97174966Y-135460000D01*
X96807705Y-135460000D01*
X96802948Y-135460468D01*
X96751697Y-135470663D01*
X96742951Y-135474285D01*
X96684819Y-135513128D01*
X96678128Y-135519819D01*
X96639285Y-135577951D01*
X96635663Y-135586697D01*
X96625468Y-135637948D01*
X96625000Y-135642705D01*
X96625000Y-137709642D01*
X96622103Y-137726240D01*
X96591150Y-137812215D01*
X96580606Y-137955807D01*
X96380000Y-137955807D01*
X96380000Y-137702247D01*
X96377145Y-137695355D01*
X96370253Y-137692500D01*
X95989747Y-137692500D01*
X95982855Y-137695355D01*
X95980000Y-137702247D01*
X95980000Y-138565690D01*
X95380000Y-138565690D01*
X95380000Y-137702247D01*
X95377145Y-137695355D01*
X95370253Y-137692500D01*
X94989747Y-137692500D01*
X94982855Y-137695355D01*
X94980000Y-137702247D01*
X94980000Y-137983511D01*
X91425019Y-137983511D01*
X91425019Y-137820248D01*
X91439371Y-137785600D01*
X91610120Y-137614852D01*
X91644768Y-137600500D01*
X93844374Y-137600500D01*
X93851195Y-137601001D01*
X93855342Y-137602425D01*
X93905720Y-137600534D01*
X93907558Y-137600500D01*
X93927948Y-137600500D01*
X93930169Y-137600086D01*
X93931638Y-137599951D01*
X93936926Y-137599363D01*
X93962683Y-137598396D01*
X93962684Y-137598396D01*
X93967208Y-137598226D01*
X93971367Y-137596439D01*
X93971368Y-137596439D01*
X93982894Y-137591487D01*
X93993264Y-137588336D01*
X94005608Y-137586037D01*
X94005609Y-137586037D01*
X94010053Y-137585209D01*
X94013902Y-137582837D01*
X94013906Y-137582835D01*
X94035849Y-137569309D01*
X94042217Y-137566000D01*
X94066891Y-137555399D01*
X94066892Y-137555398D01*
X94070063Y-137554036D01*
X94074949Y-137550022D01*
X94083447Y-137541524D01*
X94092383Y-137534460D01*
X94101496Y-137528843D01*
X94101498Y-137528841D01*
X94105348Y-137526468D01*
X94125064Y-137500540D01*
X94129420Y-137495551D01*
X94900882Y-136724089D01*
X94935530Y-136709737D01*
X94970178Y-136724089D01*
X94984530Y-136758737D01*
X94984111Y-136765132D01*
X94980209Y-136794774D01*
X94980000Y-136797961D01*
X94980000Y-137082753D01*
X94982855Y-137089645D01*
X94989747Y-137092500D01*
X95370253Y-137092500D01*
X95377145Y-137089645D01*
X95380000Y-137082753D01*
X95980000Y-137082753D01*
X95982855Y-137089645D01*
X95989747Y-137092500D01*
X96370253Y-137092500D01*
X96377145Y-137089645D01*
X96380000Y-137082753D01*
X96380000Y-136801489D01*
X96379823Y-136798553D01*
X96365142Y-136677231D01*
X96363744Y-136671540D01*
X96305942Y-136518574D01*
X96303224Y-136513375D01*
X96210609Y-136378619D01*
X96206726Y-136374214D01*
X96084643Y-136265442D01*
X96079823Y-136262092D01*
X95988614Y-136213799D01*
X95981187Y-136213097D01*
X95980361Y-136213780D01*
X95980000Y-136215232D01*
X95980000Y-137082753D01*
X95380000Y-137082753D01*
X95380000Y-136439619D01*
X95394352Y-136404971D01*
X95399935Y-136400202D01*
X95403220Y-136398528D01*
X95498528Y-136303220D01*
X95519923Y-136261231D01*
X95557969Y-136186560D01*
X95559719Y-136183126D01*
X95580804Y-136050000D01*
X95559719Y-135916874D01*
X95498528Y-135796780D01*
X95403220Y-135701472D01*
X95399787Y-135699723D01*
X95399786Y-135699722D01*
X95287883Y-135642705D01*
X95283126Y-135640281D01*
X95279321Y-135639678D01*
X95279320Y-135639678D01*
X95153807Y-135619799D01*
X95150000Y-135619196D01*
X95146193Y-135619799D01*
X95020680Y-135639678D01*
X95020679Y-135639678D01*
X95016874Y-135640281D01*
X95012117Y-135642705D01*
X94900214Y-135699722D01*
X94900213Y-135699723D01*
X94896780Y-135701472D01*
X94801472Y-135796780D01*
X94740281Y-135916874D01*
X94739678Y-135920679D01*
X94739678Y-135920680D01*
X94720589Y-136041206D01*
X94706840Y-136068189D01*
X93789881Y-136985148D01*
X93755233Y-136999500D01*
X91555626Y-136999500D01*
X91548805Y-136998999D01*
X91544658Y-136997575D01*
X91494279Y-136999466D01*
X91492441Y-136999500D01*
X91472052Y-136999500D01*
X91469831Y-136999914D01*
X91468362Y-137000049D01*
X91463074Y-137000637D01*
X91437315Y-137001604D01*
X91437314Y-137001604D01*
X91432791Y-137001774D01*
X91417102Y-137008515D01*
X91406734Y-137011665D01*
X91394396Y-137013962D01*
X91394393Y-137013963D01*
X91389947Y-137014791D01*
X91386095Y-137017166D01*
X91386091Y-137017167D01*
X91364151Y-137030691D01*
X91357783Y-137034000D01*
X91329937Y-137045964D01*
X91325051Y-137049978D01*
X91316553Y-137058476D01*
X91307617Y-137065540D01*
X91298504Y-137071157D01*
X91298502Y-137071159D01*
X91294652Y-137073532D01*
X91291913Y-137077134D01*
X91291912Y-137077135D01*
X91274936Y-137099460D01*
X91270580Y-137104449D01*
X91109147Y-137265882D01*
X91074499Y-137280234D01*
X91039851Y-137265882D01*
X91025499Y-137231234D01*
X91025499Y-131052611D01*
X91039851Y-131017963D01*
X91392962Y-130664852D01*
X91427610Y-130650500D01*
X92888420Y-130650500D01*
X92899233Y-130651708D01*
X92909447Y-130654019D01*
X92912929Y-130653803D01*
X92964649Y-130650594D01*
X92967683Y-130650500D01*
X92985940Y-130650500D01*
X92999111Y-130648614D01*
X93003017Y-130648213D01*
X93052538Y-130645141D01*
X93055817Y-130643957D01*
X93055823Y-130643956D01*
X93067006Y-130639919D01*
X93076696Y-130637503D01*
X93088462Y-130635818D01*
X93088463Y-130635818D01*
X93091918Y-130635323D01*
X93103181Y-130630202D01*
X93137083Y-130614788D01*
X93140726Y-130613305D01*
X93184100Y-130597647D01*
X93184102Y-130597646D01*
X93187387Y-130596460D01*
X93199801Y-130587391D01*
X93208423Y-130582353D01*
X93219250Y-130577430D01*
X93219255Y-130577427D01*
X93222428Y-130575984D01*
X93225068Y-130573709D01*
X93225070Y-130573708D01*
X93260018Y-130543594D01*
X93263080Y-130541162D01*
X93276336Y-130531478D01*
X93289101Y-130518713D01*
X93291764Y-130516240D01*
X93328391Y-130484680D01*
X93331037Y-130482400D01*
X93338586Y-130470753D01*
X93345053Y-130462761D01*
X94610364Y-129197450D01*
X94618865Y-129190657D01*
X94624770Y-129186931D01*
X94627720Y-129185070D01*
X94664328Y-129143619D01*
X94666407Y-129141407D01*
X94679320Y-129128494D01*
X94680363Y-129127103D01*
X94680372Y-129127092D01*
X94687304Y-129117842D01*
X94689787Y-129114792D01*
X94720310Y-129080231D01*
X94722623Y-129077612D01*
X94727183Y-129067901D01*
X94729160Y-129063689D01*
X94734300Y-129055135D01*
X94743526Y-129042824D01*
X94749160Y-129027797D01*
X94760939Y-128996375D01*
X94762466Y-128992750D01*
X94782071Y-128950994D01*
X94782071Y-128950992D01*
X94783553Y-128947837D01*
X94785919Y-128932642D01*
X94788454Y-128922979D01*
X94793852Y-128908581D01*
X94797529Y-128859105D01*
X94797977Y-128855200D01*
X94800209Y-128840860D01*
X94800500Y-128838991D01*
X94800500Y-128820930D01*
X94800635Y-128817299D01*
X94804217Y-128769096D01*
X94804217Y-128769095D01*
X94804476Y-128765609D01*
X94803746Y-128762189D01*
X94801580Y-128752042D01*
X94800500Y-128741813D01*
X94800500Y-126411575D01*
X94801708Y-126400761D01*
X94803248Y-126393954D01*
X94804018Y-126390552D01*
X94800854Y-126339543D01*
X94800594Y-126335360D01*
X94800500Y-126332326D01*
X94800500Y-126314060D01*
X94798612Y-126300874D01*
X94798213Y-126296980D01*
X94795357Y-126250944D01*
X94795141Y-126247462D01*
X94793957Y-126244183D01*
X94793956Y-126244177D01*
X94789919Y-126232994D01*
X94787503Y-126223304D01*
X94785818Y-126211538D01*
X94785818Y-126211537D01*
X94785323Y-126208082D01*
X94764788Y-126162917D01*
X94763305Y-126159274D01*
X94747647Y-126115900D01*
X94747646Y-126115898D01*
X94746460Y-126112613D01*
X94737391Y-126100199D01*
X94732353Y-126091577D01*
X94727430Y-126080750D01*
X94727427Y-126080745D01*
X94725984Y-126077572D01*
X94723709Y-126074932D01*
X94723708Y-126074930D01*
X94693594Y-126039982D01*
X94691162Y-126036920D01*
X94681478Y-126023664D01*
X94668713Y-126010899D01*
X94666240Y-126008236D01*
X94634680Y-125971609D01*
X94632400Y-125968963D01*
X94620753Y-125961414D01*
X94612761Y-125954947D01*
X93582315Y-124924501D01*
X94797317Y-124924501D01*
X94818402Y-125057627D01*
X94879593Y-125177721D01*
X94974901Y-125273029D01*
X94978334Y-125274778D01*
X94978335Y-125274779D01*
X95034948Y-125303624D01*
X95094995Y-125334220D01*
X95098800Y-125334823D01*
X95098801Y-125334823D01*
X95224314Y-125354702D01*
X95228121Y-125355305D01*
X95231928Y-125354702D01*
X95357441Y-125334823D01*
X95357442Y-125334823D01*
X95361247Y-125334220D01*
X95421294Y-125303624D01*
X95477907Y-125274779D01*
X95477908Y-125274778D01*
X95481341Y-125273029D01*
X95515017Y-125239353D01*
X95549665Y-125225001D01*
X96579734Y-125225001D01*
X96614382Y-125239353D01*
X97833638Y-126458609D01*
X97847990Y-126493257D01*
X97847990Y-127621722D01*
X97833638Y-127656370D01*
X97799962Y-127690046D01*
X97798213Y-127693479D01*
X97798212Y-127693480D01*
X97786912Y-127715658D01*
X97738771Y-127810140D01*
X97738168Y-127813945D01*
X97738168Y-127813946D01*
X97726358Y-127888512D01*
X97717686Y-127943266D01*
X97738771Y-128076392D01*
X97740521Y-128079826D01*
X97774636Y-128146780D01*
X97799962Y-128196486D01*
X97895270Y-128291794D01*
X97898703Y-128293543D01*
X97898704Y-128293544D01*
X97955317Y-128322390D01*
X98015364Y-128352985D01*
X98019169Y-128353588D01*
X98019170Y-128353588D01*
X98101711Y-128366661D01*
X98148490Y-128374070D01*
X98152297Y-128373467D01*
X98156155Y-128373467D01*
X98156155Y-128375756D01*
X98185342Y-128382754D01*
X98204946Y-128414724D01*
X98196202Y-128451194D01*
X98191200Y-128457052D01*
X98101472Y-128546780D01*
X98099723Y-128550213D01*
X98099722Y-128550214D01*
X98086037Y-128577073D01*
X98040281Y-128666874D01*
X98039678Y-128670679D01*
X98039678Y-128670680D01*
X98035030Y-128700031D01*
X98015435Y-128732007D01*
X97978968Y-128740763D01*
X97951985Y-128727014D01*
X97464852Y-128239881D01*
X97450500Y-128205233D01*
X97450500Y-127771544D01*
X97464852Y-127736896D01*
X97498528Y-127703220D01*
X97502320Y-127695779D01*
X97557969Y-127586560D01*
X97559719Y-127583126D01*
X97580804Y-127450000D01*
X97559719Y-127316874D01*
X97498528Y-127196780D01*
X97403220Y-127101472D01*
X97399787Y-127099723D01*
X97399786Y-127099722D01*
X97328152Y-127063223D01*
X97283126Y-127040281D01*
X97279321Y-127039678D01*
X97279320Y-127039678D01*
X97153807Y-127019799D01*
X97150000Y-127019196D01*
X97146193Y-127019799D01*
X97020680Y-127039678D01*
X97020679Y-127039678D01*
X97016874Y-127040281D01*
X96971848Y-127063223D01*
X96900214Y-127099722D01*
X96900213Y-127099723D01*
X96896780Y-127101472D01*
X96801472Y-127196780D01*
X96740281Y-127316874D01*
X96719196Y-127450000D01*
X96740281Y-127583126D01*
X96742031Y-127586560D01*
X96797681Y-127695779D01*
X96801472Y-127703220D01*
X96835148Y-127736896D01*
X96849500Y-127771544D01*
X96849500Y-128294374D01*
X96848999Y-128301195D01*
X96847575Y-128305342D01*
X96847745Y-128309858D01*
X96849466Y-128355720D01*
X96849500Y-128357558D01*
X96849500Y-128377948D01*
X96849914Y-128380169D01*
X96850049Y-128381638D01*
X96850637Y-128386926D01*
X96851774Y-128417208D01*
X96853561Y-128421367D01*
X96853561Y-128421368D01*
X96858513Y-128432894D01*
X96861664Y-128443264D01*
X96864791Y-128460053D01*
X96867163Y-128463902D01*
X96867165Y-128463906D01*
X96880691Y-128485849D01*
X96884000Y-128492217D01*
X96888254Y-128502117D01*
X96895964Y-128520063D01*
X96899978Y-128524949D01*
X96908476Y-128533447D01*
X96915540Y-128542383D01*
X96921157Y-128551496D01*
X96921159Y-128551498D01*
X96923532Y-128555348D01*
X96927134Y-128558087D01*
X96927135Y-128558088D01*
X96949460Y-128575064D01*
X96954449Y-128579420D01*
X97956840Y-129581811D01*
X97970589Y-129608794D01*
X97974763Y-129635148D01*
X97989199Y-129726292D01*
X97990281Y-129733126D01*
X98051472Y-129853220D01*
X98146780Y-129948528D01*
X98150213Y-129950277D01*
X98150214Y-129950278D01*
X98206827Y-129979123D01*
X98266874Y-130009719D01*
X98270679Y-130010322D01*
X98270680Y-130010322D01*
X98396193Y-130030201D01*
X98400000Y-130030804D01*
X98403807Y-130030201D01*
X98529320Y-130010322D01*
X98529321Y-130010322D01*
X98533126Y-130009719D01*
X98593173Y-129979124D01*
X98649786Y-129950278D01*
X98649787Y-129950277D01*
X98653220Y-129948528D01*
X98748528Y-129853220D01*
X98801121Y-129750000D01*
X104269196Y-129750000D01*
X104290281Y-129883126D01*
X104351472Y-130003220D01*
X104446780Y-130098528D01*
X104450213Y-130100277D01*
X104450214Y-130100278D01*
X104506827Y-130129123D01*
X104566874Y-130159719D01*
X104570679Y-130160322D01*
X104570680Y-130160322D01*
X104696193Y-130180201D01*
X104700000Y-130180804D01*
X104703807Y-130180201D01*
X104829320Y-130160322D01*
X104829321Y-130160322D01*
X104833126Y-130159719D01*
X104893173Y-130129124D01*
X104949786Y-130100278D01*
X104949787Y-130100277D01*
X104953220Y-130098528D01*
X105048528Y-130003220D01*
X105109719Y-129883126D01*
X105129411Y-129758794D01*
X105143160Y-129731811D01*
X106434139Y-128440832D01*
X106468787Y-128426480D01*
X107007277Y-128426480D01*
X107041925Y-128440832D01*
X107075601Y-128474508D01*
X107079034Y-128476257D01*
X107079035Y-128476258D01*
X107110357Y-128492217D01*
X107195695Y-128535699D01*
X107199500Y-128536302D01*
X107199501Y-128536302D01*
X107265658Y-128546780D01*
X107319755Y-128555348D01*
X107325014Y-128556181D01*
X107328821Y-128556784D01*
X107332628Y-128556181D01*
X107337888Y-128555348D01*
X107391984Y-128546780D01*
X107458141Y-128536302D01*
X107458142Y-128536302D01*
X107461947Y-128535699D01*
X107547285Y-128492217D01*
X107578607Y-128476258D01*
X107578608Y-128476257D01*
X107582041Y-128474508D01*
X107677349Y-128379200D01*
X107679140Y-128375686D01*
X107707944Y-128319153D01*
X107738540Y-128259106D01*
X107759625Y-128125980D01*
X107738540Y-127992854D01*
X107685375Y-127888512D01*
X107679099Y-127876194D01*
X107679098Y-127876193D01*
X107677349Y-127872760D01*
X107582041Y-127777452D01*
X107578608Y-127775703D01*
X107578607Y-127775702D01*
X107502445Y-127736896D01*
X107461947Y-127716261D01*
X107458142Y-127715658D01*
X107458141Y-127715658D01*
X107332628Y-127695779D01*
X107328821Y-127695176D01*
X107325014Y-127695779D01*
X107199501Y-127715658D01*
X107199500Y-127715658D01*
X107195695Y-127716261D01*
X107155197Y-127736896D01*
X107079035Y-127775702D01*
X107079034Y-127775703D01*
X107075601Y-127777452D01*
X107041925Y-127811128D01*
X107007277Y-127825480D01*
X106379646Y-127825480D01*
X106372825Y-127824979D01*
X106368678Y-127823555D01*
X106318300Y-127825446D01*
X106316462Y-127825480D01*
X106296072Y-127825480D01*
X106293851Y-127825894D01*
X106292382Y-127826029D01*
X106287094Y-127826617D01*
X106261337Y-127827584D01*
X106261336Y-127827584D01*
X106256812Y-127827754D01*
X106252653Y-127829541D01*
X106252652Y-127829541D01*
X106241126Y-127834493D01*
X106230756Y-127837644D01*
X106218412Y-127839943D01*
X106218411Y-127839943D01*
X106213967Y-127840771D01*
X106210118Y-127843143D01*
X106210114Y-127843145D01*
X106188171Y-127856671D01*
X106181803Y-127859980D01*
X106158403Y-127870034D01*
X106153957Y-127871944D01*
X106149071Y-127875958D01*
X106140573Y-127884456D01*
X106131637Y-127891520D01*
X106122524Y-127897137D01*
X106122522Y-127897139D01*
X106118672Y-127899512D01*
X106115933Y-127903114D01*
X106115932Y-127903115D01*
X106098956Y-127925440D01*
X106094600Y-127930429D01*
X104718189Y-129306840D01*
X104691206Y-129320589D01*
X104633975Y-129329653D01*
X104570680Y-129339678D01*
X104570679Y-129339678D01*
X104566874Y-129340281D01*
X104528197Y-129359988D01*
X104450214Y-129399722D01*
X104450213Y-129399723D01*
X104446780Y-129401472D01*
X104351472Y-129496780D01*
X104349723Y-129500213D01*
X104349722Y-129500214D01*
X104344083Y-129511281D01*
X104290281Y-129616874D01*
X104289678Y-129620679D01*
X104289678Y-129620680D01*
X104276228Y-129705602D01*
X104269196Y-129750000D01*
X98801121Y-129750000D01*
X98809719Y-129733126D01*
X98810802Y-129726292D01*
X98830201Y-129603807D01*
X98830804Y-129600000D01*
X98827282Y-129577764D01*
X98810322Y-129470680D01*
X98810322Y-129470679D01*
X98809719Y-129466874D01*
X98748528Y-129346780D01*
X98653220Y-129251472D01*
X98653422Y-129251270D01*
X98635038Y-129221267D01*
X98643794Y-129184800D01*
X98661189Y-129169944D01*
X98699786Y-129150278D01*
X98699787Y-129150277D01*
X98703220Y-129148528D01*
X98798528Y-129053220D01*
X98859719Y-128933126D01*
X98871443Y-128859105D01*
X98879044Y-128811115D01*
X98891517Y-128785456D01*
X98916548Y-128758472D01*
X98917824Y-128757148D01*
X98926964Y-128748008D01*
X98961612Y-128733656D01*
X98989668Y-128745277D01*
X98990934Y-128743535D01*
X98994054Y-128745802D01*
X98996780Y-128748528D01*
X99000213Y-128750277D01*
X99000214Y-128750278D01*
X99014995Y-128757809D01*
X99116874Y-128809719D01*
X99120679Y-128810322D01*
X99120680Y-128810322D01*
X99246193Y-128830201D01*
X99250000Y-128830804D01*
X99253807Y-128830201D01*
X99379320Y-128810322D01*
X99379321Y-128810322D01*
X99383126Y-128809719D01*
X99485005Y-128757809D01*
X99499786Y-128750278D01*
X99499787Y-128750277D01*
X99503220Y-128748528D01*
X99598528Y-128653220D01*
X99659719Y-128533126D01*
X99661366Y-128522731D01*
X99680201Y-128403807D01*
X99680804Y-128400000D01*
X99659719Y-128266874D01*
X99625243Y-128199212D01*
X99600278Y-128150214D01*
X99600277Y-128150213D01*
X99598528Y-128146780D01*
X99564852Y-128113104D01*
X99550500Y-128078456D01*
X99550500Y-127007191D01*
X99564852Y-126972543D01*
X99599500Y-126958191D01*
X99634147Y-126972543D01*
X99706639Y-127045035D01*
X99720388Y-127072018D01*
X99740080Y-127196349D01*
X99801271Y-127316443D01*
X99896579Y-127411751D01*
X99900012Y-127413500D01*
X99900013Y-127413501D01*
X99956626Y-127442346D01*
X100016673Y-127472942D01*
X100020478Y-127473545D01*
X100020479Y-127473545D01*
X100145992Y-127493424D01*
X100149799Y-127494027D01*
X100153606Y-127493424D01*
X100279119Y-127473545D01*
X100279120Y-127473545D01*
X100282925Y-127472942D01*
X100342972Y-127442346D01*
X100399585Y-127413501D01*
X100399586Y-127413500D01*
X100403019Y-127411751D01*
X100498327Y-127316443D01*
X100559518Y-127196349D01*
X100580603Y-127063223D01*
X100573630Y-127019196D01*
X100560121Y-126933903D01*
X100560121Y-126933902D01*
X100559518Y-126930097D01*
X100498327Y-126810003D01*
X100403019Y-126714695D01*
X100399586Y-126712946D01*
X100399585Y-126712945D01*
X100338534Y-126681838D01*
X100282925Y-126653504D01*
X100279120Y-126652901D01*
X100279119Y-126652901D01*
X100215824Y-126642876D01*
X100158593Y-126633812D01*
X100131610Y-126620063D01*
X99964372Y-126452825D01*
X99950020Y-126418177D01*
X99950020Y-113339201D01*
X99963097Y-113305877D01*
X99991072Y-113275720D01*
X99992347Y-113274396D01*
X100006759Y-113259984D01*
X100008033Y-113258127D01*
X100008978Y-113256990D01*
X100012302Y-113252833D01*
X100029838Y-113233929D01*
X100032912Y-113230615D01*
X100034586Y-113226420D01*
X100034590Y-113226413D01*
X100039242Y-113214752D01*
X100044346Y-113205192D01*
X100051444Y-113194845D01*
X100054003Y-113191115D01*
X100061000Y-113161630D01*
X100063164Y-113154788D01*
X100073110Y-113129858D01*
X100073110Y-113129856D01*
X100074394Y-113126639D01*
X100075011Y-113120346D01*
X100075011Y-113108325D01*
X100076335Y-113097011D01*
X100078806Y-113086599D01*
X100078806Y-113086598D01*
X100079851Y-113082195D01*
X100075459Y-113049923D01*
X100075011Y-113043315D01*
X100075011Y-112630140D01*
X100075512Y-112623319D01*
X100076937Y-112619169D01*
X100075045Y-112568775D01*
X100075011Y-112566938D01*
X100075011Y-112546563D01*
X100074598Y-112544343D01*
X100074459Y-112542842D01*
X100073874Y-112537587D01*
X100072907Y-112511822D01*
X100072907Y-112511820D01*
X100072737Y-112507303D01*
X100070953Y-112503150D01*
X100070952Y-112503147D01*
X100065998Y-112491617D01*
X100062847Y-112481247D01*
X100060548Y-112468905D01*
X100059720Y-112464458D01*
X100043817Y-112438658D01*
X100040509Y-112432290D01*
X100029912Y-112407625D01*
X100029911Y-112407623D01*
X100028547Y-112404449D01*
X100024534Y-112399562D01*
X100016033Y-112391061D01*
X100008969Y-112382125D01*
X100003353Y-112373015D01*
X100000979Y-112369163D01*
X99975049Y-112349446D01*
X99970061Y-112345090D01*
X99570773Y-111945802D01*
X99154639Y-111529667D01*
X99140891Y-111502686D01*
X99135822Y-111470681D01*
X99135822Y-111470680D01*
X99135219Y-111466874D01*
X99074028Y-111346780D01*
X98978720Y-111251472D01*
X98975287Y-111249723D01*
X98975286Y-111249722D01*
X98918673Y-111220876D01*
X98858626Y-111190281D01*
X98854821Y-111189678D01*
X98854820Y-111189678D01*
X98729307Y-111169799D01*
X98725500Y-111169196D01*
X98721693Y-111169799D01*
X98596180Y-111189678D01*
X98596179Y-111189678D01*
X98592374Y-111190281D01*
X98532327Y-111220876D01*
X98475714Y-111249722D01*
X98475713Y-111249723D01*
X98472280Y-111251472D01*
X98376972Y-111346780D01*
X98315781Y-111466874D01*
X98315178Y-111470679D01*
X98315178Y-111470680D01*
X98305835Y-111529669D01*
X98294696Y-111600000D01*
X98315781Y-111733126D01*
X98376972Y-111853220D01*
X98472280Y-111948528D01*
X98475713Y-111950277D01*
X98475714Y-111950278D01*
X98532327Y-111979123D01*
X98592374Y-112009719D01*
X98596179Y-112010322D01*
X98596180Y-112010322D01*
X98721693Y-112030201D01*
X98725500Y-112030804D01*
X98729307Y-112030201D01*
X98770191Y-112023726D01*
X98806658Y-112032481D01*
X98812504Y-112037475D01*
X99135108Y-112360079D01*
X99149460Y-112394727D01*
X99135108Y-112429375D01*
X99117465Y-112440187D01*
X99116874Y-112440281D01*
X99113435Y-112442033D01*
X99113436Y-112442033D01*
X99000214Y-112499722D01*
X99000213Y-112499723D01*
X98996780Y-112501472D01*
X98901472Y-112596780D01*
X98840281Y-112716874D01*
X98819196Y-112850000D01*
X98840281Y-112983126D01*
X98901472Y-113103220D01*
X98935148Y-113136896D01*
X98949500Y-113171544D01*
X98949500Y-121669616D01*
X98935148Y-121704264D01*
X98900500Y-121718616D01*
X98878254Y-121713275D01*
X98860569Y-121704264D01*
X98833126Y-121690281D01*
X98829321Y-121689678D01*
X98829320Y-121689678D01*
X98703807Y-121669799D01*
X98700000Y-121669196D01*
X98696193Y-121669799D01*
X98570680Y-121689678D01*
X98570679Y-121689678D01*
X98566874Y-121690281D01*
X98506827Y-121720877D01*
X98450214Y-121749722D01*
X98450213Y-121749723D01*
X98446780Y-121751472D01*
X98351472Y-121846780D01*
X98290281Y-121966874D01*
X98269196Y-122100000D01*
X98290281Y-122233126D01*
X98351472Y-122353220D01*
X98385148Y-122386896D01*
X98399500Y-122421544D01*
X98399500Y-126056232D01*
X98385148Y-126090880D01*
X98350500Y-126105232D01*
X98315852Y-126090880D01*
X96976322Y-124751351D01*
X96971853Y-124746174D01*
X96969926Y-124742232D01*
X96932960Y-124707941D01*
X96931636Y-124706665D01*
X96917224Y-124692253D01*
X96915367Y-124690979D01*
X96914230Y-124690034D01*
X96910073Y-124686710D01*
X96891169Y-124669174D01*
X96887855Y-124666100D01*
X96883660Y-124664426D01*
X96883653Y-124664422D01*
X96871992Y-124659770D01*
X96862432Y-124654666D01*
X96859233Y-124652471D01*
X96848355Y-124645009D01*
X96843953Y-124643964D01*
X96843952Y-124643964D01*
X96834664Y-124641760D01*
X96818870Y-124638012D01*
X96812028Y-124635848D01*
X96787098Y-124625902D01*
X96787096Y-124625902D01*
X96783879Y-124624618D01*
X96780434Y-124624280D01*
X96780433Y-124624280D01*
X96778772Y-124624117D01*
X96778766Y-124624117D01*
X96777586Y-124624001D01*
X96765565Y-124624001D01*
X96754251Y-124622677D01*
X96743839Y-124620206D01*
X96743838Y-124620206D01*
X96739435Y-124619161D01*
X96713600Y-124622677D01*
X96707163Y-124623553D01*
X96700555Y-124624001D01*
X95549665Y-124624001D01*
X95515017Y-124609649D01*
X95481341Y-124575973D01*
X95477908Y-124574224D01*
X95477907Y-124574223D01*
X95421294Y-124545378D01*
X95361247Y-124514782D01*
X95357442Y-124514179D01*
X95357441Y-124514179D01*
X95231928Y-124494300D01*
X95228121Y-124493697D01*
X95224314Y-124494300D01*
X95098801Y-124514179D01*
X95098800Y-124514179D01*
X95094995Y-124514782D01*
X95034948Y-124545378D01*
X94978335Y-124574223D01*
X94978334Y-124574224D01*
X94974901Y-124575973D01*
X94879593Y-124671281D01*
X94877844Y-124674714D01*
X94877843Y-124674715D01*
X94870485Y-124689156D01*
X94818402Y-124791375D01*
X94797317Y-124924501D01*
X93582315Y-124924501D01*
X93497450Y-124839636D01*
X93490657Y-124831135D01*
X93486931Y-124825230D01*
X93485070Y-124822280D01*
X93443619Y-124785672D01*
X93441407Y-124783593D01*
X93428494Y-124770680D01*
X93427103Y-124769637D01*
X93427092Y-124769628D01*
X93417842Y-124762696D01*
X93414792Y-124760213D01*
X93380231Y-124729690D01*
X93377612Y-124727377D01*
X93374452Y-124725893D01*
X93374450Y-124725892D01*
X93363689Y-124720840D01*
X93355135Y-124715700D01*
X93342824Y-124706474D01*
X93339558Y-124705250D01*
X93339557Y-124705249D01*
X93296371Y-124689059D01*
X93292748Y-124687532D01*
X93250996Y-124667930D01*
X93250995Y-124667930D01*
X93247837Y-124666447D01*
X93238682Y-124665022D01*
X93232642Y-124664081D01*
X93222982Y-124661546D01*
X93211852Y-124657374D01*
X93211848Y-124657373D01*
X93208580Y-124656148D01*
X93205103Y-124655890D01*
X93205100Y-124655889D01*
X93159103Y-124652471D01*
X93155198Y-124652023D01*
X93138991Y-124649500D01*
X93120929Y-124649500D01*
X93117298Y-124649365D01*
X93069095Y-124645783D01*
X93069094Y-124645783D01*
X93065608Y-124645524D01*
X93062188Y-124646254D01*
X93052041Y-124648420D01*
X93041812Y-124649500D01*
X91227610Y-124649500D01*
X91192962Y-124635148D01*
X91039851Y-124482037D01*
X91025499Y-124447389D01*
X91025499Y-104900000D01*
X93405174Y-104900000D01*
X93426259Y-105033126D01*
X93487450Y-105153220D01*
X93582758Y-105248528D01*
X93586191Y-105250277D01*
X93586192Y-105250278D01*
X93642805Y-105279123D01*
X93702852Y-105309719D01*
X93706657Y-105310322D01*
X93706658Y-105310322D01*
X93832171Y-105330201D01*
X93835978Y-105330804D01*
X93839785Y-105330201D01*
X93965298Y-105310322D01*
X93965299Y-105310322D01*
X93969104Y-105309719D01*
X94029151Y-105279123D01*
X94085764Y-105250278D01*
X94085765Y-105250277D01*
X94089198Y-105248528D01*
X94122874Y-105214852D01*
X94157522Y-105200500D01*
X99078456Y-105200500D01*
X99113104Y-105214852D01*
X99146780Y-105248528D01*
X99150213Y-105250277D01*
X99150214Y-105250278D01*
X99206827Y-105279123D01*
X99266874Y-105309719D01*
X99270679Y-105310322D01*
X99270680Y-105310322D01*
X99396193Y-105330201D01*
X99400000Y-105330804D01*
X99403807Y-105330201D01*
X99529320Y-105310322D01*
X99529321Y-105310322D01*
X99533126Y-105309719D01*
X99593173Y-105279123D01*
X99649786Y-105250278D01*
X99649787Y-105250277D01*
X99653220Y-105248528D01*
X99748528Y-105153220D01*
X99809719Y-105033126D01*
X99821807Y-104956806D01*
X99841403Y-104924829D01*
X99877869Y-104916074D01*
X99904852Y-104929823D01*
X100348179Y-105373150D01*
X100352648Y-105378327D01*
X100354575Y-105382269D01*
X100357891Y-105385345D01*
X100391541Y-105416560D01*
X100392865Y-105417836D01*
X100407277Y-105432248D01*
X100409134Y-105433522D01*
X100410271Y-105434467D01*
X100414427Y-105437790D01*
X100436646Y-105458401D01*
X100452502Y-105464727D01*
X100462061Y-105469831D01*
X100476146Y-105479493D01*
X100480546Y-105480537D01*
X100480548Y-105480538D01*
X100505635Y-105486491D01*
X100512478Y-105488655D01*
X100537413Y-105498603D01*
X100537415Y-105498603D01*
X100540622Y-105499883D01*
X100544707Y-105500284D01*
X100545729Y-105500384D01*
X100545735Y-105500384D01*
X100546915Y-105500500D01*
X100558935Y-105500500D01*
X100570248Y-105501824D01*
X100580660Y-105504295D01*
X100580663Y-105504295D01*
X100585066Y-105505340D01*
X100617338Y-105500948D01*
X100623946Y-105500500D01*
X103444374Y-105500500D01*
X103451195Y-105501001D01*
X103455342Y-105502425D01*
X103505720Y-105500534D01*
X103507558Y-105500500D01*
X103527948Y-105500500D01*
X103530169Y-105500086D01*
X103531638Y-105499951D01*
X103536926Y-105499363D01*
X103562683Y-105498396D01*
X103562684Y-105498396D01*
X103567208Y-105498226D01*
X103571367Y-105496439D01*
X103571368Y-105496439D01*
X103582894Y-105491487D01*
X103593264Y-105488336D01*
X103605608Y-105486037D01*
X103605609Y-105486037D01*
X103610053Y-105485209D01*
X103613902Y-105482837D01*
X103613906Y-105482835D01*
X103635849Y-105469309D01*
X103642217Y-105466000D01*
X103666891Y-105455399D01*
X103666892Y-105455398D01*
X103670063Y-105454036D01*
X103674949Y-105450022D01*
X103683447Y-105441524D01*
X103692383Y-105434460D01*
X103701496Y-105428843D01*
X103701498Y-105428841D01*
X103705348Y-105426468D01*
X103725064Y-105400540D01*
X103729420Y-105395551D01*
X103731811Y-105393160D01*
X103758794Y-105379411D01*
X103816025Y-105370347D01*
X103879320Y-105360322D01*
X103879321Y-105360322D01*
X103883126Y-105359719D01*
X103980073Y-105310322D01*
X103999786Y-105300278D01*
X103999787Y-105300277D01*
X104003220Y-105298528D01*
X104098528Y-105203220D01*
X104159719Y-105083126D01*
X104180804Y-104950000D01*
X104159719Y-104816874D01*
X104098528Y-104696780D01*
X104037378Y-104635630D01*
X104023026Y-104600982D01*
X104037378Y-104566334D01*
X104048028Y-104555684D01*
X104109219Y-104435590D01*
X104130304Y-104302464D01*
X104123171Y-104257428D01*
X104109822Y-104173144D01*
X104109822Y-104173143D01*
X104109219Y-104169338D01*
X104048028Y-104049244D01*
X103952720Y-103953936D01*
X103949287Y-103952187D01*
X103949286Y-103952186D01*
X103892673Y-103923340D01*
X103832626Y-103892745D01*
X103828821Y-103892142D01*
X103828820Y-103892142D01*
X103703307Y-103872263D01*
X103699500Y-103871660D01*
X103695693Y-103872263D01*
X103570180Y-103892142D01*
X103570179Y-103892142D01*
X103566374Y-103892745D01*
X103506327Y-103923340D01*
X103449714Y-103952186D01*
X103449713Y-103952187D01*
X103446280Y-103953936D01*
X103350972Y-104049244D01*
X103289781Y-104169338D01*
X103289178Y-104173143D01*
X103289178Y-104173144D01*
X103278320Y-104241703D01*
X103264571Y-104268686D01*
X103047629Y-104485628D01*
X103012981Y-104499980D01*
X101670064Y-104499980D01*
X101635416Y-104485628D01*
X101621064Y-104450980D01*
X101635416Y-104416332D01*
X101648528Y-104403220D01*
X101709719Y-104283126D01*
X101729411Y-104158794D01*
X101743160Y-104131811D01*
X102431811Y-103443160D01*
X102458794Y-103429411D01*
X102516025Y-103420347D01*
X102579320Y-103410322D01*
X102579321Y-103410322D01*
X102583126Y-103409719D01*
X102643173Y-103379123D01*
X102699786Y-103350278D01*
X102699787Y-103350277D01*
X102703220Y-103348528D01*
X102735281Y-103316467D01*
X102769929Y-103302115D01*
X102804577Y-103316467D01*
X102813588Y-103328869D01*
X102827385Y-103355946D01*
X102851472Y-103403220D01*
X102946780Y-103498528D01*
X102950213Y-103500277D01*
X102950214Y-103500278D01*
X102969927Y-103510322D01*
X103066874Y-103559719D01*
X103070679Y-103560322D01*
X103070680Y-103560322D01*
X103196193Y-103580201D01*
X103200000Y-103580804D01*
X103203807Y-103580201D01*
X103329320Y-103560322D01*
X103329321Y-103560322D01*
X103333126Y-103559719D01*
X103430073Y-103510322D01*
X103449786Y-103500278D01*
X103449787Y-103500277D01*
X103453220Y-103498528D01*
X103548528Y-103403220D01*
X103609719Y-103283126D01*
X103612681Y-103264428D01*
X103630201Y-103153807D01*
X103630804Y-103150000D01*
X103626495Y-103122797D01*
X103622884Y-103100000D01*
X108219196Y-103100000D01*
X108219799Y-103103807D01*
X108236532Y-103209453D01*
X108240281Y-103233126D01*
X108242031Y-103236560D01*
X108289065Y-103328869D01*
X108301472Y-103353220D01*
X108396780Y-103448528D01*
X108400213Y-103450277D01*
X108400214Y-103450278D01*
X108456827Y-103479123D01*
X108516874Y-103509719D01*
X108520679Y-103510322D01*
X108520680Y-103510322D01*
X108646193Y-103530201D01*
X108650000Y-103530804D01*
X108653807Y-103530201D01*
X108779320Y-103510322D01*
X108779321Y-103510322D01*
X108783126Y-103509719D01*
X108843173Y-103479123D01*
X108899786Y-103450278D01*
X108899787Y-103450277D01*
X108903220Y-103448528D01*
X108998528Y-103353220D01*
X109010936Y-103328869D01*
X109057969Y-103236560D01*
X109059719Y-103233126D01*
X109060322Y-103229320D01*
X109074703Y-103138521D01*
X109088452Y-103111538D01*
X109806830Y-102393160D01*
X109833813Y-102379411D01*
X109891044Y-102370347D01*
X109954339Y-102360322D01*
X109954340Y-102360322D01*
X109958145Y-102359719D01*
X110018192Y-102329123D01*
X110074805Y-102300278D01*
X110074806Y-102300277D01*
X110078239Y-102298528D01*
X110173547Y-102203220D01*
X110234738Y-102083126D01*
X110244629Y-102020680D01*
X110255220Y-101953807D01*
X110255823Y-101950000D01*
X110246573Y-101891599D01*
X110235341Y-101820680D01*
X110235341Y-101820679D01*
X110234738Y-101816874D01*
X110173547Y-101696780D01*
X110078239Y-101601472D01*
X110074806Y-101599723D01*
X110074805Y-101599722D01*
X110018192Y-101570876D01*
X109958145Y-101540281D01*
X109954340Y-101539678D01*
X109954339Y-101539678D01*
X109828826Y-101519799D01*
X109825019Y-101519196D01*
X109821212Y-101519799D01*
X109695699Y-101539678D01*
X109695698Y-101539678D01*
X109691893Y-101540281D01*
X109631846Y-101570876D01*
X109575233Y-101599722D01*
X109575232Y-101599723D01*
X109571799Y-101601472D01*
X109476491Y-101696780D01*
X109415300Y-101816874D01*
X109414697Y-101820679D01*
X109414697Y-101820680D01*
X109395608Y-101941205D01*
X109381859Y-101968188D01*
X108694287Y-102655760D01*
X108659639Y-102670112D01*
X108655669Y-102669799D01*
X108653807Y-102669799D01*
X108650000Y-102669196D01*
X108646193Y-102669799D01*
X108520680Y-102689678D01*
X108520679Y-102689678D01*
X108516874Y-102690281D01*
X108490328Y-102703807D01*
X108400214Y-102749722D01*
X108400213Y-102749723D01*
X108396780Y-102751472D01*
X108301472Y-102846780D01*
X108299723Y-102850213D01*
X108299722Y-102850214D01*
X108289294Y-102870680D01*
X108240281Y-102966874D01*
X108219196Y-103100000D01*
X103622884Y-103100000D01*
X103610322Y-103020680D01*
X103610322Y-103020679D01*
X103609719Y-103016874D01*
X103568354Y-102935691D01*
X103550278Y-102900214D01*
X103550277Y-102900213D01*
X103548528Y-102896780D01*
X103514852Y-102863104D01*
X103500500Y-102828456D01*
X103500500Y-98221544D01*
X103514852Y-98186896D01*
X103548528Y-98153220D01*
X103609719Y-98033126D01*
X103630804Y-97900000D01*
X103609719Y-97766874D01*
X103548528Y-97646780D01*
X103453220Y-97551472D01*
X103449787Y-97549723D01*
X103449786Y-97549722D01*
X103393173Y-97520876D01*
X103333126Y-97490281D01*
X103329321Y-97489678D01*
X103329320Y-97489678D01*
X103203807Y-97469799D01*
X103200000Y-97469196D01*
X103196193Y-97469799D01*
X103070680Y-97489678D01*
X103070679Y-97489678D01*
X103066874Y-97490281D01*
X103006827Y-97520876D01*
X102950214Y-97549722D01*
X102950213Y-97549723D01*
X102946780Y-97551472D01*
X102851472Y-97646780D01*
X102790281Y-97766874D01*
X102769196Y-97900000D01*
X102790281Y-98033126D01*
X102851472Y-98153220D01*
X102885148Y-98186896D01*
X102899500Y-98221544D01*
X102899500Y-102740849D01*
X102885148Y-102775497D01*
X102850500Y-102789849D01*
X102815852Y-102775497D01*
X102806841Y-102763095D01*
X102800278Y-102750214D01*
X102800277Y-102750213D01*
X102798528Y-102746780D01*
X102703220Y-102651472D01*
X102699787Y-102649723D01*
X102699786Y-102649722D01*
X102643173Y-102620877D01*
X102583126Y-102590281D01*
X102579321Y-102589678D01*
X102579320Y-102589678D01*
X102453807Y-102569799D01*
X102450000Y-102569196D01*
X102446193Y-102569799D01*
X102320680Y-102589678D01*
X102320679Y-102589678D01*
X102316874Y-102590281D01*
X102256827Y-102620877D01*
X102200214Y-102649722D01*
X102200213Y-102649723D01*
X102196780Y-102651472D01*
X102101472Y-102746780D01*
X102040281Y-102866874D01*
X102039678Y-102870679D01*
X102039678Y-102870680D01*
X102020589Y-102991205D01*
X102006840Y-103018188D01*
X101318189Y-103706840D01*
X101291206Y-103720589D01*
X101233975Y-103729653D01*
X101170680Y-103739678D01*
X101170679Y-103739678D01*
X101166874Y-103740281D01*
X101106827Y-103770876D01*
X101050214Y-103799722D01*
X101050213Y-103799723D01*
X101046780Y-103801472D01*
X100951472Y-103896780D01*
X100890281Y-104016874D01*
X100869196Y-104150000D01*
X100890281Y-104283126D01*
X100951472Y-104403220D01*
X100964584Y-104416332D01*
X100978936Y-104450980D01*
X100964584Y-104485628D01*
X100929936Y-104499980D01*
X100910254Y-104499980D01*
X100875606Y-104485628D01*
X98366827Y-101976850D01*
X98362358Y-101971673D01*
X98360431Y-101967731D01*
X98323465Y-101933440D01*
X98322141Y-101932164D01*
X98307729Y-101917752D01*
X98305872Y-101916478D01*
X98304735Y-101915533D01*
X98300578Y-101912209D01*
X98281674Y-101894673D01*
X98278360Y-101891599D01*
X98274165Y-101889925D01*
X98274158Y-101889921D01*
X98262497Y-101885269D01*
X98252937Y-101880165D01*
X98242590Y-101873067D01*
X98242591Y-101873067D01*
X98238860Y-101870508D01*
X98234458Y-101869463D01*
X98234457Y-101869463D01*
X98225169Y-101867259D01*
X98209375Y-101863511D01*
X98202533Y-101861347D01*
X98177603Y-101851401D01*
X98177601Y-101851401D01*
X98174384Y-101850117D01*
X98170939Y-101849779D01*
X98170938Y-101849779D01*
X98169277Y-101849616D01*
X98169271Y-101849616D01*
X98168091Y-101849500D01*
X98156070Y-101849500D01*
X98144756Y-101848176D01*
X98134344Y-101845705D01*
X98134343Y-101845705D01*
X98129940Y-101844660D01*
X98104105Y-101848176D01*
X98097668Y-101849052D01*
X98091060Y-101849500D01*
X95221544Y-101849500D01*
X95186896Y-101835148D01*
X95153220Y-101801472D01*
X95149787Y-101799723D01*
X95149786Y-101799722D01*
X95093173Y-101770877D01*
X95033126Y-101740281D01*
X95029321Y-101739678D01*
X95029320Y-101739678D01*
X94903807Y-101719799D01*
X94900000Y-101719196D01*
X94896193Y-101719799D01*
X94770680Y-101739678D01*
X94770679Y-101739678D01*
X94766874Y-101740281D01*
X94706827Y-101770877D01*
X94650214Y-101799722D01*
X94650213Y-101799723D01*
X94646780Y-101801472D01*
X94551472Y-101896780D01*
X94549723Y-101900213D01*
X94549722Y-101900214D01*
X94542364Y-101914655D01*
X94490281Y-102016874D01*
X94489678Y-102020679D01*
X94489678Y-102020680D01*
X94479788Y-102083126D01*
X94469196Y-102150000D01*
X94490281Y-102283126D01*
X94492031Y-102286560D01*
X94492032Y-102286564D01*
X94521766Y-102344919D01*
X94524709Y-102382306D01*
X94500352Y-102410823D01*
X94425717Y-102448851D01*
X94425714Y-102448854D01*
X94422280Y-102450603D01*
X94326972Y-102545911D01*
X94325223Y-102549344D01*
X94325222Y-102549345D01*
X94304364Y-102590281D01*
X94265781Y-102666005D01*
X94265178Y-102669810D01*
X94265178Y-102669811D01*
X94248439Y-102775497D01*
X94244696Y-102799131D01*
X94245299Y-102802938D01*
X94254882Y-102863440D01*
X94265781Y-102932257D01*
X94276462Y-102953220D01*
X94308896Y-103016874D01*
X94326972Y-103052351D01*
X94422280Y-103147659D01*
X94425713Y-103149408D01*
X94425714Y-103149409D01*
X94426874Y-103150000D01*
X94542374Y-103208850D01*
X94546179Y-103209453D01*
X94546180Y-103209453D01*
X94671693Y-103229332D01*
X94675500Y-103229935D01*
X94679307Y-103229332D01*
X94804820Y-103209453D01*
X94804821Y-103209453D01*
X94808626Y-103208850D01*
X94924126Y-103150000D01*
X94925286Y-103149409D01*
X94925287Y-103149408D01*
X94928720Y-103147659D01*
X94962396Y-103113983D01*
X94997044Y-103099631D01*
X98054364Y-103099631D01*
X98089012Y-103113983D01*
X99370177Y-104395148D01*
X99384529Y-104429796D01*
X99370177Y-104464444D01*
X99343194Y-104478193D01*
X99270680Y-104489678D01*
X99270679Y-104489678D01*
X99266874Y-104490281D01*
X99247839Y-104499980D01*
X99150214Y-104549722D01*
X99150213Y-104549723D01*
X99146780Y-104551472D01*
X99113104Y-104585148D01*
X99078456Y-104599500D01*
X94157522Y-104599500D01*
X94122874Y-104585148D01*
X94089198Y-104551472D01*
X94085765Y-104549723D01*
X94085764Y-104549722D01*
X93988139Y-104499980D01*
X93969104Y-104490281D01*
X93965299Y-104489678D01*
X93965298Y-104489678D01*
X93839785Y-104469799D01*
X93835978Y-104469196D01*
X93832171Y-104469799D01*
X93706658Y-104489678D01*
X93706657Y-104489678D01*
X93702852Y-104490281D01*
X93683817Y-104499980D01*
X93586192Y-104549722D01*
X93586191Y-104549723D01*
X93582758Y-104551472D01*
X93487450Y-104646780D01*
X93426259Y-104766874D01*
X93405174Y-104900000D01*
X91025499Y-104900000D01*
X91025499Y-103143122D01*
X91039851Y-103108474D01*
X91074499Y-103094122D01*
X91096743Y-103099462D01*
X91116874Y-103109719D01*
X91120679Y-103110322D01*
X91120680Y-103110322D01*
X91246193Y-103130201D01*
X91250000Y-103130804D01*
X91253807Y-103130201D01*
X91379320Y-103110322D01*
X91379321Y-103110322D01*
X91383126Y-103109719D01*
X91495717Y-103052351D01*
X91499786Y-103050278D01*
X91499787Y-103050277D01*
X91503220Y-103048528D01*
X91598528Y-102953220D01*
X91607460Y-102935691D01*
X91640584Y-102870680D01*
X91659719Y-102833126D01*
X91668847Y-102775497D01*
X91680201Y-102703807D01*
X91680804Y-102700000D01*
X91672841Y-102649722D01*
X91660322Y-102570680D01*
X91660322Y-102570679D01*
X91659719Y-102566874D01*
X91600476Y-102450603D01*
X91600278Y-102450214D01*
X91600277Y-102450213D01*
X91598528Y-102446780D01*
X91503220Y-102351472D01*
X91499787Y-102349723D01*
X91499786Y-102349722D01*
X91402746Y-102300278D01*
X91383126Y-102290281D01*
X91379321Y-102289678D01*
X91379320Y-102289678D01*
X91253807Y-102269799D01*
X91250000Y-102269196D01*
X91246193Y-102269799D01*
X91120680Y-102289678D01*
X91120679Y-102289678D01*
X91116874Y-102290281D01*
X91097254Y-102300278D01*
X91096744Y-102300538D01*
X91059357Y-102303480D01*
X91030839Y-102279123D01*
X91025499Y-102256878D01*
X91025499Y-92850000D01*
X96519196Y-92850000D01*
X96540281Y-92983126D01*
X96601472Y-93103220D01*
X96696780Y-93198528D01*
X96700213Y-93200277D01*
X96700214Y-93200278D01*
X96756827Y-93229124D01*
X96816874Y-93259719D01*
X96820679Y-93260322D01*
X96820680Y-93260322D01*
X96946193Y-93280201D01*
X96950000Y-93280804D01*
X96953807Y-93280201D01*
X97079320Y-93260322D01*
X97079321Y-93260322D01*
X97083126Y-93259719D01*
X97143173Y-93229123D01*
X97199786Y-93200278D01*
X97199787Y-93200277D01*
X97203220Y-93198528D01*
X97240352Y-93161396D01*
X97275000Y-93147044D01*
X97309648Y-93161396D01*
X97346780Y-93198528D01*
X97350213Y-93200277D01*
X97350214Y-93200278D01*
X97406827Y-93229124D01*
X97466874Y-93259719D01*
X97470679Y-93260322D01*
X97470680Y-93260322D01*
X97596193Y-93280201D01*
X97600000Y-93280804D01*
X97603807Y-93280201D01*
X97729320Y-93260322D01*
X97729321Y-93260322D01*
X97733126Y-93259719D01*
X97793173Y-93229123D01*
X97849786Y-93200278D01*
X97849787Y-93200277D01*
X97853220Y-93198528D01*
X97948528Y-93103220D01*
X98009719Y-92983126D01*
X98030804Y-92850000D01*
X98020212Y-92783126D01*
X98010322Y-92720680D01*
X98010322Y-92720679D01*
X98009719Y-92716874D01*
X97948528Y-92596780D01*
X97914355Y-92562607D01*
X97900003Y-92527959D01*
X97900003Y-90147044D01*
X97914355Y-90112396D01*
X97948031Y-90078720D01*
X98009222Y-89958626D01*
X98030307Y-89825500D01*
X98009222Y-89692374D01*
X97948031Y-89572280D01*
X97852723Y-89476972D01*
X97849290Y-89475223D01*
X97849289Y-89475222D01*
X97791548Y-89445802D01*
X97732629Y-89415781D01*
X97728824Y-89415178D01*
X97728823Y-89415178D01*
X97603310Y-89395299D01*
X97599503Y-89394696D01*
X97595696Y-89395299D01*
X97470183Y-89415178D01*
X97470182Y-89415178D01*
X97466377Y-89415781D01*
X97407458Y-89445802D01*
X97349717Y-89475222D01*
X97349716Y-89475223D01*
X97346283Y-89476972D01*
X97309398Y-89513857D01*
X97274753Y-89528208D01*
X97240104Y-89513856D01*
X97203220Y-89476972D01*
X97199787Y-89475223D01*
X97199786Y-89475222D01*
X97142045Y-89445802D01*
X97083126Y-89415781D01*
X97079321Y-89415178D01*
X97079320Y-89415178D01*
X96953807Y-89395299D01*
X96950000Y-89394696D01*
X96946193Y-89395299D01*
X96820680Y-89415178D01*
X96820679Y-89415178D01*
X96816874Y-89415781D01*
X96757955Y-89445802D01*
X96700214Y-89475222D01*
X96700213Y-89475223D01*
X96696780Y-89476972D01*
X96601472Y-89572280D01*
X96540281Y-89692374D01*
X96519196Y-89825500D01*
X96540281Y-89958626D01*
X96601472Y-90078720D01*
X96635148Y-90112396D01*
X96649500Y-90147044D01*
X96649500Y-92528456D01*
X96635148Y-92563104D01*
X96601472Y-92596780D01*
X96540281Y-92716874D01*
X96539678Y-92720679D01*
X96539678Y-92720680D01*
X96529788Y-92783126D01*
X96519196Y-92850000D01*
X91025499Y-92850000D01*
X91025499Y-91300000D01*
X92169693Y-91300000D01*
X92190778Y-91433126D01*
X92251969Y-91553220D01*
X92347277Y-91648528D01*
X92350710Y-91650277D01*
X92350711Y-91650278D01*
X92407324Y-91679124D01*
X92467371Y-91709719D01*
X92471176Y-91710322D01*
X92471177Y-91710322D01*
X92596690Y-91730201D01*
X92600497Y-91730804D01*
X92604304Y-91730201D01*
X92729817Y-91710322D01*
X92729818Y-91710322D01*
X92733623Y-91709719D01*
X92793670Y-91679123D01*
X92850283Y-91650278D01*
X92850284Y-91650277D01*
X92853717Y-91648528D01*
X92890602Y-91611644D01*
X92925250Y-91597293D01*
X92959897Y-91611645D01*
X92996780Y-91648528D01*
X93000213Y-91650277D01*
X93000214Y-91650278D01*
X93056827Y-91679124D01*
X93116874Y-91709719D01*
X93120679Y-91710322D01*
X93120680Y-91710322D01*
X93246193Y-91730201D01*
X93250000Y-91730804D01*
X93253807Y-91730201D01*
X93379320Y-91710322D01*
X93379321Y-91710322D01*
X93383126Y-91709719D01*
X93443173Y-91679123D01*
X93499786Y-91650278D01*
X93499787Y-91650277D01*
X93503220Y-91648528D01*
X93598528Y-91553220D01*
X93659719Y-91433126D01*
X93680804Y-91300000D01*
X93659719Y-91166874D01*
X93598528Y-91046780D01*
X93564852Y-91013104D01*
X93550500Y-90978456D01*
X93550500Y-90147044D01*
X93564852Y-90112396D01*
X93598528Y-90078720D01*
X93659719Y-89958626D01*
X93680804Y-89825500D01*
X93659719Y-89692374D01*
X93598528Y-89572280D01*
X93503220Y-89476972D01*
X93499787Y-89475223D01*
X93499786Y-89475222D01*
X93442045Y-89445802D01*
X93383126Y-89415781D01*
X93379321Y-89415178D01*
X93379320Y-89415178D01*
X93253807Y-89395299D01*
X93250000Y-89394696D01*
X93246193Y-89395299D01*
X93120680Y-89415178D01*
X93120679Y-89415178D01*
X93116874Y-89415781D01*
X93057955Y-89445802D01*
X93000214Y-89475222D01*
X93000213Y-89475223D01*
X92996780Y-89476972D01*
X92959895Y-89513857D01*
X92925250Y-89528208D01*
X92890601Y-89513856D01*
X92853717Y-89476972D01*
X92850284Y-89475223D01*
X92850283Y-89475222D01*
X92792542Y-89445802D01*
X92733623Y-89415781D01*
X92729818Y-89415178D01*
X92729817Y-89415178D01*
X92604304Y-89395299D01*
X92600497Y-89394696D01*
X92596690Y-89395299D01*
X92471177Y-89415178D01*
X92471176Y-89415178D01*
X92467371Y-89415781D01*
X92408452Y-89445802D01*
X92350711Y-89475222D01*
X92350710Y-89475223D01*
X92347277Y-89476972D01*
X92251969Y-89572280D01*
X92190778Y-89692374D01*
X92169693Y-89825500D01*
X92190778Y-89958626D01*
X92251969Y-90078720D01*
X92285645Y-90112396D01*
X92299997Y-90147044D01*
X92299997Y-90978456D01*
X92285645Y-91013104D01*
X92251969Y-91046780D01*
X92190778Y-91166874D01*
X92169693Y-91300000D01*
X91025499Y-91300000D01*
X91025499Y-89100000D01*
X105619196Y-89100000D01*
X105640281Y-89233126D01*
X105701472Y-89353220D01*
X105796780Y-89448528D01*
X105800213Y-89450277D01*
X105800214Y-89450278D01*
X105849170Y-89475222D01*
X105916874Y-89509719D01*
X105920679Y-89510322D01*
X105920680Y-89510322D01*
X106046193Y-89530201D01*
X106050000Y-89530804D01*
X106053807Y-89530201D01*
X106179320Y-89510322D01*
X106179321Y-89510322D01*
X106183126Y-89509719D01*
X106250830Y-89475222D01*
X106299786Y-89450278D01*
X106299787Y-89450277D01*
X106303220Y-89448528D01*
X106336896Y-89414852D01*
X106371544Y-89400500D01*
X107578456Y-89400500D01*
X107613104Y-89414852D01*
X107646780Y-89448528D01*
X107650213Y-89450277D01*
X107650214Y-89450278D01*
X107699170Y-89475222D01*
X107766874Y-89509719D01*
X107770679Y-89510322D01*
X107770680Y-89510322D01*
X107896193Y-89530201D01*
X107900000Y-89530804D01*
X107903807Y-89530201D01*
X108029320Y-89510322D01*
X108029321Y-89510322D01*
X108033126Y-89509719D01*
X108100830Y-89475222D01*
X108149786Y-89450278D01*
X108149787Y-89450277D01*
X108153220Y-89448528D01*
X108248528Y-89353220D01*
X108309719Y-89233126D01*
X108330804Y-89100000D01*
X108309719Y-88966874D01*
X108248528Y-88846780D01*
X108153220Y-88751472D01*
X108149787Y-88749723D01*
X108149786Y-88749722D01*
X108093173Y-88720877D01*
X108033126Y-88690281D01*
X108029321Y-88689678D01*
X108029320Y-88689678D01*
X107903807Y-88669799D01*
X107900000Y-88669196D01*
X107896193Y-88669799D01*
X107770680Y-88689678D01*
X107770679Y-88689678D01*
X107766874Y-88690281D01*
X107706827Y-88720876D01*
X107650214Y-88749722D01*
X107650213Y-88749723D01*
X107646780Y-88751472D01*
X107613104Y-88785148D01*
X107578456Y-88799500D01*
X106371544Y-88799500D01*
X106336896Y-88785148D01*
X106303220Y-88751472D01*
X106299787Y-88749723D01*
X106299786Y-88749722D01*
X106243173Y-88720877D01*
X106183126Y-88690281D01*
X106179321Y-88689678D01*
X106179320Y-88689678D01*
X106053807Y-88669799D01*
X106050000Y-88669196D01*
X106046193Y-88669799D01*
X105920680Y-88689678D01*
X105920679Y-88689678D01*
X105916874Y-88690281D01*
X105856827Y-88720876D01*
X105800214Y-88749722D01*
X105800213Y-88749723D01*
X105796780Y-88751472D01*
X105701472Y-88846780D01*
X105640281Y-88966874D01*
X105619196Y-89100000D01*
X91025499Y-89100000D01*
X91025499Y-87350000D01*
X107349196Y-87350000D01*
X107370281Y-87483126D01*
X107431472Y-87603220D01*
X107526780Y-87698528D01*
X107530213Y-87700277D01*
X107530214Y-87700278D01*
X107586827Y-87729123D01*
X107646874Y-87759719D01*
X107650679Y-87760322D01*
X107650680Y-87760322D01*
X107776193Y-87780201D01*
X107780000Y-87780804D01*
X107783807Y-87780201D01*
X107909320Y-87760322D01*
X107909321Y-87760322D01*
X107913126Y-87759719D01*
X107973173Y-87729123D01*
X108029786Y-87700278D01*
X108029787Y-87700277D01*
X108033220Y-87698528D01*
X108128528Y-87603220D01*
X108189719Y-87483126D01*
X108210804Y-87350000D01*
X108189719Y-87216874D01*
X108144577Y-87128278D01*
X108141634Y-87090890D01*
X108153588Y-87071384D01*
X109415852Y-85809120D01*
X109450500Y-85794768D01*
X109485148Y-85809120D01*
X109499500Y-85843768D01*
X109499500Y-92328456D01*
X109485148Y-92363104D01*
X109451472Y-92396780D01*
X109390281Y-92516874D01*
X109389678Y-92520679D01*
X109389678Y-92520680D01*
X109385311Y-92548255D01*
X109369196Y-92650000D01*
X109369799Y-92653807D01*
X109380391Y-92720680D01*
X109390281Y-92783126D01*
X109451472Y-92903220D01*
X109546780Y-92998528D01*
X109550213Y-93000277D01*
X109550214Y-93000278D01*
X109606827Y-93029123D01*
X109666874Y-93059719D01*
X109670679Y-93060322D01*
X109670680Y-93060322D01*
X109796193Y-93080201D01*
X109800000Y-93080804D01*
X109803807Y-93080201D01*
X109929320Y-93060322D01*
X109929321Y-93060322D01*
X109933126Y-93059719D01*
X109993173Y-93029123D01*
X110049786Y-93000278D01*
X110049787Y-93000277D01*
X110053220Y-92998528D01*
X110148528Y-92903220D01*
X110209719Y-92783126D01*
X110219610Y-92720680D01*
X110230201Y-92653807D01*
X110230804Y-92650000D01*
X110214689Y-92548255D01*
X110210322Y-92520680D01*
X110210322Y-92520679D01*
X110209719Y-92516874D01*
X110148528Y-92396780D01*
X110114852Y-92363104D01*
X110100500Y-92328456D01*
X110100500Y-85121544D01*
X110114852Y-85086896D01*
X110148528Y-85053220D01*
X110209719Y-84933126D01*
X110230804Y-84800000D01*
X110209719Y-84666874D01*
X110148528Y-84546780D01*
X110053220Y-84451472D01*
X110049787Y-84449723D01*
X110049786Y-84449722D01*
X109993173Y-84420876D01*
X109933126Y-84390281D01*
X109929321Y-84389678D01*
X109929320Y-84389678D01*
X109803807Y-84369799D01*
X109800000Y-84369196D01*
X109796193Y-84369799D01*
X109670680Y-84389678D01*
X109670679Y-84389678D01*
X109666874Y-84390281D01*
X109606827Y-84420876D01*
X109550214Y-84449722D01*
X109550213Y-84449723D01*
X109546780Y-84451472D01*
X109451472Y-84546780D01*
X109390281Y-84666874D01*
X109369196Y-84800000D01*
X109369799Y-84803807D01*
X109376441Y-84845742D01*
X109367686Y-84882208D01*
X109335709Y-84901804D01*
X109320379Y-84901804D01*
X109279307Y-84895299D01*
X109275500Y-84894696D01*
X109271693Y-84895299D01*
X109146180Y-84915178D01*
X109146179Y-84915178D01*
X109142374Y-84915781D01*
X109108333Y-84933126D01*
X109025714Y-84975222D01*
X109025713Y-84975223D01*
X109022280Y-84976972D01*
X108926972Y-85072280D01*
X108865781Y-85192374D01*
X108844696Y-85325500D01*
X108865781Y-85458626D01*
X108867531Y-85462060D01*
X108868723Y-85465729D01*
X108867158Y-85466237D01*
X108869654Y-85497813D01*
X108857695Y-85517334D01*
X107606850Y-86768179D01*
X107601673Y-86772648D01*
X107597731Y-86774575D01*
X107594655Y-86777891D01*
X107563440Y-86811541D01*
X107562164Y-86812865D01*
X107547752Y-86827277D01*
X107546478Y-86829134D01*
X107545533Y-86830271D01*
X107542210Y-86834427D01*
X107521599Y-86856646D01*
X107519925Y-86860841D01*
X107519921Y-86860848D01*
X107515269Y-86872509D01*
X107510166Y-86882067D01*
X107500508Y-86896146D01*
X107499463Y-86900548D01*
X107499463Y-86900549D01*
X107493512Y-86925628D01*
X107491347Y-86932473D01*
X107480117Y-86960622D01*
X107479500Y-86966915D01*
X107479500Y-86978936D01*
X107478176Y-86990250D01*
X107474660Y-87005066D01*
X107477197Y-87023706D01*
X107467647Y-87059972D01*
X107463292Y-87064960D01*
X107431472Y-87096780D01*
X107370281Y-87216874D01*
X107349196Y-87350000D01*
X91025499Y-87350000D01*
X91025499Y-83094748D01*
X107324500Y-83094748D01*
X107336133Y-83153231D01*
X107380448Y-83219552D01*
X107446769Y-83263867D01*
X107505252Y-83275500D01*
X108894748Y-83275500D01*
X108953231Y-83263867D01*
X109019552Y-83219552D01*
X109063867Y-83153231D01*
X109075500Y-83094748D01*
X109075500Y-81705252D01*
X109063867Y-81646769D01*
X109019552Y-81580448D01*
X108953231Y-81536133D01*
X108894748Y-81524500D01*
X107505252Y-81524500D01*
X107446769Y-81536133D01*
X107380448Y-81580448D01*
X107336133Y-81646769D01*
X107324500Y-81705252D01*
X107324500Y-83094748D01*
X91025499Y-83094748D01*
X91025499Y-80705462D01*
X107379221Y-80705462D01*
X107395451Y-80755413D01*
X107397529Y-80760081D01*
X107486924Y-80914915D01*
X107489934Y-80919059D01*
X107609564Y-81051921D01*
X107613368Y-81055347D01*
X107758010Y-81160435D01*
X107762438Y-81162991D01*
X107891097Y-81220275D01*
X107898553Y-81220471D01*
X107899998Y-81219099D01*
X107900000Y-81219091D01*
X107900000Y-81214492D01*
X108500000Y-81214492D01*
X108502855Y-81221384D01*
X108504696Y-81222147D01*
X108504702Y-81222145D01*
X108637562Y-81162991D01*
X108641990Y-81160435D01*
X108786632Y-81055347D01*
X108790436Y-81051921D01*
X108910066Y-80919059D01*
X108913076Y-80914915D01*
X109002471Y-80760081D01*
X109004549Y-80755413D01*
X109019542Y-80709270D01*
X109018957Y-80701833D01*
X109016811Y-80700000D01*
X108509747Y-80700000D01*
X108502855Y-80702855D01*
X108500000Y-80709747D01*
X108500000Y-81214492D01*
X107900000Y-81214492D01*
X107900000Y-80709747D01*
X107897145Y-80702855D01*
X107890253Y-80700000D01*
X107387193Y-80700000D01*
X107380301Y-80702855D01*
X107379221Y-80705462D01*
X91025499Y-80705462D01*
X91025499Y-80090730D01*
X107380458Y-80090730D01*
X107381043Y-80098167D01*
X107383189Y-80100000D01*
X107890253Y-80100000D01*
X107897145Y-80097145D01*
X107900000Y-80090253D01*
X108500000Y-80090253D01*
X108502855Y-80097145D01*
X108509747Y-80100000D01*
X109012807Y-80100000D01*
X109019699Y-80097145D01*
X109020779Y-80094538D01*
X109004549Y-80044587D01*
X109002471Y-80039919D01*
X108913076Y-79885085D01*
X108910066Y-79880941D01*
X108790436Y-79748079D01*
X108786632Y-79744653D01*
X108641990Y-79639565D01*
X108637562Y-79637009D01*
X108508903Y-79579725D01*
X108501447Y-79579529D01*
X108500002Y-79580901D01*
X108500000Y-79580909D01*
X108500000Y-80090253D01*
X107900000Y-80090253D01*
X107900000Y-79585508D01*
X107897145Y-79578616D01*
X107895304Y-79577853D01*
X107895298Y-79577855D01*
X107762438Y-79637009D01*
X107758010Y-79639565D01*
X107613368Y-79744653D01*
X107609564Y-79748079D01*
X107489934Y-79880941D01*
X107486924Y-79885085D01*
X107397529Y-80039919D01*
X107395451Y-80044587D01*
X107380458Y-80090730D01*
X91025499Y-80090730D01*
X91025499Y-72369678D01*
X106069820Y-72369678D01*
X106069915Y-72371406D01*
X106069915Y-72371410D01*
X106078855Y-72533844D01*
X106084804Y-72641946D01*
X106138001Y-72909385D01*
X106228350Y-73166661D01*
X106354048Y-73408641D01*
X106512587Y-73630495D01*
X106700805Y-73827797D01*
X106702170Y-73828873D01*
X106702171Y-73828874D01*
X106913578Y-73995535D01*
X106913586Y-73995540D01*
X106914944Y-73996611D01*
X106916440Y-73997480D01*
X106916446Y-73997484D01*
X107149234Y-74132698D01*
X107150734Y-74133569D01*
X107152340Y-74134219D01*
X107152343Y-74134221D01*
X107214480Y-74159389D01*
X107403468Y-74235937D01*
X107405144Y-74236353D01*
X107405146Y-74236354D01*
X107666433Y-74301258D01*
X107666437Y-74301259D01*
X107668105Y-74301673D01*
X107669816Y-74301848D01*
X107669820Y-74301849D01*
X107817564Y-74316986D01*
X107900664Y-74325500D01*
X108069458Y-74325500D01*
X108070314Y-74325439D01*
X108070325Y-74325439D01*
X108270277Y-74311281D01*
X108270279Y-74311281D01*
X108271998Y-74311159D01*
X108273686Y-74310796D01*
X108273690Y-74310795D01*
X108536864Y-74254135D01*
X108536863Y-74254135D01*
X108538569Y-74253768D01*
X108794395Y-74159389D01*
X109034370Y-74029906D01*
X109080905Y-73995535D01*
X109119526Y-73967008D01*
X109253706Y-73867901D01*
X109448028Y-73676608D01*
X109484297Y-73629085D01*
X109612404Y-73461226D01*
X109612408Y-73461219D01*
X109613458Y-73459844D01*
X109746694Y-73221932D01*
X109845080Y-72967621D01*
X109845470Y-72965939D01*
X109845472Y-72965932D01*
X109906259Y-72703674D01*
X109906651Y-72701984D01*
X109930180Y-72430322D01*
X109926748Y-72367948D01*
X109915291Y-72159784D01*
X109915196Y-72158054D01*
X109861999Y-71890615D01*
X109771650Y-71633339D01*
X109645952Y-71391359D01*
X109487413Y-71169505D01*
X109299195Y-70972203D01*
X109249870Y-70933318D01*
X109086422Y-70804465D01*
X109086414Y-70804460D01*
X109085056Y-70803389D01*
X109083560Y-70802520D01*
X109083554Y-70802516D01*
X108850766Y-70667302D01*
X108850763Y-70667301D01*
X108849266Y-70666431D01*
X108847660Y-70665781D01*
X108847657Y-70665779D01*
X108598137Y-70564713D01*
X108598136Y-70564713D01*
X108596532Y-70564063D01*
X108594856Y-70563647D01*
X108594854Y-70563646D01*
X108333567Y-70498742D01*
X108333563Y-70498741D01*
X108331895Y-70498327D01*
X108330184Y-70498152D01*
X108330180Y-70498151D01*
X108182436Y-70483014D01*
X108099336Y-70474500D01*
X107930542Y-70474500D01*
X107929686Y-70474561D01*
X107929675Y-70474561D01*
X107729723Y-70488719D01*
X107729721Y-70488719D01*
X107728002Y-70488841D01*
X107726314Y-70489204D01*
X107726310Y-70489205D01*
X107519509Y-70533728D01*
X107461431Y-70546232D01*
X107205605Y-70640611D01*
X106965630Y-70770094D01*
X106964239Y-70771122D01*
X106964235Y-70771124D01*
X106880474Y-70832992D01*
X106746294Y-70932099D01*
X106551972Y-71123392D01*
X106550922Y-71124768D01*
X106550921Y-71124769D01*
X106387596Y-71338774D01*
X106387592Y-71338781D01*
X106386542Y-71340156D01*
X106253306Y-71578068D01*
X106154920Y-71832379D01*
X106154530Y-71834061D01*
X106154528Y-71834068D01*
X106115265Y-72003461D01*
X106093349Y-72098016D01*
X106069820Y-72369678D01*
X91025499Y-72369678D01*
X91025499Y-68239737D01*
X91039851Y-68205089D01*
X93280088Y-65964852D01*
X93314736Y-65950500D01*
X93492766Y-65950500D01*
X93493665Y-65950508D01*
X93562499Y-65951770D01*
X93565810Y-65950867D01*
X93571729Y-65950500D01*
X94192766Y-65950500D01*
X94193665Y-65950508D01*
X94262499Y-65951770D01*
X94265863Y-65950853D01*
X94298770Y-65941882D01*
X94304711Y-65940652D01*
X94320923Y-65938330D01*
X94341918Y-65935323D01*
X94345094Y-65933879D01*
X94345097Y-65933878D01*
X94366923Y-65923954D01*
X94374313Y-65921286D01*
X94400817Y-65914060D01*
X94432850Y-65894392D01*
X94438208Y-65891543D01*
X94442555Y-65889566D01*
X94472428Y-65875984D01*
X94493238Y-65858053D01*
X94499584Y-65853417D01*
X94501370Y-65852321D01*
X94522991Y-65839045D01*
X94525333Y-65836457D01*
X94525336Y-65836455D01*
X94548216Y-65811176D01*
X94552560Y-65806937D01*
X94578393Y-65784678D01*
X94581037Y-65782400D01*
X94595981Y-65759345D01*
X94600763Y-65753123D01*
X94619200Y-65732754D01*
X94635587Y-65698931D01*
X94638566Y-65693643D01*
X94657117Y-65665023D01*
X94659015Y-65662095D01*
X94666888Y-65635769D01*
X94669731Y-65628457D01*
X94681710Y-65603733D01*
X94687947Y-65566662D01*
X94689322Y-65560753D01*
X94699091Y-65528089D01*
X94700093Y-65524739D01*
X94700261Y-65497270D01*
X94700939Y-65489440D01*
X94705183Y-65464216D01*
X94705183Y-65464213D01*
X94705496Y-65462354D01*
X94705647Y-65450000D01*
X94701274Y-65419464D01*
X94700780Y-65412221D01*
X94700948Y-65384867D01*
X94700948Y-65384864D01*
X94700969Y-65381376D01*
X94691565Y-65348470D01*
X94690174Y-65341953D01*
X94685818Y-65311540D01*
X94685323Y-65308082D01*
X94683878Y-65304904D01*
X94683877Y-65304900D01*
X94672555Y-65279998D01*
X94670048Y-65273184D01*
X94662533Y-65246890D01*
X94662532Y-65246888D01*
X94661572Y-65243529D01*
X94643311Y-65214586D01*
X94640148Y-65208724D01*
X94627430Y-65180753D01*
X94625984Y-65177572D01*
X94623705Y-65174927D01*
X94623703Y-65174924D01*
X94605851Y-65154207D01*
X94601530Y-65148368D01*
X94586934Y-65125234D01*
X94586933Y-65125233D01*
X94585070Y-65122280D01*
X94582453Y-65119969D01*
X94582449Y-65119964D01*
X94559420Y-65099626D01*
X94554735Y-65094884D01*
X94534680Y-65071609D01*
X94532400Y-65068963D01*
X94506514Y-65052185D01*
X94500731Y-65047795D01*
X94480232Y-65029691D01*
X94477612Y-65027377D01*
X94446625Y-65012828D01*
X94440813Y-65009599D01*
X94415026Y-64992885D01*
X94412095Y-64990985D01*
X94382543Y-64982147D01*
X94375758Y-64979556D01*
X94350994Y-64967929D01*
X94350993Y-64967929D01*
X94347837Y-64966447D01*
X94344392Y-64965911D01*
X94344390Y-64965910D01*
X94325283Y-64962935D01*
X94314021Y-64961181D01*
X94307526Y-64959712D01*
X94274739Y-64949907D01*
X94241317Y-64949703D01*
X94239919Y-64949644D01*
X94238991Y-64949500D01*
X94208266Y-64949500D01*
X94207967Y-64949499D01*
X94134832Y-64949052D01*
X94134830Y-64949052D01*
X94131376Y-64949031D01*
X94130197Y-64949368D01*
X94128258Y-64949500D01*
X93508266Y-64949500D01*
X93507967Y-64949499D01*
X93434832Y-64949052D01*
X93434830Y-64949052D01*
X93431376Y-64949031D01*
X93430197Y-64949368D01*
X93428258Y-64949500D01*
X93182585Y-64949500D01*
X93147937Y-64935148D01*
X93133585Y-64900500D01*
X93143272Y-64871251D01*
X93189077Y-64809686D01*
X93190313Y-64808025D01*
X93297645Y-64596919D01*
X93315164Y-64540500D01*
X93367258Y-64372727D01*
X93367258Y-64372726D01*
X93367873Y-64370746D01*
X93369331Y-64359748D01*
X96624500Y-64359748D01*
X96636133Y-64418231D01*
X96680448Y-64484552D01*
X96746769Y-64528867D01*
X96805252Y-64540500D01*
X100950509Y-64540500D01*
X100985157Y-64554852D01*
X100999404Y-64586296D01*
X100999500Y-64587760D01*
X100999500Y-64589361D01*
X101014956Y-64706762D01*
X101016183Y-64709724D01*
X101016184Y-64709728D01*
X101074235Y-64849875D01*
X101075464Y-64852841D01*
X101171718Y-64978282D01*
X101297159Y-65074536D01*
X101300122Y-65075763D01*
X101300125Y-65075765D01*
X101440272Y-65133816D01*
X101440276Y-65133817D01*
X101443238Y-65135044D01*
X101446419Y-65135463D01*
X101446420Y-65135463D01*
X101596817Y-65155263D01*
X101600000Y-65155682D01*
X101603183Y-65155263D01*
X101753580Y-65135463D01*
X101753581Y-65135463D01*
X101756762Y-65135044D01*
X101759724Y-65133817D01*
X101759728Y-65133816D01*
X101899875Y-65075765D01*
X101899878Y-65075763D01*
X101902841Y-65074536D01*
X101934550Y-65050205D01*
X101970171Y-65022872D01*
X102006396Y-65013165D01*
X102029829Y-65022872D01*
X102065450Y-65050205D01*
X102097159Y-65074536D01*
X102100122Y-65075763D01*
X102100125Y-65075765D01*
X102240272Y-65133816D01*
X102240276Y-65133817D01*
X102243238Y-65135044D01*
X102246419Y-65135463D01*
X102246420Y-65135463D01*
X102396817Y-65155263D01*
X102400000Y-65155682D01*
X102403183Y-65155263D01*
X102553580Y-65135463D01*
X102553581Y-65135463D01*
X102556762Y-65135044D01*
X102559724Y-65133817D01*
X102559728Y-65133816D01*
X102699875Y-65075765D01*
X102699878Y-65075763D01*
X102702841Y-65074536D01*
X102828282Y-64978282D01*
X102924536Y-64852841D01*
X102925765Y-64849875D01*
X102983816Y-64709728D01*
X102983817Y-64709724D01*
X102985044Y-64706762D01*
X103000500Y-64589361D01*
X103000500Y-64587760D01*
X103000596Y-64586296D01*
X103017182Y-64552660D01*
X103049491Y-64540500D01*
X103194748Y-64540500D01*
X103253231Y-64528867D01*
X103319552Y-64484552D01*
X103363867Y-64418231D01*
X103375500Y-64359748D01*
X103375500Y-62658830D01*
X107345624Y-62658830D01*
X107355944Y-62822860D01*
X107356894Y-62825785D01*
X107356895Y-62825788D01*
X107363918Y-62847403D01*
X107406732Y-62979171D01*
X107494798Y-63117940D01*
X107614607Y-63230448D01*
X107617305Y-63231931D01*
X107617306Y-63231932D01*
X107686619Y-63270037D01*
X107758632Y-63309627D01*
X107835629Y-63329396D01*
X107914838Y-63349734D01*
X107914841Y-63349734D01*
X107917823Y-63350500D01*
X108040925Y-63350500D01*
X108146399Y-63337175D01*
X108160003Y-63335457D01*
X108163058Y-63335071D01*
X108315871Y-63274568D01*
X108448837Y-63177963D01*
X108553600Y-63051326D01*
X108617386Y-62915774D01*
X108622269Y-62905398D01*
X108622270Y-62905394D01*
X108623579Y-62902613D01*
X108634726Y-62844177D01*
X108653799Y-62744196D01*
X108653799Y-62744194D01*
X108654376Y-62741170D01*
X108644056Y-62577140D01*
X108604498Y-62455390D01*
X108594220Y-62423758D01*
X108594219Y-62423756D01*
X108593268Y-62420829D01*
X108522761Y-62309728D01*
X108506853Y-62284661D01*
X108506852Y-62284659D01*
X108505202Y-62282060D01*
X108385393Y-62169552D01*
X108344039Y-62146817D01*
X108244067Y-62091857D01*
X108241368Y-62090373D01*
X108146686Y-62066063D01*
X108085162Y-62050266D01*
X108085159Y-62050266D01*
X108082177Y-62049500D01*
X107959075Y-62049500D01*
X107853601Y-62062825D01*
X107839997Y-62064543D01*
X107836942Y-62064929D01*
X107684129Y-62125432D01*
X107551163Y-62222037D01*
X107446400Y-62348674D01*
X107445089Y-62351461D01*
X107377731Y-62494602D01*
X107377730Y-62494606D01*
X107376421Y-62497387D01*
X107345624Y-62658830D01*
X103375500Y-62658830D01*
X103375500Y-59658830D01*
X107345624Y-59658830D01*
X107355944Y-59822860D01*
X107406732Y-59979171D01*
X107494798Y-60117940D01*
X107614607Y-60230448D01*
X107758632Y-60309627D01*
X107835629Y-60329396D01*
X107914838Y-60349734D01*
X107914841Y-60349734D01*
X107917823Y-60350500D01*
X108040925Y-60350500D01*
X108146399Y-60337175D01*
X108160003Y-60335457D01*
X108163058Y-60335071D01*
X108315871Y-60274568D01*
X108448837Y-60177963D01*
X108553600Y-60051326D01*
X108588932Y-59976242D01*
X108622269Y-59905398D01*
X108622270Y-59905394D01*
X108623579Y-59902613D01*
X108654376Y-59741170D01*
X108644056Y-59577140D01*
X108593268Y-59420829D01*
X108505202Y-59282060D01*
X108416114Y-59198401D01*
X108387639Y-59171661D01*
X108387638Y-59171661D01*
X108385393Y-59169552D01*
X108357072Y-59153982D01*
X108244067Y-59091857D01*
X108241368Y-59090373D01*
X108146686Y-59066063D01*
X108085162Y-59050266D01*
X108085159Y-59050266D01*
X108082177Y-59049500D01*
X107959075Y-59049500D01*
X107853601Y-59062825D01*
X107839997Y-59064543D01*
X107836942Y-59064929D01*
X107684129Y-59125432D01*
X107551163Y-59222037D01*
X107446400Y-59348674D01*
X107445089Y-59351461D01*
X107377731Y-59494602D01*
X107377730Y-59494606D01*
X107376421Y-59497387D01*
X107345624Y-59658830D01*
X103375500Y-59658830D01*
X103375500Y-56980252D01*
X103363867Y-56921769D01*
X103319552Y-56855448D01*
X103253231Y-56811133D01*
X103194748Y-56799500D01*
X96805252Y-56799500D01*
X96746769Y-56811133D01*
X96680448Y-56855448D01*
X96636133Y-56921769D01*
X96624500Y-56980252D01*
X96624500Y-64359748D01*
X93369331Y-64359748D01*
X93384843Y-64242715D01*
X93398718Y-64138027D01*
X93398990Y-64135975D01*
X93390106Y-63899317D01*
X93341474Y-63667539D01*
X93254485Y-63447268D01*
X93150376Y-63275703D01*
X93132701Y-63246575D01*
X93132699Y-63246572D01*
X93131626Y-63244804D01*
X93117339Y-63228339D01*
X92977770Y-63067500D01*
X92977769Y-63067499D01*
X92976411Y-63065934D01*
X92793277Y-62915774D01*
X92587462Y-62798617D01*
X92585522Y-62797913D01*
X92585518Y-62797911D01*
X92527954Y-62777017D01*
X92500282Y-62751704D01*
X92498613Y-62714238D01*
X92525921Y-62685687D01*
X92549874Y-62675765D01*
X92552841Y-62674536D01*
X92678282Y-62578282D01*
X92774536Y-62452841D01*
X92787796Y-62420829D01*
X92833816Y-62309728D01*
X92833817Y-62309724D01*
X92835044Y-62306762D01*
X92855682Y-62150000D01*
X92835044Y-61993238D01*
X92833817Y-61990276D01*
X92833816Y-61990272D01*
X92775765Y-61850125D01*
X92775763Y-61850122D01*
X92774536Y-61847159D01*
X92678282Y-61721718D01*
X92552841Y-61625464D01*
X92549878Y-61624237D01*
X92549875Y-61624235D01*
X92409728Y-61566184D01*
X92409724Y-61566183D01*
X92406762Y-61564956D01*
X92403581Y-61564537D01*
X92403580Y-61564537D01*
X92380567Y-61561507D01*
X92289361Y-61549500D01*
X90792574Y-61549500D01*
X90786178Y-61549081D01*
X90753183Y-61544737D01*
X90750000Y-61544318D01*
X90746817Y-61544737D01*
X90710639Y-61549500D01*
X90596420Y-61564537D01*
X90596419Y-61564537D01*
X90593238Y-61564956D01*
X90590276Y-61566183D01*
X90590272Y-61566184D01*
X90450125Y-61624235D01*
X90450122Y-61624237D01*
X90447159Y-61625464D01*
X90321718Y-61721718D01*
X90319762Y-61724267D01*
X90299504Y-61750668D01*
X90295278Y-61755487D01*
X89233648Y-62817117D01*
X89199000Y-62831469D01*
X89164352Y-62817117D01*
X89150000Y-62782469D01*
X89150000Y-58126196D01*
X89151670Y-58113514D01*
X89153621Y-58106233D01*
X89153621Y-58106232D01*
X89155291Y-58100000D01*
X89153134Y-58091950D01*
X89151569Y-58076063D01*
X89151982Y-58069768D01*
X89845469Y-58069768D01*
X89847450Y-58100000D01*
X89859292Y-58280670D01*
X89859846Y-58282850D01*
X89859846Y-58282852D01*
X89881880Y-58369612D01*
X89911318Y-58485523D01*
X89912254Y-58487553D01*
X89912256Y-58487559D01*
X89951050Y-58571708D01*
X89999804Y-58677463D01*
X90121787Y-58850065D01*
X90273181Y-58997547D01*
X90275043Y-58998791D01*
X90275044Y-58998792D01*
X90375722Y-59066063D01*
X90448916Y-59114970D01*
X90643108Y-59198401D01*
X90645300Y-59198897D01*
X90847062Y-59244551D01*
X90847068Y-59244552D01*
X90849252Y-59245046D01*
X90938484Y-59248552D01*
X91058197Y-59253256D01*
X91058200Y-59253256D01*
X91060444Y-59253344D01*
X91062663Y-59253022D01*
X91062668Y-59253022D01*
X91165028Y-59238180D01*
X91269612Y-59223016D01*
X91271734Y-59222296D01*
X91271737Y-59222295D01*
X91420899Y-59171661D01*
X91469751Y-59155078D01*
X91630725Y-59064929D01*
X91652196Y-59052905D01*
X91652198Y-59052904D01*
X91654158Y-59051806D01*
X91717901Y-58998792D01*
X91814934Y-58918090D01*
X91816657Y-58916657D01*
X91951806Y-58754158D01*
X91993727Y-58679303D01*
X92053982Y-58571708D01*
X92055078Y-58569751D01*
X92123016Y-58369612D01*
X92153344Y-58160444D01*
X92154927Y-58100000D01*
X92154355Y-58093768D01*
X92146689Y-58010342D01*
X92135588Y-57889531D01*
X92127856Y-57862113D01*
X92078826Y-57688272D01*
X92078217Y-57686111D01*
X92047757Y-57624343D01*
X91985731Y-57498568D01*
X91984737Y-57496552D01*
X91858278Y-57327203D01*
X91703075Y-57183735D01*
X91693796Y-57177880D01*
X91656613Y-57154420D01*
X91524326Y-57070953D01*
X91426740Y-57032020D01*
X91330101Y-56993464D01*
X91330097Y-56993463D01*
X91328017Y-56992633D01*
X91120723Y-56951400D01*
X91019975Y-56950081D01*
X90911633Y-56948662D01*
X90911628Y-56948662D01*
X90909385Y-56948633D01*
X90907168Y-56949014D01*
X90907167Y-56949014D01*
X90893282Y-56951400D01*
X90701083Y-56984426D01*
X90698979Y-56985202D01*
X90698976Y-56985203D01*
X90504899Y-57056802D01*
X90504896Y-57056803D01*
X90502791Y-57057580D01*
X90500863Y-57058727D01*
X90500861Y-57058728D01*
X90323081Y-57164495D01*
X90323075Y-57164499D01*
X90321151Y-57165644D01*
X90319463Y-57167124D01*
X90319462Y-57167125D01*
X90300522Y-57183735D01*
X90162246Y-57305001D01*
X90160861Y-57306757D01*
X90160857Y-57306762D01*
X90032787Y-57469218D01*
X90032784Y-57469223D01*
X90031397Y-57470982D01*
X90030349Y-57472974D01*
X89952372Y-57621185D01*
X89932987Y-57658029D01*
X89870311Y-57859877D01*
X89870047Y-57862109D01*
X89870046Y-57862113D01*
X89862807Y-57923275D01*
X89845469Y-58069768D01*
X89151982Y-58069768D01*
X89165617Y-57861727D01*
X89166454Y-57855373D01*
X89212409Y-57624343D01*
X89214067Y-57618151D01*
X89289792Y-57395073D01*
X89292245Y-57389152D01*
X89396433Y-57177880D01*
X89399638Y-57172329D01*
X89530512Y-56976461D01*
X89534414Y-56971376D01*
X89689735Y-56794267D01*
X89694267Y-56789735D01*
X89871376Y-56634414D01*
X89876461Y-56630512D01*
X90072329Y-56499638D01*
X90077880Y-56496433D01*
X90289152Y-56392245D01*
X90295073Y-56389792D01*
X90518151Y-56314067D01*
X90524343Y-56312409D01*
X90637979Y-56289805D01*
X90755376Y-56266454D01*
X90761724Y-56265617D01*
X90976063Y-56251569D01*
X90991950Y-56253134D01*
X91000000Y-56255291D01*
X91006232Y-56253621D01*
X91006233Y-56253621D01*
X91013514Y-56251670D01*
X91026196Y-56250000D01*
X108973804Y-56250000D01*
X108986486Y-56251670D01*
G37*
G04 #@! TD.AperFunction*
G04 #@! TA.AperFunction,Conductor*
G36*
X90309627Y-128528075D02*
G01*
X90318462Y-128540135D01*
X90327788Y-128558088D01*
X90354048Y-128608641D01*
X90355058Y-128610054D01*
X90505752Y-128820930D01*
X90512587Y-128830495D01*
X90513783Y-128831748D01*
X90513784Y-128831750D01*
X90538002Y-128857137D01*
X90700805Y-129027797D01*
X90702170Y-129028873D01*
X90702171Y-129028874D01*
X90913578Y-129195535D01*
X90913586Y-129195540D01*
X90914944Y-129196611D01*
X90916440Y-129197480D01*
X90916446Y-129197484D01*
X91128387Y-129320589D01*
X91150734Y-129333569D01*
X91152340Y-129334219D01*
X91152343Y-129334221D01*
X91318378Y-129401472D01*
X91403468Y-129435937D01*
X91405144Y-129436353D01*
X91405146Y-129436354D01*
X91666433Y-129501258D01*
X91666437Y-129501259D01*
X91668105Y-129501673D01*
X91669816Y-129501848D01*
X91669820Y-129501849D01*
X91817564Y-129516986D01*
X91900664Y-129525500D01*
X92069458Y-129525500D01*
X92070314Y-129525439D01*
X92070325Y-129525439D01*
X92270277Y-129511281D01*
X92270279Y-129511281D01*
X92271998Y-129511159D01*
X92273686Y-129510796D01*
X92273690Y-129510795D01*
X92536864Y-129454135D01*
X92536863Y-129454135D01*
X92538569Y-129453768D01*
X92794395Y-129359389D01*
X92994401Y-129251472D01*
X93017479Y-129239020D01*
X93054787Y-129235197D01*
X93083870Y-129258875D01*
X93087693Y-129296183D01*
X93075395Y-129316791D01*
X92757038Y-129635148D01*
X92722390Y-129649500D01*
X91261580Y-129649500D01*
X91250766Y-129648292D01*
X91240553Y-129645981D01*
X91237071Y-129646197D01*
X91185351Y-129649406D01*
X91182317Y-129649500D01*
X91164060Y-129649500D01*
X91150889Y-129651386D01*
X91146983Y-129651787D01*
X91097462Y-129654859D01*
X91094183Y-129656043D01*
X91094177Y-129656044D01*
X91082994Y-129660081D01*
X91073304Y-129662497D01*
X91061538Y-129664182D01*
X91061537Y-129664182D01*
X91058082Y-129664677D01*
X91054904Y-129666122D01*
X91012917Y-129685212D01*
X91009274Y-129686695D01*
X90965900Y-129702353D01*
X90965898Y-129702354D01*
X90962613Y-129703540D01*
X90950199Y-129712609D01*
X90941577Y-129717647D01*
X90930750Y-129722570D01*
X90930745Y-129722573D01*
X90927572Y-129724016D01*
X90924932Y-129726291D01*
X90924930Y-129726292D01*
X90889982Y-129756406D01*
X90886920Y-129758838D01*
X90873664Y-129768522D01*
X90860899Y-129781287D01*
X90858236Y-129783760D01*
X90818963Y-129817600D01*
X90811414Y-129829247D01*
X90804947Y-129837239D01*
X90309627Y-130332559D01*
X90274979Y-130346911D01*
X90240331Y-130332559D01*
X90225979Y-130297911D01*
X90225979Y-128562723D01*
X90240331Y-128528075D01*
X90274979Y-128513723D01*
X90309627Y-128528075D01*
G37*
G04 #@! TD.AperFunction*
G04 #@! TA.AperFunction,Conductor*
G36*
X90309627Y-125167441D02*
G01*
X90602548Y-125460361D01*
X90609341Y-125468862D01*
X90614930Y-125477720D01*
X90617546Y-125480030D01*
X90656390Y-125514336D01*
X90658602Y-125516415D01*
X90671507Y-125529320D01*
X90680454Y-125536025D01*
X90682155Y-125537300D01*
X90685205Y-125539784D01*
X90722388Y-125572623D01*
X90736308Y-125579158D01*
X90744870Y-125584303D01*
X90757176Y-125593526D01*
X90760442Y-125594750D01*
X90760445Y-125594752D01*
X90803629Y-125610941D01*
X90807252Y-125612468D01*
X90849004Y-125632070D01*
X90852163Y-125633553D01*
X90861318Y-125634978D01*
X90867358Y-125635919D01*
X90877018Y-125638454D01*
X90888148Y-125642626D01*
X90888152Y-125642627D01*
X90891420Y-125643852D01*
X90894897Y-125644110D01*
X90894900Y-125644111D01*
X90940897Y-125647529D01*
X90944802Y-125647977D01*
X90961009Y-125650500D01*
X90979071Y-125650500D01*
X90982702Y-125650635D01*
X91030905Y-125654217D01*
X91030906Y-125654217D01*
X91034392Y-125654476D01*
X91047958Y-125651580D01*
X91058188Y-125650500D01*
X91447091Y-125650500D01*
X91481739Y-125664852D01*
X91496091Y-125699500D01*
X91481739Y-125734148D01*
X91461408Y-125746171D01*
X91461431Y-125746232D01*
X91461097Y-125746355D01*
X91461096Y-125746356D01*
X91205605Y-125840611D01*
X91157752Y-125866431D01*
X90971244Y-125967065D01*
X90965630Y-125970094D01*
X90964239Y-125971122D01*
X90964235Y-125971124D01*
X90921734Y-126002516D01*
X90746294Y-126132099D01*
X90551972Y-126323392D01*
X90550922Y-126324768D01*
X90550921Y-126324769D01*
X90387596Y-126538774D01*
X90387592Y-126538781D01*
X90386542Y-126540156D01*
X90357867Y-126591359D01*
X90317731Y-126663028D01*
X90288280Y-126686246D01*
X90251037Y-126681838D01*
X90227819Y-126652387D01*
X90225979Y-126639086D01*
X90225979Y-125202089D01*
X90240331Y-125167441D01*
X90274979Y-125153089D01*
X90309627Y-125167441D01*
G37*
G04 #@! TD.AperFunction*
G04 #@! TA.AperFunction,Conductor*
G36*
X91337977Y-62764852D02*
G01*
X91352329Y-62799500D01*
X91337977Y-62834148D01*
X91323456Y-62844175D01*
X91318865Y-62846243D01*
X91122413Y-62978502D01*
X91120914Y-62979932D01*
X91032141Y-63064618D01*
X90951054Y-63141971D01*
X90809687Y-63331975D01*
X90702355Y-63543081D01*
X90701739Y-63545063D01*
X90701738Y-63545067D01*
X90632742Y-63767273D01*
X90632127Y-63769254D01*
X90631855Y-63771309D01*
X90631854Y-63771312D01*
X90614888Y-63899317D01*
X90601010Y-64004025D01*
X90609894Y-64240683D01*
X90658526Y-64472461D01*
X90745515Y-64692732D01*
X90803589Y-64788435D01*
X90853844Y-64871251D01*
X90868374Y-64895196D01*
X90869730Y-64896759D01*
X90869731Y-64896760D01*
X91017512Y-65067063D01*
X91023589Y-65074066D01*
X91206723Y-65224226D01*
X91246538Y-65246890D01*
X91354037Y-65308082D01*
X91412538Y-65341383D01*
X91414478Y-65342087D01*
X91414482Y-65342089D01*
X91633204Y-65421481D01*
X91635152Y-65422188D01*
X91868197Y-65464329D01*
X91869803Y-65464405D01*
X91869805Y-65464405D01*
X91892446Y-65465473D01*
X91892463Y-65465473D01*
X91893027Y-65465500D01*
X92059457Y-65465500D01*
X92060467Y-65465414D01*
X92060474Y-65465414D01*
X92233920Y-65450697D01*
X92233925Y-65450696D01*
X92235977Y-65450522D01*
X92237976Y-65450003D01*
X92237983Y-65450002D01*
X92254584Y-65445693D01*
X92291727Y-65450879D01*
X92314323Y-65480810D01*
X92309137Y-65517953D01*
X92301543Y-65527769D01*
X90309627Y-67519685D01*
X90274979Y-67534037D01*
X90240331Y-67519685D01*
X90225979Y-67485037D01*
X90225979Y-63543552D01*
X90240331Y-63508904D01*
X90984383Y-62764852D01*
X91019031Y-62750500D01*
X91303329Y-62750500D01*
X91337977Y-62764852D01*
G37*
G04 #@! TD.AperFunction*
G04 #@! TD*
M02*
