G04 #@! TF.GenerationSoftware,KiCad,Pcbnew,6.0.2+dfsg-1*
G04 #@! TF.CreationDate,2022-06-20T13:27:44+02:00*
G04 #@! TF.ProjectId,trainlog,74726169-6e6c-46f6-972e-6b696361645f,rev?*
G04 #@! TF.SameCoordinates,Original*
G04 #@! TF.FileFunction,Soldermask,Top*
G04 #@! TF.FilePolarity,Negative*
%FSLAX46Y46*%
G04 Gerber Fmt 4.6, Leading zero omitted, Abs format (unit mm)*
G04 Created by KiCad (PCBNEW 6.0.2+dfsg-1) date 2022-06-20 13:27:44*
%MOMM*%
%LPD*%
G01*
G04 APERTURE LIST*
G04 Aperture macros list*
%AMRoundRect*
0 Rectangle with rounded corners*
0 $1 Rounding radius*
0 $2 $3 $4 $5 $6 $7 $8 $9 X,Y pos of 4 corners*
0 Add a 4 corners polygon primitive as box body*
4,1,4,$2,$3,$4,$5,$6,$7,$8,$9,$2,$3,0*
0 Add four circle primitives for the rounded corners*
1,1,$1+$1,$2,$3*
1,1,$1+$1,$4,$5*
1,1,$1+$1,$6,$7*
1,1,$1+$1,$8,$9*
0 Add four rect primitives between the rounded corners*
20,1,$1+$1,$2,$3,$4,$5,0*
20,1,$1+$1,$4,$5,$6,$7,0*
20,1,$1+$1,$6,$7,$8,$9,0*
20,1,$1+$1,$8,$9,$2,$3,0*%
G04 Aperture macros list end*
%ADD10C,0.650000*%
%ADD11R,0.600000X1.450000*%
%ADD12R,0.300000X1.450000*%
%ADD13O,1.000000X2.100000*%
%ADD14O,1.000000X1.600000*%
%ADD15R,1.000000X2.500000*%
%ADD16R,0.500000X0.600000*%
%ADD17R,1.750000X0.700000*%
%ADD18R,1.000000X1.450000*%
%ADD19R,1.550000X1.000000*%
%ADD20R,1.400000X0.800000*%
%ADD21R,1.500000X1.300000*%
%ADD22R,1.500000X0.800000*%
%ADD23R,1.500000X1.500000*%
%ADD24R,1.225000X0.850000*%
%ADD25R,0.600000X0.500000*%
%ADD26R,0.700000X1.300000*%
%ADD27R,1.300000X0.700000*%
%ADD28R,0.675000X0.254000*%
%ADD29R,0.254000X0.675000*%
%ADD30R,1.100000X0.600000*%
%ADD31RoundRect,0.062500X0.062500X-0.350000X0.062500X0.350000X-0.062500X0.350000X-0.062500X-0.350000X0*%
%ADD32RoundRect,0.062500X0.350000X-0.062500X0.350000X0.062500X-0.350000X0.062500X-0.350000X-0.062500X0*%
%ADD33R,2.600000X2.600000*%
%ADD34R,0.600000X0.900000*%
%ADD35R,0.850000X1.225000*%
%ADD36R,0.900000X0.600000*%
%ADD37R,0.800000X1.000000*%
%ADD38C,0.900000*%
%ADD39R,1.500000X0.700000*%
%ADD40RoundRect,0.150000X-0.587500X-0.150000X0.587500X-0.150000X0.587500X0.150000X-0.587500X0.150000X0*%
%ADD41RoundRect,0.150000X0.512500X0.150000X-0.512500X0.150000X-0.512500X-0.150000X0.512500X-0.150000X0*%
%ADD42R,1.505000X0.802000*%
%ADD43R,2.613000X3.502000*%
%ADD44RoundRect,0.150000X-0.512500X-0.150000X0.512500X-0.150000X0.512500X0.150000X-0.512500X0.150000X0*%
%ADD45R,0.900000X2.000000*%
%ADD46R,2.000000X0.900000*%
%ADD47R,5.000000X5.000000*%
%ADD48R,1.350000X1.350000*%
%ADD49O,1.350000X1.350000*%
%ADD50RoundRect,0.250000X1.075000X-0.375000X1.075000X0.375000X-1.075000X0.375000X-1.075000X-0.375000X0*%
%ADD51C,2.390000*%
%ADD52C,3.450000*%
G04 APERTURE END LIST*
D10*
G04 #@! TO.C,J1*
X97110000Y-137922500D03*
X102890000Y-137922500D03*
D11*
X96800000Y-136477500D03*
X97600000Y-136477500D03*
D12*
X98750000Y-136477500D03*
X99750000Y-136477500D03*
X100250000Y-136477500D03*
X101250000Y-136477500D03*
D11*
X97600000Y-136477500D03*
X96800000Y-136477500D03*
X103200000Y-136477500D03*
X102400000Y-136477500D03*
D12*
X101750000Y-136477500D03*
X100750000Y-136477500D03*
X99250000Y-136477500D03*
X98250000Y-136477500D03*
D11*
X102400000Y-136477500D03*
X103200000Y-136477500D03*
D13*
X95680000Y-137392500D03*
D14*
X104320000Y-141572500D03*
X95680000Y-141572500D03*
D13*
X104320000Y-137392500D03*
G04 #@! TD*
D15*
G04 #@! TO.C,U5*
X91950000Y-82750000D03*
X94490000Y-82750000D03*
X97030000Y-82750000D03*
X99570000Y-82750000D03*
X102110000Y-82750000D03*
X104650000Y-82750000D03*
X104650000Y-67250000D03*
X102110000Y-67250000D03*
X99570000Y-67250000D03*
X97030000Y-67250000D03*
X94490000Y-67250000D03*
X91950000Y-67250000D03*
G04 #@! TD*
D16*
G04 #@! TO.C,R10*
X101530000Y-58600000D03*
X102470000Y-58600000D03*
G04 #@! TD*
G04 #@! TO.C,R6*
X105930000Y-126800000D03*
X106870000Y-126800000D03*
G04 #@! TD*
D17*
G04 #@! TO.C,J2*
X105350000Y-94825000D03*
X105350000Y-95925000D03*
X105350000Y-97025000D03*
X105350000Y-98125000D03*
X105350000Y-99225000D03*
X105350000Y-100325000D03*
X105350000Y-101425000D03*
X105350000Y-102525000D03*
D18*
X96125000Y-103650000D03*
D19*
X94550000Y-92425000D03*
D20*
X96975000Y-92025000D03*
D21*
X105225000Y-103725000D03*
D22*
X97625000Y-103975000D03*
D23*
X105225000Y-92375000D03*
G04 #@! TD*
D24*
G04 #@! TO.C,D2*
X109012500Y-135200000D03*
X107387500Y-135200000D03*
G04 #@! TD*
D25*
G04 #@! TO.C,C3*
X104600000Y-130830000D03*
X104600000Y-131770000D03*
G04 #@! TD*
D26*
G04 #@! TO.C,C1*
X105750000Y-131200000D03*
X107650000Y-131200000D03*
G04 #@! TD*
D16*
G04 #@! TO.C,R2*
X102730000Y-134700000D03*
X103670000Y-134700000D03*
G04 #@! TD*
D27*
G04 #@! TO.C,C4*
X103200000Y-131550000D03*
X103200000Y-133450000D03*
G04 #@! TD*
D16*
G04 #@! TO.C,R15*
X107870000Y-133800000D03*
X106930000Y-133800000D03*
G04 #@! TD*
D28*
G04 #@! TO.C,U6*
X103737500Y-89850000D03*
D29*
X104650000Y-89987500D03*
X105150000Y-89987500D03*
X105650000Y-89987500D03*
X106150000Y-89987500D03*
D28*
X107062500Y-89850000D03*
X107062500Y-89350000D03*
X107062500Y-88850000D03*
X107062500Y-88350000D03*
X107062500Y-87850000D03*
X107062500Y-87350000D03*
X107062500Y-86850000D03*
X107062500Y-86350000D03*
X107062500Y-85850000D03*
X107062500Y-85350000D03*
D29*
X106150000Y-85212500D03*
X105650000Y-85212500D03*
X105150000Y-85212500D03*
X104650000Y-85212500D03*
D28*
X103737500Y-85350000D03*
X103737500Y-85850000D03*
X103737500Y-86350000D03*
X103737500Y-86850000D03*
X103737500Y-87350000D03*
X103737500Y-87850000D03*
X103737500Y-88350000D03*
X103737500Y-88850000D03*
X103737500Y-89350000D03*
G04 #@! TD*
D24*
G04 #@! TO.C,D5*
X109012500Y-140000000D03*
X107387500Y-140000000D03*
G04 #@! TD*
D27*
G04 #@! TO.C,C26*
X90900000Y-132450000D03*
X90900000Y-130550000D03*
G04 #@! TD*
D16*
G04 #@! TO.C,R1*
X96630000Y-134000000D03*
X97570000Y-134000000D03*
G04 #@! TD*
D25*
G04 #@! TO.C,R19*
X98400000Y-88080000D03*
X98400000Y-89020000D03*
G04 #@! TD*
D16*
G04 #@! TO.C,R22*
X108330000Y-89200000D03*
X109270000Y-89200000D03*
G04 #@! TD*
G04 #@! TO.C,C17*
X102570000Y-90500000D03*
X101630000Y-90500000D03*
G04 #@! TD*
D30*
G04 #@! TO.C,Y2*
X102000000Y-89300000D03*
X102000000Y-87900000D03*
G04 #@! TD*
D16*
G04 #@! TO.C,C14*
X98870000Y-84800000D03*
X97930000Y-84800000D03*
G04 #@! TD*
D25*
G04 #@! TO.C,R20*
X96950000Y-88170000D03*
X96950000Y-87230000D03*
G04 #@! TD*
G04 #@! TO.C,R28*
X99600000Y-126470000D03*
X99600000Y-125530000D03*
G04 #@! TD*
D26*
G04 #@! TO.C,C8*
X92750000Y-142400000D03*
X90850000Y-142400000D03*
G04 #@! TD*
D31*
G04 #@! TO.C,U1*
X101550000Y-129737500D03*
X102050000Y-129737500D03*
X102550000Y-129737500D03*
X103050000Y-129737500D03*
X103550000Y-129737500D03*
X104050000Y-129737500D03*
D32*
X104737500Y-129050000D03*
X104737500Y-128550000D03*
X104737500Y-128050000D03*
X104737500Y-127550000D03*
X104737500Y-127050000D03*
X104737500Y-126550000D03*
D31*
X104050000Y-125862500D03*
X103550000Y-125862500D03*
X103050000Y-125862500D03*
X102550000Y-125862500D03*
X102050000Y-125862500D03*
X101550000Y-125862500D03*
D32*
X100862500Y-126550000D03*
X100862500Y-127050000D03*
X100862500Y-127550000D03*
X100862500Y-128050000D03*
X100862500Y-128550000D03*
X100862500Y-129050000D03*
D33*
X102800000Y-127800000D03*
G04 #@! TD*
D26*
G04 #@! TO.C,C25*
X94250000Y-131300000D03*
X92350000Y-131300000D03*
G04 #@! TD*
D25*
G04 #@! TO.C,R11*
X94800000Y-61270000D03*
X94800000Y-60330000D03*
G04 #@! TD*
D16*
G04 #@! TO.C,R30*
X109270000Y-104600000D03*
X108330000Y-104600000D03*
G04 #@! TD*
D34*
G04 #@! TO.C,C9*
X95750000Y-127400000D03*
X94250000Y-127400000D03*
G04 #@! TD*
D35*
G04 #@! TO.C,D1*
X103600000Y-60212500D03*
X103600000Y-58587500D03*
G04 #@! TD*
D27*
G04 #@! TO.C,C11*
X103600000Y-63950000D03*
X103600000Y-62050000D03*
G04 #@! TD*
D16*
G04 #@! TO.C,C19*
X108330000Y-88000000D03*
X109270000Y-88000000D03*
G04 #@! TD*
D25*
G04 #@! TO.C,R4*
X108000000Y-128730000D03*
X108000000Y-129670000D03*
G04 #@! TD*
D36*
G04 #@! TO.C,C18*
X100200000Y-90550000D03*
X100200000Y-89050000D03*
G04 #@! TD*
D37*
G04 #@! TO.C,SW1*
X106890000Y-57550000D03*
D38*
X108000000Y-62700000D03*
X108000000Y-59700000D03*
D37*
X109100000Y-64850000D03*
X109100000Y-57550000D03*
X106890000Y-64850000D03*
D39*
X106240000Y-63450000D03*
X106240000Y-60450000D03*
X106240000Y-58950000D03*
G04 #@! TD*
D25*
G04 #@! TO.C,R5*
X108000000Y-126730000D03*
X108000000Y-127670000D03*
G04 #@! TD*
G04 #@! TO.C,R25*
X95600000Y-134430000D03*
X95600000Y-135370000D03*
G04 #@! TD*
G04 #@! TO.C,R24*
X94800000Y-138930000D03*
X94800000Y-139870000D03*
G04 #@! TD*
D40*
G04 #@! TO.C,Q2*
X97212500Y-126650000D03*
X97212500Y-128550000D03*
X99087500Y-127600000D03*
G04 #@! TD*
D25*
G04 #@! TO.C,R17*
X106000000Y-138180000D03*
X106000000Y-139120000D03*
G04 #@! TD*
G04 #@! TO.C,C24*
X91200000Y-136370000D03*
X91200000Y-135430000D03*
G04 #@! TD*
D41*
G04 #@! TO.C,U2*
X101337500Y-134150000D03*
X101337500Y-133200000D03*
X101337500Y-132250000D03*
X99062500Y-132250000D03*
X99062500Y-133200000D03*
X99062500Y-134150000D03*
G04 #@! TD*
D16*
G04 #@! TO.C,C21*
X99530000Y-88000000D03*
X100470000Y-88000000D03*
G04 #@! TD*
D40*
G04 #@! TO.C,Q1*
X96062500Y-130050000D03*
X96062500Y-131950000D03*
X97937500Y-131000000D03*
G04 #@! TD*
D34*
G04 #@! TO.C,C12*
X98750000Y-86000000D03*
X97250000Y-86000000D03*
G04 #@! TD*
D25*
G04 #@! TO.C,R31*
X95600000Y-126270000D03*
X95600000Y-125330000D03*
G04 #@! TD*
D16*
G04 #@! TO.C,R27*
X105930000Y-128000000D03*
X106870000Y-128000000D03*
G04 #@! TD*
G04 #@! TO.C,C2*
X105930000Y-129800000D03*
X106870000Y-129800000D03*
G04 #@! TD*
D42*
G04 #@! TO.C,U3*
X96602500Y-59895000D03*
X96602500Y-61165000D03*
X96602500Y-62435000D03*
X96602500Y-63705000D03*
X101597500Y-63705000D03*
X101597500Y-62435000D03*
X101597500Y-61165000D03*
X101597500Y-59895000D03*
D43*
X99100000Y-61800000D03*
G04 #@! TD*
D16*
G04 #@! TO.C,C15*
X106930000Y-91200000D03*
X107870000Y-91200000D03*
G04 #@! TD*
G04 #@! TO.C,R26*
X90770000Y-140900000D03*
X89830000Y-140900000D03*
G04 #@! TD*
G04 #@! TO.C,C20*
X100930000Y-86600000D03*
X101870000Y-86600000D03*
G04 #@! TD*
D25*
G04 #@! TO.C,R9*
X92700000Y-104670000D03*
X92700000Y-103730000D03*
G04 #@! TD*
G04 #@! TO.C,R13*
X92200000Y-85870000D03*
X92200000Y-84930000D03*
G04 #@! TD*
D44*
G04 #@! TO.C,U7*
X91062500Y-137650000D03*
X91062500Y-138600000D03*
X91062500Y-139550000D03*
X93337500Y-139550000D03*
X93337500Y-138600000D03*
X93337500Y-137650000D03*
G04 #@! TD*
D25*
G04 #@! TO.C,R18*
X105800000Y-133930000D03*
X105800000Y-134870000D03*
G04 #@! TD*
D16*
G04 #@! TO.C,R7*
X92470000Y-102700000D03*
X91530000Y-102700000D03*
G04 #@! TD*
G04 #@! TO.C,C28*
X96580000Y-125400000D03*
X97520000Y-125400000D03*
G04 #@! TD*
G04 #@! TO.C,R21*
X108330000Y-86800000D03*
X109270000Y-86800000D03*
G04 #@! TD*
G04 #@! TO.C,R14*
X109870000Y-133900000D03*
X108930000Y-133900000D03*
G04 #@! TD*
D25*
G04 #@! TO.C,C10*
X94000000Y-125330000D03*
X94000000Y-126270000D03*
G04 #@! TD*
G04 #@! TO.C,R16*
X105950000Y-140280000D03*
X105950000Y-141220000D03*
G04 #@! TD*
D36*
G04 #@! TO.C,C23*
X94800000Y-63950000D03*
X94800000Y-62450000D03*
G04 #@! TD*
D45*
G04 #@! TO.C,U4*
X91745000Y-123500000D03*
X93015000Y-123500000D03*
X94285000Y-123500000D03*
X95555000Y-123500000D03*
X96825000Y-123500000D03*
X98095000Y-123500000D03*
X99365000Y-123500000D03*
X100635000Y-123500000D03*
X101905000Y-123500000D03*
X103175000Y-123500000D03*
X104445000Y-123500000D03*
X105715000Y-123500000D03*
X106985000Y-123500000D03*
X108255000Y-123500000D03*
D46*
X109255000Y-120715000D03*
X109255000Y-119445000D03*
X109255000Y-118175000D03*
X109255000Y-116905000D03*
X109255000Y-115635000D03*
X109255000Y-114365000D03*
X109255000Y-113095000D03*
X109255000Y-111825000D03*
X109255000Y-110555000D03*
X109255000Y-109285000D03*
D45*
X108255000Y-106500000D03*
X106985000Y-106500000D03*
X105715000Y-106500000D03*
X104445000Y-106500000D03*
X103175000Y-106500000D03*
X101905000Y-106500000D03*
X100635000Y-106500000D03*
X99365000Y-106500000D03*
X98095000Y-106500000D03*
X96825000Y-106500000D03*
X95555000Y-106500000D03*
X94285000Y-106500000D03*
X93015000Y-106500000D03*
X91745000Y-106500000D03*
D47*
X99245000Y-116000000D03*
G04 #@! TD*
D48*
G04 #@! TO.C,J3*
X108200000Y-82400000D03*
D49*
X108200000Y-80400000D03*
G04 #@! TD*
D25*
G04 #@! TO.C,C5*
X107050000Y-98830000D03*
X107050000Y-99770000D03*
G04 #@! TD*
D16*
G04 #@! TO.C,C22*
X92670000Y-140900000D03*
X91730000Y-140900000D03*
G04 #@! TD*
D25*
G04 #@! TO.C,R29*
X99600000Y-130070000D03*
X99600000Y-129130000D03*
G04 #@! TD*
G04 #@! TO.C,R12*
X94400000Y-84930000D03*
X94400000Y-85870000D03*
G04 #@! TD*
D24*
G04 #@! TO.C,D6*
X109012500Y-138400000D03*
X107387500Y-138400000D03*
G04 #@! TD*
D27*
G04 #@! TO.C,C7*
X93200000Y-62250000D03*
X93200000Y-60350000D03*
G04 #@! TD*
D36*
G04 #@! TO.C,C13*
X109200000Y-91750000D03*
X109200000Y-90250000D03*
G04 #@! TD*
D25*
G04 #@! TO.C,R8*
X91550000Y-104670000D03*
X91550000Y-103730000D03*
G04 #@! TD*
G04 #@! TO.C,C27*
X91200000Y-133530000D03*
X91200000Y-134470000D03*
G04 #@! TD*
D36*
G04 #@! TO.C,R23*
X94200000Y-141250000D03*
X94200000Y-142750000D03*
G04 #@! TD*
D24*
G04 #@! TO.C,D3*
X109012500Y-136800000D03*
X107387500Y-136800000D03*
G04 #@! TD*
D50*
G04 #@! TO.C,L1*
X93400000Y-135900000D03*
X93400000Y-133100000D03*
G04 #@! TD*
D24*
G04 #@! TO.C,D4*
X109012500Y-141600000D03*
X107387500Y-141600000D03*
G04 #@! TD*
D51*
G04 #@! TO.C,BT1*
X92000000Y-64070000D03*
D52*
X108000000Y-72400000D03*
X92000000Y-127600000D03*
G04 #@! TD*
M02*
