M48
; DRILL file {KiCad 6.0.2+dfsg-1} date Mon 20 Jun 2022 01:28:01 PM CEST
; FORMAT={-:-/ absolute / inch / decimal}
; #@! TF.CreationDate,2022-06-20T13:28:01+02:00
; #@! TF.GenerationSoftware,Kicad,Pcbnew,6.0.2+dfsg-1
; #@! TF.FileFunction,Plated,1,2,PTH
FMAT,2
INCH
; #@! TA.AperFunction,Plated,PTH,ViaDrill
T1C0.0079
; #@! TA.AperFunction,Plated,PTH,ViaDrill
T2C0.0118
; #@! TA.AperFunction,Plated,PTH,ComponentDrill
T3C0.0236
; #@! TA.AperFunction,Plated,PTH,ComponentDrill
T4C0.0315
%
G90
G05
T1
X3.5276Y-2.4331
X3.5629Y-4.9486
X3.5669Y-2.622
X3.5669Y-5.1024
X3.5748Y-2.4016
X3.5925Y-5.4902
X3.5925Y-4.0433
X3.5984Y-4.0079
X3.5984Y-5.1732
X3.6063Y-4.2598
X3.6063Y-4.5669
X3.6142Y-4.7165
X3.6142Y-4.7559
X3.6142Y-4.7953
X3.622Y-3.6142
X3.622Y-3.685
X3.622Y-3.9213
X3.622Y-5.2835
X3.622Y-5.3071
X3.6372Y-4.1333
X3.6378Y-2.4094
X3.6457Y-3.5364
X3.6457Y-3.5945
X3.6693Y-2.2835
X3.6693Y-2.4094
X3.6693Y-5.1654
X3.6693Y-5.189
X3.6713Y-3.5364
X3.6713Y-3.5945
X3.6772Y-2.3386
X3.6772Y-2.622
X3.6772Y-5.5276
X3.685Y-4.0394
X3.685Y-4.1024
X3.6929Y-2.5433
X3.6929Y-3.9213
X3.6943Y-4.1299
X3.7008Y-2.4094
X3.7008Y-3.5984
X3.7008Y-3.685
X3.7087Y-2.3386
X3.7244Y-5.3071
X3.7274Y-4.0472
X3.7323Y-4.2598
X3.7362Y-4.0217
X3.7402Y-2.3386
X3.7402Y-2.4803
X3.7461Y-5.3563
X3.748Y-5.1575
X3.7491Y-4.9183
X3.7559Y-3.9921
X3.7559Y-5.2283
X3.7717Y-3.1969
X3.7717Y-3.2598
X3.7717Y-3.5984
X3.7795Y-2.2835
X3.7795Y-4.0709
X3.7795Y-4.1024
X3.7953Y-3.3701
X3.7953Y-3.4016
X3.7953Y-4.7953
X3.8031Y-5.1575
X3.8031Y-5.315
X3.8169Y-3.5364
X3.8169Y-3.6555
X3.8189Y-3.3386
X3.8248Y-5.0177
X3.8268Y-5.4724
X3.8268Y-5.5433
X3.8425Y-3.5364
X3.8425Y-3.6555
X3.8425Y-4.0709
X3.8425Y-4.1024
X3.8425Y-4.2598
X3.8425Y-5.3228
X3.8504Y-5.2047
X3.8583Y-3.3701
X3.8583Y-5.2441
X3.8641Y-5.0371
X3.8643Y-4.9429
X3.865Y-4.9189
X3.8661Y-3.1969
X3.8661Y-3.2598
X3.8661Y-4.0
X3.8661Y-4.4409
X3.874Y-3.5984
X3.874Y-5.1024
X3.876Y-5.0709
X3.8819Y-4.6929
X3.8819Y-4.7717
X3.8819Y-5.6142
X3.8858Y-4.8071
X3.8868Y-4.3937
X3.9055Y-3.4961
X3.9055Y-3.5197
X3.9075Y-4.4429
X3.9075Y-5.0551
X3.9134Y-4.1299
X3.9134Y-5.4724
X3.9134Y-5.5433
X3.9272Y-5.3086
X3.9291Y-3.5984
X3.9429Y-5.0025
X3.9449Y-3.4331
X3.9449Y-3.5354
X3.9528Y-4.0709
X3.9528Y-4.6929
X3.9528Y-4.7953
X3.9528Y-4.9213
X3.9606Y-4.4409
X3.9685Y-4.9449
X3.9764Y-3.4331
X3.9764Y-3.5354
X3.9809Y-5.3195
X3.9882Y-4.1004
X4.0079Y-5.1732
X4.0157Y-5.0
X4.0157Y-5.063
X4.0315Y-4.4882
X4.0315Y-4.622
X4.0335Y-4.0551
X4.0394Y-3.8976
X4.0394Y-4.0079
X4.0394Y-4.0945
X4.0394Y-5.2205
X4.0472Y-3.3858
X4.0472Y-3.4173
X4.0551Y-4.9213
X4.063Y-3.6063
X4.063Y-3.8543
X4.063Y-4.061
X4.063Y-5.2756
X4.0787Y-2.4724
X4.0787Y-5.0
X4.0787Y-5.063
X4.0827Y-4.1064
X4.0846Y-4.1319
X4.0866Y-2.2598
X4.0866Y-3.5669
X4.0866Y-3.7244
X4.0866Y-3.7717
X4.0866Y-5.2205
X4.0945Y-3.6378
X4.0945Y-3.9606
X4.0945Y-4.0315
X4.0945Y-4.0787
X4.1171Y-3.4479
X4.1181Y-3.5748
X4.1191Y-3.4714
X4.1201Y-3.5098
X4.1203Y-4.9581
X4.122Y-5.1083
X4.124Y-2.3327
X4.124Y-2.372
X4.124Y-2.4114
X4.1398Y-3.3878
X4.1654Y-2.5669
X4.1714Y-5.0084
X4.1752Y-3.5079
X4.1791Y-3.3859
X4.1811Y-2.4646
X4.189Y-4.1339
X4.189Y-4.4567
X4.1969Y-4.2598
X4.2047Y-3.9606
X4.2047Y-3.9921
X4.2047Y-5.1417
X4.2047Y-5.1732
X4.2255Y-5.0443
X4.2362Y-4.1339
X4.2362Y-4.5039
X4.2362Y-4.7559
X4.2362Y-4.7874
X4.2433Y-3.439
X4.2441Y-3.6614
X4.2441Y-4.3307
X4.248Y-3.5079
X4.252Y-5.1654
X4.2756Y-3.5827
X4.2756Y-3.9843
X4.2756Y-4.0236
X4.2776Y-4.0591
X4.2913Y-3.4823
X4.2913Y-3.6614
X4.2992Y-3.5827
X4.2992Y-3.937
X4.3022Y-3.3593
X4.3228Y-3.3386
X4.3228Y-3.6476
X4.3228Y-4.0551
X4.3238Y-4.0138
X4.3307Y-4.1732
X4.3307Y-4.2598
X4.3465Y-4.9134
X4.3465Y-5.3071
T2
X3.6004Y-2.4469
X3.6031Y-5.5287
X3.6114Y-5.5689
X3.6292Y-5.4384
X3.6319Y-2.4469
X3.6811Y-2.5768
X3.7087Y-2.5768
X3.7087Y-5.5886
X3.7559Y-5.6358
X3.7835Y-5.6358
X4.0Y-2.5413
X4.0315Y-2.5413
T4
X4.2598Y-3.1654
X4.2598Y-3.2441
T3
G00X3.7669Y-5.3875
M15
G01X3.7669Y-5.4308
M16
G05
G00X3.7669Y-5.5619
M15
G01X3.7669Y-5.5855
M16
G05
G00X4.1071Y-5.3875
M15
G01X4.1071Y-5.4308
M16
G05
G00X4.1071Y-5.5619
M15
G01X4.1071Y-5.5855
M16
G05
T0
M30
